<?xml version="1.0" encoding="utf-8"?>
<!-- Generator: Adobe Illustrator 23.0.1, SVG Export Plug-In . SVG Version: 6.00 Build 0)  -->
<svg version="1.1" id="Layer_1" xmlns="http://www.w3.org/2000/svg" xmlns:xlink="http://www.w3.org/1999/xlink" x="0px" y="0px"
	 viewBox="0 0 1366 768" style="enable-background:new 0 0 1366 768;" xml:space="preserve">
<path d="M894.74,386.31c-5.86-3.86-19.25-0.18-23.49,1.13c-14.22-3.98-12.3-7.93-15.15-10.25c0.99-5.32,1.69-10.74,2.09-16.25
	c3.86,4.37,9.88,4.98,12.26,2.2c4.24-4.96-1.99-8.81-3.22-5.75c-0.36,0.92,0.09,1.95,1,2.31c0,0,0.11,0.08,0.12,0.07
	c-0.15,0.11-0.39,2.68-4.56,0.95c-9.88-4.08-0.83-12.33-9.82-47.03c1.76,0.52,4.4,0.71,9.04-0.13c1.76,0.91,3,4.08,3.73,6.14
	c1.44,4.04,5.93,7.33,10.01,7.34c6.04,0.01,8.03-8.58,4.7-11.75c8.16-4.92,3.86-11.99-2.76-12.64c-5.13-0.51-12.59,6.46-14.9,8.76
	c-6.28,1.34-8.87,0.76-10.5-0.06c-1.28-4.61-2.77-9.13-4.48-13.54c6.81,3.69,14.21,0.2,14.55-4.16c0.52-6.51-6.78-5.97-5.99-2.76
	c0.25,0.95,1.22,1.53,2.17,1.29c0,0,0.14,0,0.14-0.01c-0.06,0.17,1.26,2.4-3.13,3.45c-6.57,1.57-10.48-5.45-11.33-6.26
	c-6.38-13.85-14.85-26.55-25.03-37.67c2.58,0.23,6.28-0.26,13.2-4.11c2.66,0.4,5.65,3.94,7.51,6.27c3.63,4.57,10.86,6.83,16.11,5.06
	c7.79-2.64,6.57-14.57,0.9-17.19c8.35-9.91-0.29-17.14-9.1-15.07c-6.83,1.6-13.38,13.84-15.35,17.82
	c-10.84,6.48-13.54,4.41-16.37,3.97c-9-9.24-19.2-17.3-30.36-23.91c-0.32-0.36-0.67-0.58-1.04-0.6c-5.07-2.95-10.33-5.63-15.76-7.96
	c1.25-0.54,2.81-1.52,4.89-3.33c3.75-0.23,7.64,7.88,14.84,3.62c4.13-2.44,2-9.11-1.56-9.92c3.57-6.66-2.23-9.74-7.01-7.5
	c-3.71,1.73-5.97,9.51-6.61,12.01c-3.44,3.19-5.41,3.99-6.82,4.18c-22.82-9.35-48.18-13.06-74.61-9.54
	c1.59-1.82,3.33-4.74,5.17-9.84c2.27-1.44,6.84-0.73,9.78-0.19c5.73,1.06,12.68-1.97,15.47-6.76c4.15-7.1-4.6-15.31-10.6-13.56
	c-0.21-12.96-11.46-12.74-16.76-5.4c-4.11,5.69-1.01,19.23,0.11,23.51c-3.3,10.08-6.21,11.84-8.5,13.04
	c-2.3,0.39-4.58,0.84-6.85,1.34c4.62-7.57,0.27-15.81-4.44-15.81c-6.53,0-5.42,7.23-2.28,6.19c0.93-0.32,1.43-1.33,1.11-2.27
	c0,0-0.01-0.14-0.03-0.14c0.18,0.04,2.29-1.45,3.68,2.85c0.45,1.39,1.41,6.09-3.96,10.6c-19.1,5.07-36.66,13.93-51.86,25.71
	c0.43-1.77,0.6-4.3,0.17-8.21c1.07-1.75,4.44-2.81,6.64-3.42c4.29-1.2,8.03-5.61,8.33-9.84c0.45-6.26-8.3-8.95-11.83-5.73
	c-4.5-8.81-12.14-4.88-13.31,1.93c-0.9,5.28,5.77,13.52,7.99,16.08c1.63,11.56-0.9,11.01-8.64,18.28
	c-0.09-5.68-3.64-10.21-7.4-10.21c-7.53,0-6.25,8.35-2.63,7.14c1.08-0.37,1.65-1.54,1.28-2.62c0,0-0.01-0.16-0.03-0.16
	c0.21,0.05,2.64-1.67,4.25,3.29c2.5,7.67-5.49,11.81-6.45,14.05c-5.73,6.68-10.86,13.88-15.32,21.52c-0.45-2.44-1.8-5.74-5.37-10.73
	c0.09-2.68,3.27-6.05,5.38-8.17c4.13-4.12,5.56-11.56,3.2-16.58c-3.5-7.44-15.22-4.88-17.18,1.05
	c-10.79-7.17-16.99,2.22-13.95,10.75c2.36,6.61,15.27,11.73,19.44,13.23c7.05,9.23,6.13,12.43,5.85,15.12
	c-5.97,11.15-10.52,23.18-13.45,35.81c-0.86-1.3-2.22-2.87-4.47-4.83c-0.84-4.17,7.84-10.39,1.83-17.96
	c-3.53-4.43-10.98-0.86-11.36,3.43c-8.38-3.1-11.04,4.19-7.65,9.42c2.63,4.06,12.1,5.44,15.14,5.79c3.93,3.22,5.32,5.32,5.88,6.89
	c-1.61,7.62-2.62,15.45-2.99,23.44c-5.22-6.54-14.03-6.63-16.55-2.47c-3.9,6.44,3.9,9.67,4.74,5.95c0.24-1.11-0.46-2.21-1.57-2.45
	c0,0-0.14-0.07-0.15-0.06c0.15-0.15-0.06-3.12,5.02-1.93c7.87,1.84,8.08,11.42,8.46,12.39c0.43,13.56,2.67,26.68,6.57,39.08
	c-2.26-0.55-5.29-0.76-8.99-0.28c-4.23-37.81-32.02-23.36-21.57-7.59c-6.91,1.63-10.69,5.73-6.42,11.36
	c6.36,8.38,25.08,0.03,27.19-0.95c6.24-1.1,9.2-0.17,10.89,0.74c4.44,13.03,10.66,25.24,18.4,36.34c-1.51-0.7-3.76-1.3-7.44-1.56
	c-3.2-2.85,0.14-12.99-9.34-15.45c-5.48-1.42-9.29,5.92-7.01,9.57c-8.55,2.56-6.3,9.99-0.44,12.13c4.54,1.66,12.94-2.93,15.57-4.48
	c10.28,0.42,9.48,3.44,11.85,4.51c0.12,0.1,0.24,0.16,0.37,0.19c3.26,4.28,6.76,8.37,10.46,12.27c-6.98-0.6-11.55,5.18-10.05,8.7
	c2.15,5.04,7.38,1.8,5.53-0.28c-0.55-0.61-1.5-0.66-2.12-0.11c0,0-0.1,0.05-0.1,0.07c-0.03-0.15-1.87-1.29,0.99-3.79
	c0.97-0.85,4.58-3.33,10.31,0.01c9.04,8.72,19.2,16.29,30.24,22.47c-2,1.37-4.31,3.73-6.48,7.28
	c-32.13-20.38-38.26,10.34-19.42,12.07c-3.05,6.41-2.22,11.93,4.84,12.11c10.51,0.28,15.73-19.54,16.29-21.8
	c3.17-5.79,5.84-7.42,7.61-8.11c20.87,11.08,44.38,17.15,69.38,16.97c-0.63,1.87-0.94,4.28-8.46,8.32
	c-3.23-0.26-13.35-0.75-16.91,2.93c-4.59,4.75-3.31,12.86,6.03,11.35c-0.49,4.54,6.54,9.77,11.11,5.88c3.08-2.62,4.37-8,2.87-11.99
	c-0.77-2.04-1.86-5.24-1.12-7.05c8.16-4.71,7.54-7.42,8.63-9.5c13.47-0.3,26.51-2.4,38.85-6.12c-4.82,8.05,0.12,16.48,4.96,16.19
	c6.52-0.39,4.98-7.54,1.91-6.31c-0.91,0.38-1.35,1.42-0.97,2.33c0,0,0.02,0.14,0.03,0.14c-0.18-0.03-2.2,1.58-3.85-2.63
	c-2.05-5.22,1.54-8.87,4.45-11.87c9.86-3.49,19.24-8,28-13.42c0.55,2.29,1.8,5.15,4.02,8.28c-31.41,21.48-5.6,39.24,3.42,22.61
	c4.68,5.33,10.08,6.75,13.04,0.33c4.41-9.55-11.74-22.16-13.6-23.57c-3.44-4.4-4.29-7.29-4.43-9.23
	c19.56-12.64,35.92-29.82,47.58-50.04c1.1,1.63,2.76,3.41,1.35,11.73c-2.18,2.39-8.77,10.09-8.05,15.16
	c0.93,6.54,8.14,10.5,12.66,2.19c3.29,3.16,11.73,0.82,11.45-5.17c-0.18-4.04-3.64-8.36-7.71-9.62c-2.08-0.65-5.28-1.74-6.26-3.44
	c0.5-3.66,0.41-6.06,0.07-7.76c4.32,5.28,11.52,4.91,13.26,1.47c2.6-5.13-3.53-7.14-3.96-4.26c-0.12,0.86,0.48,1.65,1.34,1.77
	c0,0,0.11,0.05,0.12,0.04c-0.1,0.12,0.23,2.38-3.71,1.76c-6.73-1.05-6.32-8.43-7.54-9.43c5.98-11.5,10.5-23.87,13.26-36.89
	c1.5,2.41,3.09,5.63,13.5,8.9c1.54,2.2,1.03,6.8,0.61,9.76c-0.81,5.77,2.51,12.58,7.42,15.17c7.27,3.84,15.1-5.26,13.09-11.18
	C903,402.52,902.3,391.29,894.74,386.31z M878.52,304.6c5,0.5,8.96,5.63,0.6,9.74l-2.23,1.09c2.24,0.71,3.13,0.69,3.84,2.1
	c0.99,1.97,0.16,7.55-3.95,7.54c-8.1-0.02-7.98-8.64-11.5-12.36C868.24,309.77,874.68,304.22,878.52,304.6z M849.44,229.23
	c6.65-1.55,14.01,3.32,5.04,12.29l-2.39,2.39c3.2-0.07,4.33-0.49,5.87,1.02c2.14,2.11,3.52,9.65-1.78,11.44
	c-4.2,1.42-10.23-0.5-13.17-4.19c-3.27-4.11-5.59-5.91-7.07-6.69C838.47,240.39,844.34,230.42,849.44,229.23z M781.77,200.23
	c3.61-1.69,8.39,0.21,4.36,6.4l-1.07,1.65c1.82-0.43,2.41-0.8,3.47-0.12c1.47,0.94,3.17,5.08,0.36,6.74
	c-5.53,3.27-8.95-2.65-12.86-3.76C776.86,207.91,779,201.52,781.77,200.23z M698.3,171.28c4-5.54,12.75-6.68,11.87,5.96l-0.24,3.37
	c2.37-2.15,2.95-3.21,5.1-3.08c3,0.19,8.99,4.97,6.16,9.81c-2.24,3.83-8.04,6.34-12.69,5.48c-5.16-0.95-8.09-0.79-9.72-0.41
	C697.35,186.9,695.23,175.53,698.3,171.28z M615.14,209.83c0.88-5.14,6.49-8.87,10.14,0.09l0.97,2.39c0.9-2.27,0.94-3.19,2.46-3.82
	c2.12-0.88,7.83,0.38,7.52,4.65c-0.61,8.39-9.54,7.64-13.65,11.02C619.74,220.86,614.47,213.77,615.14,209.83z M560.77,252.28
	c-2.3-6.44,1.72-14.29,11.64-6.4l2.64,2.1c-0.43-3.17-0.98-4.25,0.36-5.94c1.85-2.36,9.19-4.59,11.57,0.48
	c1.89,4.01,0.66,10.22-2.67,13.56c-3.71,3.71-5.24,6.22-5.84,7.78C573.11,261.91,562.54,257.21,560.77,252.28z M550,306.4
	c-2.56-3.95-1.12-9.86,6.79-6.14l2.11,0.99c-0.79-2.06-1.33-2.69-0.71-4.04c0.87-1.88,5.43-4.54,7.83-1.52
	c4.73,5.94-1.66,10.91-2.32,15.66C559.8,310.91,551.97,309.44,550,306.4z M538.15,395.91c-5-6.6,7.38-7.34,9.35-7.82
	c-0.09-0.19-7.74-7.12-3.34-13.26c3.8-5.31,14.81-3.15,17.24,19.64C555.62,397.04,542.33,401.41,538.15,395.91z M568.91,436.62
	c-4.42-1.62-6.82-7.2,1.73-8.99l2.28-0.47c-1.87-1.17-2.68-1.35-3-2.8c-0.44-2.02,1.61-6.89,5.35-5.92
	c7.35,1.9,5.24,9.71,7.56,13.91C579.44,434.32,572.3,437.86,568.91,436.62z M620.34,506.71c-8.28-0.23-1.1-10.35-0.25-12.19
	c-0.2-0.05-10.4,1.58-12.43-5.7c-1.76-6.29,6.81-13.52,26.11-1.15C632.16,493.8,627.25,506.9,620.34,506.71z M704.05,523.44
	c-3.11,2.65-7.32-1.04-7.83-3.17c-0.37-1.53,0.31-2.08,1.56-4.06l-2.39,0.6c-8.97,2.25-9.27-4.18-5.81-7.76
	c2.66-2.75,11.1-2.69,15.25-2.36C704.55,511.72,710.05,518.34,704.05,523.44z M807.16,504.8c-3.48,7.51-9.94-3.07-11.29-4.58
	c-0.12,0.17-2.66,10.18-10.14,9.17c-6.47-0.87-9.73-11.6,9.25-24.44C799.96,488.85,810.06,498.53,807.16,504.8z M733.66,490.76
	c-1.1-1.06-4.33-2.27-5.64-11.39c0.27-2.31,2.33-22.71-7.62-26.12c-6.68-2.3-9.39,2.58-8.78,9.65
	c-18.25-4.98-23.27,25.94,13.97,18.11c0.95,4.94,2.72,8.36,4.4,10.22c-18.47,2.28-36.15,0.98-52.99-3.37
	c-6.68-4.09-6.14-9.24-5.8-10.74c0.98-4.41,3.22-3.13,3.4-3.18c-0.01,0-0.01,0.14-0.01,0.14c-0.23,0.96,0.36,1.92,1.32,2.15
	c3.22,0.75,3.65-6.56-2.85-5.94c-4.54,0.43-7.98,8.49-3.4,15.45c-21.09-6.68-40.05-18.18-55.62-33.18
	c0.39-1.54,0.27-4.91,7.55-10.04c2.18-0.81,21.29-8.22,19.83-18.63c-0.98-7-6.55-7.2-12.58-3.45c-3.83-18.53-33.67-8.98-9.81,20.66
	c-4.36,3.38-6.62,6.81-7.33,9.2c-13.63-13.74-24.45-30.25-31.6-48.58c0-3.49,1.99-5.11,2.73-5.57c2.63-1.64,3.08,0.07,3.2,0.13
	c-0.01-0.01-0.07,0.06-0.07,0.06c-0.58,0.35-0.77,1.1-0.42,1.68c1.19,1.94,4.96-1.38,1.53-4.26c-2.08-1.75-6.6-0.32-8.53,3.76
	c-2.25-6.36-4.06-12.93-5.39-19.67c0.83-1.24,2.41-2.79,5.73-4.52c24.1-5.39,19.19-21.22,7.84-16.12c-1-14.56-24.8-10.37-9.65,14.77
	c-1.86,1.08-3.3,2.21-4.39,3.31c-5.23-29.36-1.14-58.57,10.88-84.49c1.86-0.48,4.96-0.65,10.74,1.96c1.81,1.47,17.9,14.16,26.13,7.6
	c5.53-4.4,2.87-9.31-3.43-12.59c14.01-12.72-9.38-33.56-22.77,2.05c-3.73-1.48-6.91-1.99-9.3-1.92
	c11.5-23.4,29.75-43.95,52.79-58.28c1.38,0.82,3.25,1.82,9.08,0.76c3.34,1.72,2.54,10.68,10.9,10.69c4.79,0.01,6.37-6.81,3.73-9.32
	c6.47-3.9,3.06-9.51-2.19-10.03c-4.07-0.4-9.99,5.12-11.82,6.95c-4.84,1.03-6.92,0.63-8.21,0.01
	c17.71-10.71,37.93-17.65,59.56-19.73c1.65,1,3.92,3.11,6.13,8.92c0.24,2.31,2.67,22.67,13.12,23.84c7.02,0.79,8.61-4.56,6.47-11.33
	c18.9,0.89,17.07-30.38-17.57-14.64c-1.34-3.1-2.9-5.43-4.39-7.08c22.9-1.6,44.85,2.21,65.03,10.72c2.02,1.62,2.36,3.59,2.4,4.34
	c0.16,3.1-1.56,2.66-1.66,2.73c0.01,0-0.02-0.09-0.02-0.1c-0.02-0.68-0.59-1.2-1.27-1.18c-2.27,0.1-1.2,5.01,2.98,3.41
	c2.08-0.8,3.09-4.06,1.94-7.23c4.62,2.14,9.12,4.5,13.46,7.1c0.35,1.91,0.26,4.86-1.61,9.73c-1.36,1.89-13.11,18.69-6.09,26.52
	c4.71,5.27,9.46,2.33,12.37-4.14c13.5,13.25,32.96-11.29-3.36-22.62c0.99-2.99,1.41-5.61,1.45-7.76
	c22.3,14.1,40.44,34.2,52.08,58.06c0.12,1.78-0.54,3.05-0.87,3.55c-1.69,2.6-2.83,1.24-2.95,1.23c0.01,0,0.04-0.09,0.04-0.09
	c0.38-0.56,0.23-1.32-0.33-1.7c-1.89-1.25-3.92,3.34,0.41,4.51c1.92,0.52,4.3-1.06,5.46-3.7c5.97,13.22,9.99,27.5,11.65,42.48
	c-1.31,0.86-2.93,2.27-4.53,7.54c-3.06,2.18-10.66-2.62-14.5,4.81c-2.2,4.26,3.14,8.78,6.58,7.58c0.51,7.54,7.06,7.07,9.92,2.64
	c2.22-3.44,0.01-11.23-0.77-13.69c1.2-4.44,2.42-6.19,3.5-7.11c1.86,18.89,0.01,38.16-5.93,56.9c-1.76,0.72-4.82,1.37-11.11-0.67
	c-1.96-1.26-19.35-12.1-26.81-4.68c-5.01,4.98-1.83,9.57,4.79,12.13c-12.52,14.19,13.02,32.32,22.41-4.55
	c3.99,1.09,7.28,1.22,9.67,0.86c-5.08,14.81-12.54,28.52-21.93,40.67c-1.77-0.2-3.54-1.41-9.76,2.13
	c-3.72-0.52-5.94-9.23-13.83-6.48c-4.53,1.58-3.75,8.53-0.43,10.03c-4.81,5.82,0.26,9.99,5.39,8.74c3.98-0.97,7.73-8.14,8.85-10.47
	c5.26-3.21,7.23-2.9,8.7-2.57C801.52,466.48,769.31,485.4,733.66,490.76z M719.53,455.77c6.53,2.24,6.55,16.23,5.92,22.53
	c-22.41,4.83-27.91-4.95-24.06-10.22c4.45-6.1,13.43-1.01,13.64-0.98C714.87,465.08,711.69,453.09,719.53,455.77z M621.36,439.74
	c-14.47-17.79-8.24-27.12-1.8-26.08c7.46,1.2,6.99,11.52,7.06,11.71c1.73-1.06,10.98-9.32,12.14-1.13
	C639.73,431.09,627.26,437.44,621.36,439.74z M593.9,361.15c0.02,5.33-10.17,8.89-14.92,10.03c-9.21-15.1-3.48-21.59,1.34-20.12
	c5.58,1.69,4.14,9.53,4.18,9.69C585.94,360.12,593.87,354.77,593.9,361.15z M618.75,298.26c-5.4,4.3-17.21-3.2-22.19-7.11
	c7.96-21.5,19.16-20.88,21.54-14.8c2.76,7.03-6.36,11.87-6.5,12.03C613.4,289.33,625.22,293.09,618.75,298.26z M660.83,233.52
	c0.78,1.57,0.13,5.99-3.14,5.98c-6.42-0.01-6.33-6.86-9.12-9.81c2.35-2.34,7.47-6.74,10.51-6.44c3.97,0.39,7.1,4.47,0.47,7.73
	l-1.77,0.87C659.57,232.41,660.27,232.4,660.83,233.52z M718.3,239.05c-6.86-0.77-9.92-14.42-10.68-20.71
	c20.83-9.59,28.31-1.24,25.7,4.74c-3.02,6.93-12.89,3.91-13.1,3.93C720.82,228.94,726.53,239.96,718.3,239.05z M801.49,261.02
	c-6.86,3.16-12.22-5.67-12.39-5.79c-0.85,1.84-3.92,13.86-9.45,7.69c-4.61-5.15,2.21-17.36,5.82-22.56
	C807.4,247.08,807.43,258.29,801.49,261.02z M839.85,353.11c-1.75-0.02-5.38-2.62-3.88-5.52c2.95-5.71,8.99-2.5,12.89-3.63
	c1.01,3.17,2.58,9.72,0.92,12.29c-2.16,3.35-7.22,4.28-7.09-3.11l0.04-1.97C841.41,352.49,841.1,353.13,839.85,353.11z
	 M811.84,389.73c4.9-4.87,17.46,1.28,22.83,4.62c-5.55,22.25-16.75,22.87-19.78,17.09c-3.52-6.68,5.02-12.5,5.13-12.67
	C818.14,398.02,805.98,395.58,811.84,389.73z M800.85,440.76c-1.26-1.22-2.11-5.61,0.98-6.68c6.07-2.12,8.25,4.37,11.86,6.23
	c-1.45,2.99-4.81,8.83-7.78,9.56c-3.87,0.94-8.18-1.86-3.01-7.14l1.38-1.4C802.41,441.38,801.75,441.63,800.85,440.76z
	 M854.61,447.08c0.19,4.08-5.31,5.14-7.31,4.25c-1.44-0.64-1.45-1.52-2.25-3.72l-0.99,2.26c-3.72,8.47-8.99,4.77-9.69-0.17
	c-0.54-3.79,4.68-10.42,7.48-13.49C845.67,439.5,854.26,439.22,854.61,447.08z M887.83,400.66l-3.38-0.09
	c2.25,2.27,3.34,2.81,3.29,4.96c-0.06,3-4.58,9.2-9.53,6.58c-3.92-2.07-6.68-7.76-6.02-12.44c0.73-5.2,0.44-8.12-0.01-9.73
	c5.44-1.68,16.71-4.28,21.09-1.4C898.98,392.3,900.5,400.99,887.83,400.66z"/>
</svg>
