<?xml version="1.0" encoding="utf-8"?>
<!-- Generator: Adobe Illustrator 23.0.1, SVG Export Plug-In . SVG Version: 6.00 Build 0)  -->
<svg version="1.1" id="Layer_1" xmlns="http://www.w3.org/2000/svg" xmlns:xlink="http://www.w3.org/1999/xlink" x="0px" y="0px"
	 viewBox="0 0 462 424" style="enable-background:new 0 0 462 424;" xml:space="preserve">
<g>
	<g id="right">
		<path d="M203.36,353c22.11-23.39,56.98-23.83,84.88-29.71c20.28-4.29,30.16-11.47,30-11.38c69.25-40.43,80.24-180.62-9.58-229.9
			c103.26,53.03,82.4,227.43-18.77,249.47c-31.95,7.65-68.03,8.23-85.81,37.79C204.19,363.81,204.03,358.29,203.36,353z"/>
		<path d="M280.28,295.58c-3.99,10.73-14.34,37.62-14.34,37.62s25.21-22.65,29.2-33.38c3.99-10.73-1.84-23.38-1.84-23.38
			S284.26,284.84,280.28,295.58z"/>
		<path d="M362.5,301.97c-10.42,2.56-36.73,8.63-36.73,8.63s31.54,9.58,41.96,7.02c10.42-2.55,16.71-14.94,16.71-14.94
			S372.92,299.42,362.5,301.97z"/>
		<path d="M311.64,283.3c-7.29,12.98-25.95,45.46-25.95,45.46s32.98-26.22,40.28-39.2c7.29-12.98,4.86-28.99,4.86-28.99
			S318.94,270.32,311.64,283.3z"/>
		<path d="M389.4,231.25c-9.05,11.61-32.1,40.59-32.1,40.59s36.32-20.41,45.37-32.01c9.05-11.61,8.93-27.84,8.93-27.84
			S398.45,219.65,389.4,231.25z"/>
		<path d="M301.86,354.65c-8.86-6.47-31.35-22.44-31.35-22.44s32.61,3.44,41.46,9.91c8.86,6.47,10.58,20.48,10.58,20.48
			S310.72,361.12,301.86,354.65z"/>
		<path d="M373.71,293.41c-10.48,2.25-36.8,8.28-36.8,8.28s25.23-22.63,35.71-24.88c10.48-2.25,20.87,6.3,20.87,6.3
			S384.19,291.16,373.71,293.41z"/>
		<path d="M322.72,339.54c-13.16-3.28-46.37-11.17-46.37-11.17s38.98-7.62,52.14-4.34c13.16,3.28,21.64,16.24,21.64,16.24
			S335.88,342.82,322.72,339.54z"/>
		<path d="M361.51,198.16c3.3,8.52,11.99,33.05,11.99,33.05s-19.97-21.2-23.27-29.72c-3.3-8.52,0.87-18.54,0.87-18.54
			S358.21,189.64,361.51,198.16z"/>
		<path d="M344.07,249.64c0.17,11.64,0.96,40.95,0.96,40.95s-16.06-31.12-16.24-42.76c-0.18-11.64,9.45-21.25,9.45-21.25
			S343.89,238,344.07,249.64z"/>
		<path d="M396.06,192.59c0,0,0.88,11.94-2.56,24.89c-3.44,12.95-27.24,43.08-27.24,43.08S377.43,209.33,396.06,192.59z"/>
		<path d="M390.24,154.53c0,0,2.11,10.59,0,16.6c-2.11,6.01-16.12,30.9-16.12,30.9S372.8,168.55,390.24,154.53z"/>
		<path d="M333.69,137.65c0,0,8.62,31.19,23.6,35.2c14.98,4,15.89,12.71,15.89,12.71S379.67,165.12,333.69,137.65z"/>
		<path d="M373.5,105.6c0,0,9.5,9.44,7.71,22.32c-1.79,12.88-8.82,48.24-8.82,48.24S362.88,117.1,373.5,105.6z"/>
		<path d="M363.05,142.62c0,0-12.31-23.88-29.91-23.71c-17.6,0.17-32.14,2.07-32.14,2.07S343.4,143.51,363.05,142.62z"/>
		<path d="M345.7,100.17c0,0,15.8,11,15.8,20.25c0,9.25-1.1,17.23-1.1,17.23L345.7,100.17z"/>
		<path d="M343.14,214.91c0,0,1.68,10.19,8.32,17.38c6.64,7.19,19.03,3.86,19.03,3.86S374.45,225.85,343.14,214.91z"/>
		<path d="M348.96,116.59c0,0-4.16-22.72-15.26-27.87c-11.1-5.15-29.33-10.3-29.33-10.3S328.81,114.3,348.96,116.59z"/>
		<path d="M326.19,169.57c4.55-2.84,11.6,1.15,15.75,8.93c4.15,7.78,3.82,16.39-0.73,19.23c-4.55,2.85-11.6-1.15-15.75-8.93
			C321.31,181.02,321.64,172.41,326.19,169.57z M330.75,177.44c1.63,1.33,3.71,1.33,4.62,0c0.92-1.33,0.34-3.48-1.29-4.81
			c-1.63-1.33-3.71-1.33-4.62,0C328.53,173.96,329.11,176.11,330.75,177.44z"/>
		<path d="M347.53,237.6c3.34-2.09,8.52,0.85,11.56,6.55c3.04,5.71,2.8,12.03-0.54,14.12c-3.34,2.09-8.52-0.85-11.56-6.56
			C343.95,246,344.19,239.68,347.53,237.6z M350.88,243.38c1.2,0.98,2.72,0.98,3.4,0c0.68-0.97,0.25-2.56-0.95-3.53
			c-1.2-0.97-2.72-0.97-3.39,0C349.25,240.82,349.68,242.4,350.88,243.38z"/>
		<path d="M405.09,253.77c2.58,3.39,0.68,9.71-4.26,14.12c-4.93,4.42-11.03,5.25-13.61,1.86c-2.58-3.39-0.67-9.71,4.26-14.12
			C396.42,251.22,402.51,250.39,405.09,253.77z M400.14,258.54c-0.72,1.52-0.46,3.22,0.59,3.81c1.05,0.59,2.49-0.17,3.21-1.68
			c0.72-1.52,0.46-3.22-0.59-3.81C402.3,256.27,400.87,257.03,400.14,258.54z"/>
		<path d="M408.79,170.29c2.58,3.38,0.68,9.71-4.26,14.12c-4.94,4.41-11.03,5.25-13.61,1.86c-2.58-3.38-0.68-9.71,4.26-14.12
			C400.12,167.73,406.21,166.9,408.79,170.29z M403.84,175.06c-0.72,1.52-0.46,3.22,0.59,3.81c1.05,0.59,2.49-0.17,3.21-1.68
			c0.72-1.52,0.46-3.22-0.59-3.81C406,172.79,404.57,173.54,403.84,175.06z"/>
		<path d="M349.32,78.9c3.1-1.62,7.52,1.36,9.89,6.65c2.36,5.29,1.77,10.9-1.33,12.52c-3.1,1.62-7.52-1.36-9.88-6.65
			C345.63,86.13,346.22,80.52,349.32,78.9z M351.95,84.28c1.01,0.95,2.36,1.06,3.02,0.24c0.66-0.82,0.38-2.25-0.63-3.21
			c-1.01-0.95-2.36-1.06-3.02-0.24C350.66,81.89,350.94,83.33,351.95,84.28z"/>
	</g>
	<g id="left">
		<path d="M261.68,353c-22.11-23.39-56.98-23.83-84.88-29.71c-20.28-4.29-30.16-11.47-30-11.38
			c-69.25-40.43-80.24-180.62,9.58-229.9c-103.26,53.03-82.4,227.43,18.77,249.47c31.95,7.65,68.03,8.23,85.81,37.79
			C260.85,363.81,261.01,358.29,261.68,353z"/>
		<path d="M184.76,295.58c3.99,10.73,14.34,37.62,14.34,37.62s-25.21-22.65-29.2-33.38c-3.98-10.73,1.84-23.38,1.84-23.38
			S180.77,284.84,184.76,295.58z"/>
		<path d="M102.54,301.97c10.42,2.56,36.73,8.63,36.73,8.63s-31.54,9.58-41.96,7.02c-10.42-2.55-16.71-14.94-16.71-14.94
			S92.12,299.42,102.54,301.97z"/>
		<path d="M153.39,283.3c7.29,12.98,25.95,45.46,25.95,45.46s-32.98-26.22-40.28-39.2c-7.29-12.98-4.86-28.99-4.86-28.99
			S146.1,270.32,153.39,283.3z"/>
		<path d="M75.64,231.25c9.05,11.61,32.1,40.59,32.1,40.59s-36.32-20.41-45.37-32.01c-9.05-11.61-8.93-27.84-8.93-27.84
			S66.59,219.65,75.64,231.25z"/>
		<path d="M163.17,354.65c8.86-6.47,31.36-22.44,31.36-22.44s-32.61,3.44-41.46,9.91c-8.86,6.47-10.58,20.48-10.58,20.48
			S154.32,361.12,163.17,354.65z"/>
		<path d="M91.33,293.41c10.48,2.25,36.8,8.28,36.8,8.28s-25.23-22.63-35.71-24.88c-10.48-2.25-20.88,6.3-20.88,6.3
			S80.85,291.16,91.33,293.41z"/>
		<path d="M142.31,339.54c13.16-3.28,46.37-11.17,46.37-11.17s-38.99-7.62-52.15-4.34c-13.16,3.28-21.64,16.24-21.64,16.24
			S129.15,342.82,142.31,339.54z"/>
		<path d="M103.53,198.16c-3.3,8.52-11.99,33.05-11.99,33.05s19.97-21.2,23.27-29.72c3.3-8.52-0.87-18.54-0.87-18.54
			S106.83,189.64,103.53,198.16z"/>
		<path d="M120.97,249.64c-0.17,11.64-0.96,40.95-0.96,40.95s16.06-31.12,16.24-42.76c0.18-11.64-9.45-21.25-9.45-21.25
			S121.14,238,120.97,249.64z"/>
		<path d="M68.98,192.59c0,0-0.88,11.94,2.56,24.89c3.44,12.95,27.24,43.08,27.24,43.08S87.61,209.33,68.98,192.59z"/>
		<path d="M74.79,154.53c0,0-2.11,10.59,0,16.6c2.11,6.01,16.12,30.9,16.12,30.9S92.23,168.55,74.79,154.53z"/>
		<path d="M131.34,137.65c0,0-8.62,31.19-23.6,35.2c-14.98,4-15.89,12.71-15.89,12.71S85.36,165.12,131.34,137.65z"/>
		<path d="M91.54,105.6c0,0-9.5,9.44-7.71,22.32c1.8,12.88,8.82,48.24,8.82,48.24S102.16,117.1,91.54,105.6z"/>
		<path d="M101.99,142.62c0,0,12.3-23.88,29.91-23.71s32.14,2.07,32.14,2.07S121.64,143.51,101.99,142.62z"/>
		<path d="M119.34,100.17c0,0-15.8,11-15.8,20.25c0,9.25,1.1,17.23,1.1,17.23L119.34,100.17z"/>
		<path d="M121.9,214.91c0,0-1.68,10.19-8.32,17.38c-6.64,7.19-19.03,3.86-19.03,3.86S90.58,225.85,121.9,214.91z"/>
		<path d="M116.08,116.59c0,0,4.16-22.72,15.26-27.87c11.1-5.15,29.33-10.3,29.33-10.3S136.23,114.3,116.08,116.59z"/>
		<path d="M138.85,169.57c-4.55-2.84-11.6,1.15-15.75,8.93c-4.15,7.78-3.82,16.39,0.73,19.23c4.55,2.85,11.6-1.15,15.75-8.93
			C143.73,181.02,143.4,172.41,138.85,169.57z M134.29,177.44c-1.63,1.33-3.71,1.33-4.63,0c-0.92-1.33-0.34-3.48,1.3-4.81
			c1.63-1.33,3.7-1.33,4.62,0C136.5,173.96,135.92,176.11,134.29,177.44z"/>
		<path d="M117.51,237.6c-3.34-2.09-8.52,0.85-11.56,6.55c-3.04,5.71-2.8,12.03,0.54,14.12c3.34,2.09,8.52-0.85,11.56-6.56
			C121.09,246,120.85,239.68,117.51,237.6z M114.16,243.38c-1.2,0.98-2.72,0.98-3.4,0c-0.68-0.97-0.25-2.56,0.95-3.53
			c1.2-0.97,2.72-0.97,3.39,0C115.78,240.82,115.36,242.4,114.16,243.38z"/>
		<path d="M59.94,253.77c-2.58,3.39-0.68,9.71,4.26,14.12c4.93,4.42,11.03,5.25,13.61,1.86c2.58-3.39,0.68-9.71-4.26-14.12
			C68.62,251.22,62.53,250.39,59.94,253.77z M64.89,258.54c0.72,1.52,0.46,3.22-0.59,3.81c-1.05,0.59-2.49-0.17-3.21-1.68
			c-0.72-1.52-0.46-3.22,0.59-3.81C62.73,256.27,64.17,257.03,64.89,258.54z"/>
		<path d="M56.25,170.29c-2.58,3.38-0.68,9.71,4.26,14.12c4.94,4.41,11.03,5.25,13.61,1.86c2.58-3.38,0.68-9.71-4.26-14.12
			C64.92,167.73,58.83,166.9,56.25,170.29z M61.2,175.06c0.72,1.52,0.46,3.22-0.59,3.81c-1.05,0.59-2.49-0.17-3.21-1.68
			c-0.72-1.52-0.46-3.22,0.59-3.81C59.03,172.79,60.47,173.54,61.2,175.06z"/>
		<path d="M115.72,78.9c-3.1-1.62-7.52,1.36-9.88,6.65s-1.77,10.9,1.33,12.52c3.1,1.62,7.52-1.36,9.89-6.65
			C119.41,86.13,118.82,80.52,115.72,78.9z M113.09,84.28c-1.01,0.95-2.36,1.06-3.02,0.24c-0.66-0.82-0.38-2.25,0.63-3.21
			c1.01-0.95,2.36-1.06,3.02-0.24C114.38,81.89,114.1,83.33,113.09,84.28z"/>
	</g>
</g>
</svg>
