<?xml version="1.0" encoding="utf-8"?>
<!-- Generator: Adobe Illustrator 23.0.1, SVG Export Plug-In . SVG Version: 6.00 Build 0)  -->
<svg version="1.1" id="Layer_1" xmlns="http://www.w3.org/2000/svg" xmlns:xlink="http://www.w3.org/1999/xlink" x="0px" y="0px"
	 viewBox="0 0 1366 768" style="enable-background:new 0 0 1366 768;" xml:space="preserve">
<g>
	<g>
		<path d="M751.92,472.8c2.29-2.86,6.73-5.39,10.03-6.93c0.03-0.01,0.04-0.04,0.03-0.07c-0.01-0.02-0.04-0.04-0.06-0.03
			c-2.98,0.96-8.18,3.16-10.07,5.69c-0.34-4.33-1.83-6.14,0.99-15.17c3.97-0.3,7.82-5.24,9.87-8.63c0.02-0.02,0.01-0.06-0.02-0.07
			c-0.02-0.01-0.05-0.01-0.07,0.01c-2.73,3.41-5.75,6.17-9.63,8.19c1.56-4.86,3.55-9.6,5.73-13.93c0.03-0.05,0.01-0.11-0.04-0.14
			c-0.05-0.03-0.11-0.01-0.14,0.04c-2.96,5.04-5.9,10.97-7.71,16.74c-1.09-2.97-1.26-7.43-1.15-10.58c0.09-1.49-2,8.59,0.94,11.22
			c-0.76,2.59-1.29,5.29-1.13,8.01c-1.54-2.26-4.18-4.74-6.49-6.52c-0.91-0.7,3.03,2.69,6.67,8.8c0.41,4.45-0.1,12.56-0.4,21.43
			c-1.3-2.3-16.49-29.81-6.54-41.38c10.39-12.08,14.91-16.02,18.3-26.96c0,0,1.98,7.74,7.17,25.39
			c4.95,16.86-16.71,40.83-18.67,42.95C751.14,485.56,752.22,478.67,751.92,472.8z"/>
		<path d="M796.09,461.22c1.96-2.97,6.04-5.82,9.1-7.61c0.03-0.01,0.03-0.04,0.02-0.07c-0.01-0.02-0.04-0.03-0.07-0.02
			c-2.8,1.2-7.64,3.79-9.25,6.41c-0.72-4.16-2.32-5.78-0.39-14.79c3.82-0.64,7.11-5.77,8.8-9.24c0.01-0.03,0-0.06-0.02-0.07
			c-0.02-0.01-0.05,0-0.07,0.02c-2.35,3.55-5.02,6.49-8.6,8.79c1.08-4.84,2.58-9.62,4.31-14.01c0.02-0.05,0-0.11-0.05-0.13
			c-0.05-0.02-0.11,0-0.13,0.05c-2.42,5.14-4.74,11.16-5.97,16.91c-1.32-2.78-1.88-7.09-2.06-10.14c-0.05-1.45-1.17,8.5,1.91,10.79
			c-0.51,2.57-0.77,5.24-0.38,7.86c-1.69-2.05-4.47-4.22-6.87-5.73c-0.94-0.6,3.18,2.33,7.25,7.93c0.8,4.28,1.02,12.18,1.52,20.8
			c-1.47-2.11-18.63-27.41-10.02-39.51c8.99-12.64,13.02-16.85,15.32-27.75c0,0,2.61,7.32,9.21,23.96
			c6.3,15.9-12.55,41.05-14.26,43.28C796.47,473.65,796.9,466.88,796.09,461.22z"/>
		<path d="M837.56,429.43c1.2-3.35,4.49-7.09,7.05-9.55c0.02-0.02,0.02-0.05,0-0.07c-0.02-0.02-0.05-0.02-0.07-0.01
			c-2.44,1.83-6.53,5.49-7.47,8.41c-1.68-3.87-3.63-5.07-3.88-14.28c3.56-1.53,5.55-7.29,6.36-11.06c0.01-0.03-0.01-0.06-0.04-0.06
			c-0.02,0-0.05,0.01-0.06,0.04c-1.44,4.01-3.34,7.49-6.28,10.57c-0.1-4.96,0.24-9.95,0.88-14.64c0.01-0.06-0.03-0.11-0.09-0.12
			c-0.05-0.01-0.1,0.03-0.12,0.08c-1.14,5.57-1.97,11.96-1.8,17.84c-1.94-2.38-3.5-6.44-4.4-9.37c-0.39-1.4,0.88,8.54,4.41,10.03
			c0.12,2.62,0.49,5.27,1.49,7.73c-2.13-1.59-5.34-3.04-8.03-3.95c-1.05-0.36,3.64,1.52,8.92,5.99c1.79,3.97,3.87,11.59,6.4,19.85
			c-1.92-1.71-24.59-22.23-19.08-36.02c5.75-14.4,8.67-19.45,8.33-30.59c0,0,4.27,6.49,14.62,21.11
			c9.88,13.96-2.49,42.85-3.63,45.43C840.87,441.42,839.69,434.74,837.56,429.43z"/>
		<path d="M860.53,375.59c-0.01-3.19,1.62-7.34,3.02-10.2c0.01-0.02,0-0.05-0.02-0.06c-0.02-0.01-0.05,0-0.06,0.02
			c-1.5,2.28-3.82,6.62-3.72,9.37c-2.6-2.75-4.6-3.16-7.63-10.84c2.53-2.37,2.44-7.84,1.98-11.26c0-0.02-0.03-0.04-0.05-0.04
			c-0.02,0-0.04,0.02-0.04,0.05c0.01,3.81-0.53,7.33-2.05,10.82c-1.6-4.15-2.84-8.45-3.74-12.59c-0.01-0.05-0.06-0.08-0.11-0.07
			c-0.05,0.01-0.08,0.06-0.07,0.1c0.74,5.04,2,10.68,3.93,15.58c-2.36-1.42-4.92-4.36-6.57-6.55c-0.76-1.06,3.35,6.92,6.78,7.11
			c0.9,2.17,2.02,4.29,3.62,6.05c-2.28-0.69-5.43-0.93-7.97-0.87c-1,0.02,3.53,0.16,9.34,2.32c2.72,2.79,6.8,8.58,11.45,14.76
			c-2.14-0.85-27.5-11.21-27.08-24.51c0.44-13.89,1.36-19.03-2.34-28.31c0,0,5.58,4.16,18.76,13.31c12.59,8.73,11,36.85,10.83,39.37
			C866.98,384.67,863.95,379.41,860.53,375.59z"/>
		<path d="M856.66,320.4c-1.24-2.48-1.57-6.34-1.58-9.11c0-0.02-0.02-0.04-0.04-0.04c-0.02,0-0.04,0.02-0.04,0.04
			c-0.29,2.36-0.43,6.63,0.71,8.74c-3.08-1.14-4.8-0.69-10.12-5.51c1.06-2.83-1.12-7.05-2.79-9.54c-0.01-0.02-0.04-0.02-0.06-0.01
			c-0.02,0.01-0.02,0.03-0.01,0.05c1.48,2.97,2.41,5.91,2.57,9.22c-2.85-2.62-5.47-5.49-7.76-8.37c-0.03-0.04-0.08-0.04-0.11-0.02
			c-0.03,0.02-0.04,0.07-0.02,0.11c2.52,3.64,5.67,7.55,9.07,10.62c-2.38-0.2-5.51-1.5-7.64-2.57c-1-0.53,5.28,4.1,8.02,2.92
			c1.54,1.34,3.23,2.57,5.15,3.32c-2.04,0.34-4.59,1.37-6.55,2.39c-0.77,0.4,2.81-1.23,8.17-1.79c3.19,1.13,8.61,4.06,14.61,7.09
			c-2,0.16-25.75,1.86-30.54-8.66c-5.01-10.99-6.27-15.35-12.73-21.16c0,0,5.95,1.09,19.75,3.14c13.17,1.96,22.77,24.48,23.61,26.5
			C865.19,324.99,860.8,322.06,856.66,320.4z"/>
		<path d="M833.89,276.51c-1.57-1.92-2.62-5.23-3.17-7.65c0-0.02-0.02-0.03-0.04-0.03c-0.02,0-0.03,0.02-0.03,0.04
			c0.21,2.11,0.93,5.88,2.34,7.49c-2.92-0.39-4.33,0.34-9.93-2.82c0.37-2.68-2.36-5.94-4.32-7.78c-0.01-0.01-0.04-0.01-0.05,0
			c-0.01,0.01-0.01,0.03,0,0.05c1.88,2.3,3.28,4.69,4.06,7.55c-3-1.72-5.86-3.72-8.43-5.79c-0.03-0.03-0.07-0.02-0.1,0.01
			c-0.02,0.03-0.02,0.07,0.01,0.1c2.92,2.68,6.44,5.48,10.01,7.49c-2.12,0.3-5.11-0.22-7.18-0.74c-0.98-0.27,5.42,2.55,7.58,0.97
			c1.61,0.87,3.33,1.61,5.16,1.89c-1.72,0.7-3.74,2.1-5.25,3.38c-0.59,0.5,2.21-1.63,6.79-3.18c3.01,0.36,8.32,1.85,14.16,3.31
			c-1.71,0.53-22.12,6.7-28.39-1.55c-6.54-8.61-8.51-12.17-15.29-15.98c0,0,5.41-0.22,17.87-1.14c11.89-0.89,24.71,16.9,25.84,18.5
			C842.25,278.84,837.83,277.14,833.89,276.51z"/>
		<path d="M838.08,266.16c0.17-2.48,1.66-5.61,2.9-7.75c0.01-0.02,0.01-0.04-0.01-0.05c-0.02-0.01-0.04,0-0.05,0.01
			c-1.29,1.69-3.33,4.93-3.41,7.07c-1.87-2.28-3.4-2.71-5.32-8.84c2.1-1.7,2.33-5.95,2.16-8.63c0-0.02-0.02-0.04-0.04-0.03
			c-0.02,0-0.03,0.02-0.03,0.03c-0.2,2.96-0.81,5.66-2.19,8.29c-1.01-3.31-1.74-6.72-2.2-9.98c0-0.04-0.04-0.07-0.08-0.06
			c-0.04,0-0.06,0.04-0.06,0.08c0.3,3.95,0.96,8.4,2.19,12.31c-1.75-1.23-3.58-3.65-4.74-5.45c-0.53-0.86,2.22,5.56,4.87,5.89
			c0.58,1.73,1.33,3.45,2.48,4.9c-1.73-0.66-4.16-1.02-6.14-1.12c-0.78-0.04,2.73,0.32,7.13,2.32c1.95,2.32,4.81,7.04,8.08,12.09
			c-1.62-0.78-20.73-10.22-19.67-20.53c1.11-10.76,2.11-14.7-0.25-22.11c0,0,4.1,3.54,13.83,11.37c9.29,7.48,6.5,29.22,6.23,31.17
			C842.59,273.57,840.52,269.31,838.08,266.16z"/>
		<path d="M792.5,505.07c2.75,3.63,4.46,9.77,5.31,14.24c0.01,0.04,0.04,0.06,0.07,0.05c0.03-0.01,0.06-0.04,0.06-0.07
			c-0.25-3.89-1.32-10.84-3.79-13.9c5.33,0.91,7.97-0.34,18.02,5.83c-0.85,4.89,3.94,11.05,7.4,14.56c0.03,0.03,0.07,0.03,0.09,0
			c0.02-0.02,0.02-0.06,0-0.09c-3.29-4.35-5.69-8.82-6.95-14.13c5.39,3.36,10.51,7.22,15.08,11.18c0.05,0.05,0.14,0.04,0.18-0.01
			c0.05-0.05,0.04-0.13,0-0.18c-5.17-5.12-11.45-10.48-17.87-14.42c3.91-0.41,9.36,0.75,13.12,1.84c1.78,0.56-9.77-5.03-13.84-2.3
			c-2.89-1.71-5.99-3.17-9.33-3.81c3.2-1.17,7-3.6,9.85-5.85c1.12-0.88-4.17,2.84-12.66,5.37c-5.5-0.86-15.13-3.96-25.75-7.03
			c3.18-0.87,41.03-10.81,51.97,4.75c11.42,16.24,14.79,22.9,26.97,30.33c0,0-9.95,0.03-32.85,0.9
			c-21.88,0.83-44.2-32.66-46.17-35.67C777.33,500.23,785.32,503.64,792.5,505.07z"/>
		<path d="M846.52,478.07c3.32,2.46,6.35,7.37,8.23,11.04c0.01,0.03,0.05,0.04,0.08,0.03c0.03-0.01,0.04-0.05,0.03-0.07
			c-1.21-3.32-3.89-9.1-6.82-11.13c4.87-0.56,6.85-2.32,17.15,0.51c0.5,4.47,6.23,8.61,10.13,10.79c0.03,0.02,0.06,0.01,0.08-0.02
			c0.01-0.03,0.01-0.06-0.02-0.08c-3.96-2.95-7.19-6.23-9.62-10.53c5.54,1.56,10.97,3.62,15.95,5.91c0.06,0.03,0.13,0,0.16-0.05
			c0.03-0.06,0-0.13-0.05-0.16c-5.8-3.14-12.61-6.22-19.2-8.02c3.3-1.35,8.33-1.72,11.88-1.73c1.69,0.04-9.77-1.9-12.63,1.51
			c-2.95-0.75-6.02-1.24-9.08-0.95c2.48-1.83,5.18-4.91,7.09-7.58c0.75-1.05-2.91,3.53-9.66,7.88c-5,0.64-14.17,0.39-24.19,0.41
			c2.54-1.56,32.96-19.8,46.42-9.04c14.05,11.24,18.67,16.18,31.15,19.55c0,0-8.65,2.55-28.36,9.11
			c-18.82,6.26-46.73-17.21-49.21-19.34C832.1,477.7,839.91,478.64,846.52,478.07z"/>
		<path d="M882.95,425.89c3.73,1.08,8.02,4.4,10.87,7.02c0.02,0.02,0.06,0.02,0.08,0c0.02-0.02,0.02-0.05,0-0.08
			c-2.16-2.53-6.42-6.73-9.66-7.56c4.1-2.09,5.27-4.29,15.27-5.19c1.9,3.77,8.31,5.54,12.47,6.17c0.03,0,0.06-0.02,0.06-0.05
			c0-0.03-0.02-0.05-0.04-0.06c-4.46-1.29-8.38-3.13-11.93-6.11c5.39-0.45,10.85-0.42,15.98-0.04c0.06,0.01,0.12-0.04,0.12-0.1
			c0.01-0.06-0.04-0.11-0.09-0.12c-6.14-0.86-13.15-1.33-19.54-0.75c2.46-2.27,6.77-4.25,9.9-5.43c1.5-0.52-9.23,1.53-10.62,5.48
			c-2.84,0.31-5.71,0.89-8.31,2.15c1.59-2.43,2.95-6.02,3.75-9.01c0.32-1.17-1.4,4.06-5.91,10.11c-4.19,2.21-12.35,5-21.16,8.31
			c1.73-2.21,22.51-28.27,37.9-23.22c16.07,5.28,21.76,8.11,33.85,6.98c0,0-6.77,5.09-21.97,17.34c-14.52,11.7-46.8,0.2-49.68-0.85
			C870.13,430.31,877.32,428.57,882.95,425.89z"/>
		<path d="M893.72,364.74c3.31,0.06,7.59,1.83,10.52,3.35c0.02,0.01,0.05,0,0.06-0.02c0.01-0.02,0-0.05-0.01-0.06
			c-2.34-1.6-6.79-4.11-9.65-4.07c2.91-2.64,3.38-4.71,11.41-7.68c2.41,2.68,8.08,2.7,11.64,2.3c0.03,0,0.04-0.03,0.04-0.05
			c0-0.02-0.02-0.04-0.05-0.04c-3.96-0.07-7.6-0.7-11.19-2.37c4.34-1.57,8.84-2.77,13.15-3.61c0.05-0.01,0.09-0.06,0.08-0.11
			c-0.01-0.05-0.06-0.08-0.11-0.08c-5.25,0.66-11.12,1.84-16.26,3.75c1.52-2.42,4.63-5.01,6.94-6.68c1.12-0.76-7.26,3.33-7.52,6.88
			c-2.27,0.89-4.5,2.01-6.36,3.63c0.76-2.35,1.08-5.62,1.07-8.25c0-1.04-0.25,3.66-2.61,9.65c-2.96,2.76-9.05,6.88-15.57,11.57
			c0.93-2.2,12.22-28.3,26.02-27.58c14.41,0.76,19.73,1.82,29.43-1.82c0,0-4.44,5.7-14.22,19.19c-9.34,12.88-38.49,10.62-41.1,10.39
			C884.15,371.24,889.69,368.2,893.72,364.74z"/>
		<path d="M876.15,293.98c2.03-1.57,5.49-2.57,8-3.07c0.02,0,0.03-0.02,0.03-0.04c0-0.02-0.02-0.03-0.04-0.03
			c-2.19,0.16-6.11,0.8-7.82,2.21c0.48-3.01-0.23-4.49,3.19-10.19c2.76,0.46,6.21-2.28,8.17-4.25c0.01-0.01,0.01-0.04,0-0.05
			c-0.01-0.01-0.04-0.01-0.05,0c-2.43,1.88-4.94,3.26-7.93,3.99c1.87-3.06,4.01-5.96,6.22-8.56c0.03-0.03,0.02-0.08-0.01-0.1
			c-0.03-0.03-0.07-0.02-0.1,0c-2.86,2.94-5.85,6.51-8.04,10.15c-0.25-2.2,0.38-5.28,0.97-7.41c0.31-1-2.79,5.53-1.22,7.82
			c-0.95,1.64-1.75,3.4-2.1,5.28c-0.68-1.8-2.07-3.93-3.35-5.52c-0.5-0.63,1.62,2.34,3.1,7.11c-0.46,3.11-2.15,8.56-3.83,14.56
			c-0.51-1.79-6.31-23.08,2.4-29.33c9.1-6.53,12.83-8.46,16.96-15.37c0,0,0.07,5.61,0.68,18.52c0.58,12.33-18.18,25.1-19.87,26.22
			C873.5,302.56,875.38,298.04,876.15,293.98z"/>
		<path d="M848.24,269.92c1.53-1.57,4.33-2.81,6.39-3.53c0.02-0.01,0.03-0.02,0.02-0.04c0-0.02-0.02-0.02-0.04-0.02
			c-1.83,0.4-5.06,1.4-6.33,2.79c0.05-2.6-0.73-3.76,1.49-8.97c2.38,0.06,4.97-2.66,6.39-4.55c0.01-0.01,0.01-0.03-0.01-0.04
			c-0.01-0.01-0.03-0.01-0.04,0c-1.83,1.87-3.79,3.33-6.22,4.3c1.22-2.8,2.68-5.5,4.24-7.96c0.02-0.03,0.01-0.07-0.02-0.09
			c-0.03-0.02-0.07-0.01-0.09,0.02c-2.06,2.82-4.17,6.18-5.58,9.51c-0.47-1.83-0.31-4.5-0.06-6.37c0.14-0.88-1.7,5-0.11,6.74
			c-0.61,1.49-1.08,3.07-1.15,4.7c-0.78-1.44-2.21-3.07-3.48-4.26c-0.5-0.47,1.65,1.78,3.45,5.63c-0.02,2.67-0.81,7.47-1.51,12.73
			c-0.64-1.45-8.05-18.73-1.43-25.03c6.91-6.58,9.83-8.65,12.49-14.96c0,0,0.72,4.72,2.76,15.54c1.95,10.33-12.38,23.32-13.67,24.46
			C847.02,277.47,848.07,273.43,848.24,269.92z"/>
		<path d="M699.17,502.78c8.28-7.19,23.95,0.8,30.59-2.73c4.78-2.29,6.83-6.77,17.52-13.8c11.89-4.44,15.56,2.28,29.97,4.69
			c8.3-1.62,11.83-10.34,19.62-14.98c5.55-3.25,13.21-3.08,20.1-3.45c3.29-2.82,4.17-6.66,3.55-10.56l0.77-0.26
			c1.4,3.34,1.58,6.98,0.15,10.45c3.74-0.47,6.98-1.41,9.14-3.65c5.37-5.31,6.07-16.97,11.01-25.39
			c7.76-13.03,26.89-12.69,26.33-29.59c-0.22-6.89-2.64-14.62-1.78-21.76c0.81-7.3,6.43-13.97,10.1-19.93
			c12.5-20.16-10.52-24.38-9.45-44.89c0.56-10.03,4.9-19.89,0.13-26.98c-5.68-8.55-18.57-12.01-24.05-23.43
			c0.49-1.51,0.81-2.42,0.98-2.02c5.38,13.07,18.85,13.36,25.88,23.55c7.27,10.3-1.62,25.18,1.62,35.5
			c0.37,1.18,0.88,2.35,1.46,3.51c0.91-6.37,5.41-10.99,11.61-13.71l0.25,0.51c-6.71,3.47-10.88,9.08-10.03,16.43
			c5.07,8.15,12.68,16.3,8.88,27.06c-2.33,6.77-7.64,12.65-10.62,18.93c-0.75,1.58-1.22,3.19-1.5,4.81
			c2.54-1.57,5.72-2.26,9.12-2.17l0.04,0.72c-4.32,0.91-8.13,2.93-9.48,6.64c0.38,10.99,6.21,22.48-2.88,32.19
			c-6.73,7.13-17.58,10.81-21.49,17.68c-0.11,0.19-0.21,0.39-0.31,0.58c4.89-1.56,9.97-0.82,14.58,1.68l-0.52,1.25
			c-5.79-2.21-11.62-1.6-16.34,2.44c-3.92,11.55-4.06,24.85-24.1,26.85c-21.25,2.05-16.08-0.83-29.32,12.3
			c-17.62,17.32-26.75-2.84-39.76,2.39c13.71,2.39,18.81,20.06,9.33,27.31l-0.85-0.93c5.07-7.55,1.1-22.34-14.58-21.94l-0.03-0.2
			c-6.99,6.65-10.38,11.23-20.19,11.42c-10.56,0.06-18.74-4.02-22.03,3c-1.68,3.59-2.71,12.56-5.05,18.29
			c-1.49-3.14-3.94-5.76-6.88-7.82C692.43,516,693.05,507.66,699.17,502.78z"/>
		<path d="M751.52,517.78c0,5.7,4.62,10.32,10.32,10.32c5.7,0,10.32-4.62,10.32-10.32c0-5.7-4.62-10.32-10.32-10.32
			C756.14,507.46,751.52,512.08,751.52,517.78z"/>
		<path d="M811.31,455.63c0,5.3,4.29,9.59,9.59,9.59c5.3,0,9.59-4.29,9.59-9.59c0-5.29-4.29-9.59-9.59-9.59
			C815.6,446.05,811.31,450.34,811.31,455.63z"/>
		<path d="M856.96,447.59c-1.43,4.35,0.93,9.03,5.28,10.46c4.35,1.43,9.03-0.93,10.46-5.28c1.43-4.35-0.93-9.03-5.28-10.46
			C863.07,440.88,858.39,443.24,856.96,447.59z"/>
		<path d="M877.74,388.35c0.43,3.81,3.87,6.56,7.68,6.14c3.82-0.43,6.56-3.86,6.14-7.68c-0.43-3.82-3.86-6.56-7.68-6.14
			C880.06,381.1,877.32,384.54,877.74,388.35z"/>
		<path d="M874.84,330.02c1.92,3.33,6.17,4.46,9.5,2.55c3.32-1.92,4.46-6.17,2.54-9.5c-1.92-3.32-6.17-4.46-9.5-2.54
			C874.06,322.44,872.92,326.69,874.84,330.02z"/>
		<path d="M838.53,294.68c1.61,2.78,5.16,3.73,7.94,2.13c2.78-1.61,3.73-5.16,2.13-7.94c-1.61-2.78-5.16-3.73-7.94-2.13
			C837.87,288.35,836.92,291.9,838.53,294.68z"/>
		<path d="M855.26,281.56c1.61,2.78,5.16,3.73,7.94,2.13c2.78-1.61,3.73-5.16,2.13-7.94c-1.61-2.78-5.16-3.73-7.94-2.13
			C854.61,275.22,853.66,278.78,855.26,281.56z"/>
	</g>
	<g>
		<path d="M680.24,472.8c-2.29-2.86-6.73-5.39-10.03-6.93c-0.03-0.01-0.04-0.04-0.03-0.07c0.01-0.02,0.04-0.04,0.07-0.03
			c2.98,0.96,8.18,3.16,10.07,5.69c0.34-4.33,1.83-6.14-0.99-15.17c-3.97-0.3-7.82-5.24-9.87-8.63c-0.01-0.02-0.01-0.06,0.02-0.07
			c0.02-0.01,0.05-0.01,0.07,0.01c2.73,3.41,5.75,6.17,9.63,8.19c-1.56-4.86-3.55-9.6-5.73-13.93c-0.03-0.05-0.01-0.11,0.04-0.14
			c0.05-0.03,0.11-0.01,0.14,0.04c2.96,5.04,5.9,10.97,7.7,16.74c1.09-2.97,1.26-7.43,1.15-10.58c-0.09-1.49,2,8.59-0.94,11.22
			c0.76,2.59,1.29,5.29,1.13,8.01c1.54-2.26,4.18-4.74,6.49-6.52c0.91-0.7-3.03,2.69-6.67,8.8c-0.41,4.45,0.1,12.56,0.4,21.43
			c1.3-2.3,16.49-29.81,6.54-41.38c-10.39-12.08-14.91-16.02-18.3-26.96c0,0-1.98,7.74-7.17,25.39
			c-4.95,16.86,16.72,40.83,18.67,42.95C681.02,485.56,679.94,478.67,680.24,472.8z"/>
		<path d="M636.07,461.22c-1.96-2.97-6.04-5.82-9.1-7.61c-0.02-0.01-0.03-0.04-0.02-0.07c0.01-0.02,0.04-0.03,0.07-0.02
			c2.8,1.2,7.64,3.79,9.25,6.41c0.72-4.16,2.32-5.78,0.39-14.79c-3.82-0.64-7.11-5.77-8.8-9.24c-0.01-0.03,0-0.06,0.02-0.07
			c0.02-0.01,0.05,0,0.07,0.02c2.34,3.55,5.02,6.49,8.6,8.79c-1.08-4.84-2.58-9.62-4.31-14.01c-0.02-0.05,0-0.11,0.06-0.13
			c0.05-0.02,0.11,0,0.13,0.05c2.42,5.14,4.74,11.16,5.97,16.91c1.32-2.78,1.88-7.09,2.06-10.14c0.05-1.45,1.17,8.5-1.91,10.79
			c0.51,2.57,0.77,5.24,0.38,7.86c1.69-2.05,4.47-4.22,6.87-5.73c0.94-0.6-3.18,2.33-7.25,7.93c-0.8,4.28-1.02,12.18-1.52,20.8
			c1.47-2.11,18.63-27.41,10.02-39.51c-8.99-12.64-13.02-16.85-15.32-27.75c0,0-2.61,7.32-9.21,23.96
			c-6.3,15.9,12.55,41.05,14.26,43.28C635.69,473.65,635.25,466.88,636.07,461.22z"/>
		<path d="M594.6,429.43c-1.2-3.35-4.49-7.09-7.05-9.55c-0.02-0.02-0.02-0.05,0-0.07c0.02-0.02,0.05-0.02,0.07-0.01
			c2.44,1.83,6.53,5.49,7.47,8.41c1.68-3.87,3.63-5.07,3.88-14.28c-3.56-1.53-5.55-7.29-6.37-11.06c-0.01-0.03,0.01-0.06,0.04-0.06
			c0.03,0,0.05,0.01,0.06,0.04c1.44,4.01,3.34,7.49,6.28,10.57c0.1-4.96-0.24-9.95-0.88-14.64c-0.01-0.06,0.03-0.11,0.09-0.12
			c0.05-0.01,0.1,0.03,0.12,0.08c1.14,5.57,1.97,11.96,1.8,17.84c1.94-2.38,3.5-6.44,4.4-9.37c0.39-1.4-0.88,8.54-4.41,10.03
			c-0.12,2.62-0.49,5.27-1.49,7.73c2.13-1.59,5.34-3.04,8.03-3.95c1.05-0.36-3.64,1.52-8.92,5.99c-1.78,3.97-3.87,11.59-6.4,19.85
			c1.92-1.71,24.59-22.23,19.08-36.02c-5.75-14.4-8.67-19.45-8.33-30.59c0,0-4.27,6.49-14.62,21.11
			c-9.88,13.96,2.49,42.85,3.63,45.43C591.28,441.42,592.46,434.74,594.6,429.43z"/>
		<path d="M571.63,375.59c0.01-3.19-1.62-7.34-3.02-10.2c-0.01-0.02,0-0.05,0.02-0.06c0.02-0.01,0.05,0,0.06,0.02
			c1.5,2.28,3.82,6.62,3.72,9.37c2.6-2.75,4.6-3.16,7.63-10.84c-2.53-2.37-2.44-7.84-1.98-11.26c0-0.02,0.03-0.04,0.05-0.04
			c0.02,0,0.04,0.02,0.04,0.05c-0.01,3.81,0.53,7.33,2.05,10.82c1.6-4.15,2.84-8.45,3.74-12.59c0.01-0.05,0.06-0.08,0.11-0.07
			c0.05,0.01,0.08,0.06,0.07,0.1c-0.74,5.04-2,10.68-3.93,15.58c2.36-1.42,4.92-4.36,6.57-6.55c0.76-1.06-3.35,6.92-6.78,7.11
			c-0.9,2.17-2.02,4.29-3.62,6.05c2.28-0.69,5.43-0.93,7.97-0.87c1,0.02-3.53,0.16-9.34,2.32c-2.72,2.79-6.8,8.58-11.45,14.76
			c2.14-0.85,27.5-11.21,27.08-24.51c-0.44-13.89-1.36-19.03,2.34-28.31c0,0-5.58,4.16-18.76,13.31
			c-12.59,8.73-11,36.85-10.83,39.37C565.17,384.67,568.21,379.41,571.63,375.59z"/>
		<path d="M575.49,320.4c1.24-2.48,1.57-6.34,1.58-9.11c0-0.02,0.02-0.04,0.04-0.04c0.02,0,0.04,0.02,0.04,0.04
			c0.29,2.36,0.43,6.63-0.71,8.74c3.08-1.14,4.8-0.69,10.12-5.51c-1.06-2.83,1.12-7.05,2.79-9.54c0.01-0.02,0.04-0.02,0.06-0.01
			c0.02,0.01,0.02,0.03,0.01,0.05c-1.48,2.97-2.42,5.91-2.57,9.22c2.85-2.62,5.47-5.49,7.76-8.37c0.03-0.04,0.08-0.04,0.11-0.02
			c0.03,0.02,0.04,0.07,0.02,0.11c-2.52,3.64-5.67,7.55-9.07,10.62c2.39-0.2,5.51-1.5,7.64-2.57c1-0.53-5.28,4.1-8.02,2.92
			c-1.54,1.34-3.23,2.57-5.15,3.32c2.04,0.34,4.59,1.37,6.55,2.39c0.77,0.4-2.81-1.23-8.17-1.79c-3.19,1.13-8.6,4.06-14.61,7.09
			c2,0.16,25.75,1.86,30.54-8.66c5.01-10.99,6.27-15.35,12.73-21.16c0,0-5.95,1.09-19.74,3.14c-13.17,1.96-22.77,24.48-23.61,26.5
			C566.96,324.99,571.36,322.06,575.49,320.4z"/>
		<path d="M598.26,276.51c1.57-1.92,2.62-5.23,3.17-7.65c0-0.02,0.02-0.03,0.04-0.03c0.02,0,0.03,0.02,0.03,0.04
			c-0.22,2.11-0.93,5.88-2.34,7.49c2.92-0.39,4.33,0.34,9.93-2.82c-0.37-2.68,2.36-5.94,4.32-7.78c0.01-0.01,0.04-0.01,0.05,0
			c0.01,0.01,0.01,0.03,0,0.05c-1.88,2.3-3.27,4.69-4.06,7.55c3-1.72,5.86-3.72,8.43-5.79c0.03-0.03,0.08-0.02,0.1,0.01
			c0.02,0.03,0.02,0.07-0.01,0.1c-2.92,2.68-6.44,5.48-10.01,7.49c2.12,0.3,5.11-0.22,7.18-0.74c0.98-0.27-5.42,2.55-7.58,0.97
			c-1.61,0.87-3.33,1.61-5.16,1.89c1.72,0.7,3.74,2.1,5.25,3.38c0.59,0.5-2.21-1.63-6.79-3.18c-3.01,0.36-8.32,1.85-14.16,3.31
			c1.71,0.53,22.12,6.7,28.39-1.55c6.54-8.61,8.51-12.17,15.29-15.98c0,0-5.41-0.22-17.87-1.14c-11.89-0.89-24.71,16.9-25.84,18.5
			C589.91,278.84,594.33,277.14,598.26,276.51z"/>
		<path d="M594.08,266.16c-0.17-2.48-1.66-5.61-2.91-7.75c-0.01-0.02,0-0.04,0.01-0.05c0.02-0.01,0.04,0,0.05,0.01
			c1.29,1.69,3.33,4.93,3.41,7.07c1.87-2.28,3.4-2.71,5.32-8.84c-2.1-1.7-2.33-5.95-2.16-8.63c0-0.02,0.02-0.04,0.04-0.03
			c0.02,0,0.03,0.02,0.03,0.03c0.2,2.96,0.81,5.66,2.19,8.29c1.01-3.31,1.74-6.72,2.2-9.98c0-0.04,0.04-0.07,0.08-0.06
			c0.04,0,0.06,0.04,0.06,0.08c-0.3,3.95-0.96,8.4-2.19,12.31c1.75-1.23,3.58-3.65,4.74-5.45c0.53-0.86-2.22,5.56-4.87,5.89
			c-0.58,1.73-1.33,3.45-2.47,4.9c1.73-0.66,4.16-1.02,6.14-1.12c0.78-0.04-2.73,0.32-7.13,2.32c-1.95,2.32-4.81,7.04-8.08,12.09
			c1.62-0.78,20.73-10.22,19.67-20.53c-1.11-10.76-2.11-14.7,0.25-22.11c0,0-4.1,3.54-13.83,11.37c-9.29,7.48-6.5,29.22-6.23,31.17
			C589.57,273.57,591.64,269.31,594.08,266.16z"/>
		<path d="M639.65,505.07c-2.75,3.63-4.46,9.77-5.31,14.24c-0.01,0.04-0.04,0.06-0.07,0.05c-0.03-0.01-0.06-0.04-0.06-0.07
			c0.25-3.89,1.32-10.84,3.79-13.9c-5.33,0.91-7.97-0.34-18.02,5.83c0.85,4.89-3.94,11.05-7.4,14.56c-0.03,0.03-0.07,0.03-0.09,0
			c-0.02-0.02-0.02-0.06,0-0.09c3.29-4.35,5.69-8.82,6.95-14.13c-5.39,3.36-10.51,7.22-15.08,11.18c-0.05,0.05-0.14,0.04-0.19-0.01
			c-0.05-0.05-0.04-0.13,0.01-0.18c5.18-5.12,11.45-10.48,17.87-14.42c-3.91-0.41-9.36,0.75-13.12,1.84
			c-1.78,0.56,9.77-5.03,13.84-2.3c2.89-1.71,5.99-3.17,9.33-3.81c-3.2-1.17-7-3.6-9.85-5.85c-1.12-0.88,4.17,2.84,12.66,5.37
			c5.5-0.86,15.13-3.96,25.75-7.03c-3.18-0.87-41.03-10.81-51.97,4.75c-11.42,16.24-14.79,22.9-26.97,30.33c0,0,9.95,0.03,32.86,0.9
			c21.88,0.83,44.2-32.66,46.17-35.67C654.82,500.23,646.83,503.64,639.65,505.07z"/>
		<path d="M585.64,478.07c-3.32,2.46-6.35,7.37-8.23,11.04c-0.01,0.03-0.05,0.04-0.08,0.03c-0.03-0.01-0.04-0.05-0.03-0.07
			c1.21-3.32,3.89-9.1,6.82-11.13c-4.87-0.56-6.85-2.32-17.15,0.51c-0.5,4.47-6.23,8.61-10.13,10.79c-0.03,0.02-0.06,0.01-0.08-0.02
			c-0.01-0.03,0-0.06,0.02-0.08c3.96-2.95,7.19-6.23,9.62-10.53c-5.54,1.56-10.97,3.62-15.95,5.91c-0.06,0.03-0.13,0-0.16-0.05
			c-0.03-0.06,0-0.13,0.05-0.16c5.8-3.14,12.61-6.22,19.2-8.02c-3.3-1.35-8.33-1.72-11.88-1.73c-1.69,0.04,9.77-1.9,12.63,1.51
			c2.95-0.75,6.02-1.24,9.08-0.95c-2.48-1.83-5.18-4.91-7.09-7.58c-0.75-1.05,2.91,3.53,9.66,7.88c5,0.64,14.17,0.39,24.19,0.41
			c-2.54-1.56-32.96-19.8-46.42-9.04c-14.05,11.24-18.67,16.18-31.15,19.55c0,0,8.65,2.55,28.36,9.11
			c18.82,6.26,46.73-17.21,49.21-19.34C600.06,477.7,592.24,478.64,585.64,478.07z"/>
		<path d="M549.21,425.89c-3.73,1.08-8.02,4.4-10.87,7.02c-0.02,0.02-0.06,0.02-0.08,0c-0.02-0.02-0.02-0.05,0-0.08
			c2.16-2.53,6.42-6.73,9.66-7.56c-4.1-2.09-5.27-4.29-15.27-5.19c-1.9,3.77-8.31,5.54-12.47,6.17c-0.03,0-0.06-0.02-0.06-0.05
			c0-0.03,0.02-0.05,0.04-0.06c4.46-1.29,8.38-3.13,11.93-6.11c-5.39-0.45-10.85-0.42-15.99-0.04c-0.06,0.01-0.11-0.04-0.12-0.1
			c-0.01-0.06,0.04-0.11,0.09-0.12c6.14-0.86,13.15-1.33,19.54-0.75c-2.46-2.27-6.77-4.25-9.9-5.43c-1.5-0.52,9.23,1.53,10.62,5.48
			c2.84,0.31,5.71,0.89,8.31,2.15c-1.59-2.43-2.95-6.02-3.75-9.01c-0.32-1.17,1.4,4.06,5.91,10.11c4.19,2.21,12.35,5,21.16,8.31
			c-1.73-2.21-22.51-28.27-37.9-23.22c-16.07,5.28-21.76,8.11-33.85,6.98c0,0,6.78,5.09,21.98,17.34
			c14.52,11.7,46.81,0.2,49.68-0.85C562.03,430.31,554.84,428.57,549.21,425.89z"/>
		<path d="M538.44,364.74c-3.31,0.06-7.58,1.83-10.52,3.35c-0.02,0.01-0.05,0-0.06-0.02c-0.01-0.02,0-0.05,0.01-0.06
			c2.34-1.6,6.79-4.11,9.65-4.07c-2.91-2.64-3.38-4.71-11.42-7.68c-2.41,2.68-8.08,2.7-11.64,2.3c-0.03,0-0.04-0.03-0.04-0.05
			c0-0.02,0.03-0.04,0.05-0.04c3.96-0.07,7.6-0.7,11.19-2.37c-4.34-1.57-8.84-2.77-13.15-3.61c-0.05-0.01-0.09-0.06-0.08-0.11
			c0.01-0.05,0.06-0.08,0.11-0.08c5.25,0.66,11.12,1.84,16.26,3.75c-1.52-2.42-4.63-5.01-6.94-6.68c-1.12-0.76,7.26,3.33,7.52,6.88
			c2.27,0.89,4.5,2.01,6.36,3.63c-0.76-2.35-1.08-5.62-1.07-8.25c0-1.04,0.25,3.66,2.61,9.65c2.96,2.76,9.05,6.88,15.57,11.57
			c-0.93-2.2-12.22-28.3-26.02-27.58c-14.41,0.76-19.72,1.82-29.43-1.82c0,0,4.44,5.7,14.22,19.19
			c9.34,12.88,38.49,10.62,41.1,10.39C548,371.24,542.47,368.2,538.44,364.74z"/>
		<path d="M556.01,293.98c-2.03-1.57-5.49-2.57-8-3.07c-0.02,0-0.03-0.02-0.03-0.04c0-0.02,0.02-0.03,0.04-0.03
			c2.19,0.16,6.1,0.8,7.82,2.21c-0.48-3.01,0.23-4.49-3.19-10.19c-2.76,0.46-6.21-2.28-8.17-4.25c-0.01-0.01-0.01-0.04,0-0.05
			c0.01-0.01,0.04-0.01,0.05,0c2.43,1.88,4.95,3.26,7.93,3.99c-1.87-3.06-4.01-5.96-6.22-8.56c-0.03-0.03-0.02-0.08,0.01-0.1
			c0.03-0.03,0.07-0.02,0.1,0c2.86,2.94,5.85,6.51,8.04,10.15c0.25-2.2-0.38-5.28-0.97-7.41c-0.31-1,2.79,5.53,1.22,7.82
			c0.95,1.64,1.75,3.4,2.1,5.28c0.68-1.8,2.07-3.93,3.35-5.52c0.5-0.63-1.62,2.34-3.1,7.11c0.46,3.11,2.15,8.56,3.83,14.56
			c0.51-1.79,6.31-23.08-2.4-29.33c-9.1-6.53-12.83-8.46-16.96-15.37c0,0-0.07,5.61-0.68,18.52c-0.58,12.33,18.18,25.1,19.87,26.22
			C558.65,302.56,556.78,298.04,556.01,293.98z"/>
		<path d="M583.92,269.92c-1.53-1.57-4.33-2.81-6.39-3.53c-0.02-0.01-0.03-0.02-0.02-0.04c0.01-0.02,0.02-0.02,0.04-0.02
			c1.83,0.4,5.06,1.4,6.33,2.79c-0.05-2.6,0.73-3.76-1.49-8.97c-2.38,0.06-4.97-2.66-6.39-4.55c-0.01-0.01-0.01-0.03,0.01-0.04
			c0.01-0.01,0.03-0.01,0.04,0c1.83,1.87,3.79,3.33,6.22,4.3c-1.22-2.8-2.68-5.5-4.24-7.96c-0.02-0.03-0.01-0.07,0.02-0.09
			c0.03-0.02,0.07-0.01,0.09,0.02c2.06,2.82,4.17,6.18,5.58,9.51c0.47-1.83,0.31-4.5,0.06-6.37c-0.14-0.88,1.7,5,0.11,6.74
			c0.61,1.49,1.08,3.07,1.15,4.7c0.78-1.44,2.21-3.07,3.48-4.26c0.5-0.47-1.65,1.78-3.45,5.63c0.02,2.67,0.81,7.47,1.51,12.73
			c0.64-1.45,8.05-18.73,1.43-25.03c-6.9-6.58-9.83-8.65-12.49-14.96c0,0-0.72,4.72-2.76,15.54c-1.95,10.33,12.38,23.32,13.67,24.46
			C585.14,277.47,584.09,273.43,583.92,269.92z"/>
		<path d="M732.99,502.78c-8.28-7.19-23.95,0.8-30.59-2.73c-4.78-2.29-6.83-6.77-17.52-13.8c-11.89-4.44-15.56,2.28-29.97,4.69
			c-8.3-1.62-11.83-10.34-19.62-14.98c-5.55-3.25-13.22-3.08-20.1-3.45c-3.29-2.82-4.17-6.66-3.55-10.56l-0.77-0.26
			c-1.4,3.34-1.58,6.98-0.15,10.45c-3.74-0.47-6.98-1.41-9.14-3.65c-5.37-5.31-6.07-16.97-11.01-25.39
			c-7.76-13.03-26.89-12.69-26.33-29.59c0.22-6.89,2.64-14.62,1.78-21.76c-0.81-7.3-6.44-13.97-10.1-19.93
			c-12.5-20.16,10.52-24.38,9.45-44.89c-0.56-10.03-4.9-19.89-0.13-26.98c5.68-8.55,18.57-12.01,24.05-23.43
			c-0.49-1.51-0.81-2.42-0.98-2.02c-5.38,13.07-18.85,13.36-25.88,23.55c-7.27,10.3,1.62,25.18-1.62,35.5
			c-0.37,1.18-0.88,2.35-1.46,3.51c-0.91-6.37-5.41-10.99-11.61-13.71l-0.25,0.51c6.71,3.47,10.88,9.08,10.03,16.43
			c-5.07,8.15-12.68,16.3-8.88,27.06c2.34,6.77,7.64,12.65,10.62,18.93c0.75,1.58,1.22,3.19,1.5,4.81
			c-2.54-1.57-5.72-2.26-9.12-2.17l-0.04,0.72c4.32,0.91,8.13,2.93,9.48,6.64c-0.38,10.99-6.21,22.48,2.88,32.19
			c6.73,7.13,17.58,10.81,21.49,17.68c0.11,0.19,0.21,0.39,0.31,0.58c-4.89-1.56-9.97-0.82-14.58,1.68l0.52,1.25
			c5.79-2.21,11.62-1.6,16.34,2.44c3.92,11.55,4.06,24.85,24.1,26.85c21.25,2.05,16.08-0.83,29.32,12.3
			c17.62,17.32,26.75-2.84,39.76,2.39c-13.71,2.39-18.81,20.06-9.33,27.31l0.84-0.93c-5.07-7.55-1.1-22.34,14.58-21.94l0.03-0.2
			c6.99,6.65,10.38,11.23,20.19,11.42c10.56,0.06,18.74-4.02,22.03,3c1.68,3.59,2.71,12.56,5.05,18.29c1.5-3.14,3.94-5.76,6.88-7.82
			C739.73,516,739.11,507.66,732.99,502.78z"/>
		<path d="M680.64,517.78c0,5.7-4.62,10.32-10.32,10.32c-5.7,0-10.32-4.62-10.32-10.32c0-5.7,4.62-10.32,10.32-10.32
			C676.02,507.46,680.64,512.08,680.64,517.78z"/>
		<path d="M620.85,455.63c0,5.3-4.29,9.59-9.59,9.59c-5.3,0-9.59-4.29-9.59-9.59c0-5.29,4.29-9.59,9.59-9.59
			C616.56,446.05,620.85,450.34,620.85,455.63z"/>
		<path d="M575.2,447.59c1.43,4.35-0.93,9.03-5.28,10.46c-4.35,1.43-9.03-0.93-10.46-5.28c-1.43-4.35,0.93-9.03,5.28-10.46
			C569.08,440.88,573.77,443.24,575.2,447.59z"/>
		<path d="M554.41,388.35c-0.43,3.81-3.87,6.56-7.68,6.14c-3.82-0.43-6.56-3.86-6.14-7.68c0.43-3.82,3.86-6.56,7.68-6.14
			C552.09,381.1,554.84,384.54,554.41,388.35z"/>
		<path d="M557.32,330.02c-1.92,3.33-6.17,4.46-9.5,2.55c-3.33-1.92-4.46-6.17-2.55-9.5c1.92-3.32,6.17-4.46,9.5-2.54
			C558.1,322.44,559.24,326.69,557.32,330.02z"/>
		<path d="M593.63,294.68c-1.6,2.78-5.16,3.73-7.94,2.13c-2.78-1.61-3.73-5.16-2.13-7.94c1.61-2.78,5.16-3.73,7.94-2.13
			C594.28,288.35,595.24,291.9,593.63,294.68z"/>
		<path d="M576.89,281.56c-1.61,2.78-5.16,3.73-7.94,2.13c-2.78-1.61-3.73-5.16-2.13-7.94c1.61-2.78,5.16-3.73,7.94-2.13
			C577.54,275.22,578.5,278.78,576.89,281.56z"/>
	</g>
	<path d="M725.09,504.54c0,6.68-3.84,12.1-8.58,12.1c-4.74,0-8.58-5.42-8.58-12.1c0-6.68,3.84-12.1,8.58-12.1
		C721.25,492.44,725.09,497.86,725.09,504.54z"/>
</g>
</svg>
