<?xml version="1.0" encoding="utf-8"?>
<!-- Generator: Adobe Illustrator 23.0.1, SVG Export Plug-In . SVG Version: 6.00 Build 0)  -->
<svg version="1.1" id="Layer_1" xmlns="http://www.w3.org/2000/svg" xmlns:xlink="http://www.w3.org/1999/xlink" x="0px" y="0px"
	 viewBox="0 0 1366 768" style="enable-background:new 0 0 1366 768;" xml:space="preserve">
<g>
	<g>
		<path d="M731.3,231.24c22.68,11.77,41.66,30.73,52.77,53.72c5.61,11.44,9.45,23.76,11.14,36.38c1.62,12.62,1.43,25.5-0.94,38
			c-2.37,12.48-6.64,24.62-12.85,35.69c-6.18,11.08-14.11,21.19-23.43,29.78c-9.36,8.55-20.01,15.66-31.52,20.96
			c-11.53,5.26-23.9,8.59-36.49,9.99l0.64,6.04c13.16-2.1,25.93-6.03,37.8-11.75c11.86-5.73,22.77-13.3,32.33-22.26
			c9.52-9.02,17.55-19.56,23.75-31.06c6.24-11.5,10.45-24.03,12.7-36.86c2.25-12.84,2.26-26.01,0.43-38.87
			c-1.9-12.86-5.99-25.35-11.85-36.89c-11.62-23.18-30.92-42.25-53.95-53.92L731.3,231.24z"/>
		<path d="M748.25,401.87c-3.66-6.62-12.23-12.84-19.85-12.84c-9.35,0-14.47,9.94-11.05,17.67c3.57,8.08,13.61,10.84,20.3,15.61
			c8.84,6.31,8.72,14.03,8.72,14.03S757.72,419.02,748.25,401.87z M720.49,405.32c-2.45-5.54,1.14-12.85,7.91-12.85
			c12.54,0,24.71,15.44,18.43,34.62C739.69,415.37,724.58,414.56,720.49,405.32z"/>
		<path d="M786.29,425.92c-7.87,0-14.91,6.16-21.89,9.02c-10.05,4.12-16.34-0.07-16.52-0.09c0,0,8.62,18.83,28.18,19.95
			c8.34,0.48,20.11-4.63,22.78-12.68C801.24,434.79,795.48,425.92,786.29,425.92z M755.47,440.17
			c13.36,0.16,21.04-10.82,30.82-10.82c3.66,0,6.55,1.78,8.27,4.58C802.16,446.25,774.16,462.67,755.47,440.17z"/>
		<path d="M775.1,371.98c-4.1-6.4-12.47-12.07-19.46-12.07c-9,0-12.8,9.96-8.81,17.46c4.15,7.79,13.78,10.26,20.49,14.76
			c8.87,5.95,9.55,13.47,9.55,13.47S785.66,388.47,775.1,371.98z M776.31,395.97c-3.91-5.35-8.64-7.85-14.09-10.64
			c-5.13-2.62-9.97-5.1-12.36-9.58c-2.8-5.27-0.49-12.42,5.78-12.42C766.88,363.34,779.65,377.48,776.31,395.97z"/>
		<path d="M821.66,386.13c-2.39-2.36-5.74-3.67-9.09-3.67c-10.24,0-15.63,11.63-21.81,17.78c-7.22,7.19-13.82,6.16-15.29,6.26
			c0,0,10.04,9.31,23.73,9.31C818.76,415.81,831.78,396.13,821.66,386.13z M784.55,408.5c13.45-5.41,17.16-22.61,28.02-22.61
			c2.48,0,4.98,1,6.67,2.68C829.13,398.34,809.2,421.45,784.55,408.5z"/>
		<path d="M785.75,334.79c-4.08-4.29-11.16-7.53-17.45-7.53c-11.98,0-15.49,12.35-9.87,19.43c5.24,6.59,15.16,6.71,22.47,9.5
			c9.66,3.68,11.7,11.3,11.7,11.3S798.61,348.31,785.75,334.79z M790.38,358.02c-9.5-8.88-23.35-6.03-29.26-13.46
			c-4-5.03-1.64-13.86,7.18-13.86C780.12,330.7,791.24,341.28,790.38,358.02z"/>
		<path d="M820.31,330.51c-13.59,0-14.27,17.54-17.15,25.08c-3.68,9.66-9.96,11.42-9.96,11.42c0.17,0,17.84,6.28,31.36-6.58
			C835.01,350.5,835.29,330.51,820.31,330.51z M801.33,365.07c9.87-10.56,5.8-31.12,18.97-31.12
			C835.98,333.95,830.02,366.55,801.33,365.07z"/>
		<path d="M767.83,288.44c-23.74,0-21.48,24.02-5.4,24.02c5.83,0,11.85-2.97,17.39-3.93c9.48-1.64,14.05,3.19,14.22,3.23
			C793.88,311.59,788.29,288.44,767.83,288.44z M758.64,308.37c-7.94-3.02-7.57-16.5,9.19-16.5c8.58,0,15.81,5.73,19.93,13.27
			C776.08,302.92,766.62,311.4,758.64,308.37z"/>
		<path d="M803.17,267.29c-5.21,0-9.65,3.64-10.94,8.3c-2.08,7.52,3.24,15.02,5.14,22.02c2.51,9.25-1.88,14.46-1.88,14.46
			s17.44-5.5,20.55-22.51C817.68,280.69,812.76,267.29,803.17,267.29z M801.49,305.21c0.23-2.41,0.09-5.25-0.79-8.49
			c-1.93-7.13-6.84-14.09-5.15-20.21c0.88-3.17,3.98-5.78,7.63-5.78C812.43,270.73,820.13,292.6,801.49,305.21z"/>
		<path d="M749.51,252.9c-16.07,0-27.3,15.75-19.24,24.54c2.55,2.79,6.59,4.08,10.25,3.34c7.44-1.5,11.61-9.41,16.85-14.14
			c6.82-6.15,13.08-4.7,13.38-4.72C770.75,261.92,761.93,252.9,749.51,252.9z M739.84,277.41c-2.47,0.5-5.29-0.38-7.04-2.29
			c-6.18-6.74,4.26-18.78,16.71-18.78c4.86,0,9.15,1.62,12.4,3.4C751.28,264.03,747.95,275.77,739.84,277.41z"/>
		<path d="M784.82,235.82c-0.52-8-7.07-18.26-15.09-18.26c-5.49,0-10.54,4.78-10.68,10.71c-0.18,7.58,6.61,13.4,10.06,19.56
			c4.56,8.13,1.64,14.09,1.64,14.09S785.9,252.61,784.82,235.82z M774.84,253.85c-1.79-11.31-12.56-17.23-12.36-25.49
			c0.1-4.05,3.62-7.36,7.25-7.36C777.54,221,788.64,238.33,774.84,253.85z"/>
		<path d="M726,230.89c-16.32,0-21.38,18.03-12.52,21.6c2.3,0.93,5.04,0.54,6.97-0.92c3.96-2.97,4.19-8.8,5.94-13.06
			c2.32-5.62,6.55-6.54,6.55-6.54S729.99,230.89,726,230.89z M718.39,248.83c-1.9,1.43-5.18,0.78-5.69-2.08
			c-0.93-5.24,3.85-11.79,11.99-12.38C721.3,239.64,721.73,246.32,718.39,248.83z"/>
		<path d="M706.29,213.1c-6.04,0-11.43,2.12-10.21,7.5c2.41,10.67,19.86,7.65,24.56,7.65c5.22,0,8.83,1.8,10.71,3.01
			c0.93,0.6,1.61,0.5,1.66,0.52c-0.03-0.03-0.48-0.26-1.06-1.51C729.65,225.29,722.51,213.1,706.29,213.1z M699.43,219.85
			c-0.63-2.76,4.03-3.31,6.86-3.31c7.53,0,14.18,3.61,18.59,8.68C717.06,223.86,701.29,228.1,699.43,219.85z"/>
		<path d="M740.71,214.26c-0.75-5.09-5.29-11.09-10.28-11.09c-3.78,0-7.11,3.49-6.88,7.54c0.28,4.94,5.01,8.36,7.57,12.19
			c3.39,5.05,1.81,9.08,1.81,9.08S742.31,225.12,740.71,214.26z M735.53,223.79c-2.58-5.94-12.55-12.71-6.93-16.56
			c0.62-0.42,1.22-0.63,1.83-0.63C734.46,206.61,740.59,214.8,735.53,223.79z"/>
	</g>
	<g>
		<path d="M628.38,231.24c-22.68,11.77-41.66,30.73-52.77,53.72c-5.61,11.44-9.45,23.76-11.14,36.38c-1.62,12.62-1.43,25.5,0.94,38
			c2.37,12.48,6.64,24.62,12.85,35.69c6.18,11.08,14.11,21.19,23.43,29.78c9.36,8.55,20.01,15.66,31.52,20.96
			c11.53,5.26,23.9,8.59,36.49,9.99l-0.64,6.04c-13.17-2.1-25.93-6.03-37.8-11.75c-11.86-5.73-22.77-13.3-32.33-22.26
			c-9.52-9.02-17.55-19.56-23.75-31.06c-6.24-11.5-10.45-24.03-12.7-36.86c-2.25-12.84-2.26-26.01-0.43-38.87
			c1.91-12.86,5.99-25.35,11.85-36.89c11.62-23.18,30.92-42.25,53.95-53.92L628.38,231.24z"/>
		<path d="M631.28,389.03c-7.62,0-16.19,6.22-19.85,12.84c-9.47,17.15,1.88,34.47,1.88,34.47s-0.11-7.72,8.72-14.03
			c6.69-4.77,16.73-7.53,20.3-15.61C645.75,398.97,640.63,389.03,631.28,389.03z M639.19,405.32c-4.08,9.25-19.2,10.05-26.34,21.77
			c-6.28-19.18,5.9-34.62,18.43-34.62C638.04,392.47,641.63,399.78,639.19,405.32z"/>
		<path d="M595.29,434.93c-6.98-2.86-14.02-9.02-21.89-9.02c-9.19,0-14.96,8.87-12.54,16.19c2.66,8.05,14.43,13.16,22.78,12.68
			c19.55-1.12,28.18-19.95,28.18-19.95C611.63,434.86,605.34,439.06,595.29,434.93z M565.12,433.93c1.72-2.79,4.62-4.58,8.27-4.58
			c9.78,0,17.46,10.98,30.82,10.82C585.52,462.67,557.52,446.25,565.12,433.93z"/>
		<path d="M604.04,359.9c-6.98,0-15.36,5.68-19.45,12.07c-10.57,16.49-1.78,33.62-1.78,33.62s0.68-7.52,9.55-13.47
			c6.71-4.5,16.34-6.97,20.49-14.76C616.84,369.86,613.04,359.9,604.04,359.9z M609.82,375.75c-2.39,4.48-7.23,6.96-12.36,9.58
			c-5.46,2.79-10.18,5.28-14.09,10.64c-3.34-18.49,9.44-32.64,20.67-32.64C610.31,363.34,612.62,370.48,609.82,375.75z"/>
		<path d="M568.92,400.24c-6.18-6.15-11.58-17.78-21.81-17.78c-3.35,0-6.7,1.31-9.09,3.67c-10.12,10,2.89,29.68,22.45,29.68
			c13.69,0,23.73-9.31,23.73-9.31C582.74,406.4,576.15,407.43,568.92,400.24z M540.44,388.57c1.7-1.68,4.19-2.68,6.67-2.68
			c10.86,0,14.57,17.2,28.02,22.61C550.48,421.45,530.55,398.34,540.44,388.57z"/>
		<path d="M591.37,327.26c-6.29,0-13.36,3.24-17.45,7.53c-12.86,13.52-6.97,33.25-6.97,33.25s2.15-8.17,11.81-11.86
			c7.31-2.79,17.23-2.91,22.47-9.5C606.86,339.61,603.35,327.26,591.37,327.26z M598.55,344.55c-5.91,7.43-19.75,4.58-29.26,13.46
			c-0.85-16.74,10.27-27.32,22.08-27.32C600.19,330.7,602.55,339.52,598.55,344.55z"/>
		<path d="M556.52,355.6c-2.88-7.54-3.56-25.08-17.15-25.08c-14.99,0-14.7,19.98-4.25,29.92c13.52,12.86,31.39,6.58,31.57,6.58
			C566.69,367.02,560.21,365.26,556.52,355.6z M539.37,333.95c13.17,0,9.11,20.56,18.97,31.12
			C529.66,366.55,523.7,333.95,539.37,333.95z"/>
		<path d="M591.85,288.44c-20.46,0-26.05,23.16-26.22,23.32c0.17-0.05,4.75-4.87,14.22-3.23c5.54,0.96,11.57,3.93,17.39,3.93
			C613.33,312.45,615.59,288.44,591.85,288.44z M601.04,308.37c-7.98,3.04-17.44-5.44-29.12-3.23c4.13-7.53,11.35-13.27,19.93-13.27
			C608.61,291.87,608.98,305.34,601.04,308.37z"/>
		<path d="M562.3,297.61c1.9-7,7.22-14.5,5.14-22.02c-1.29-4.67-5.73-8.3-10.94-8.3c-9.59,0-14.51,13.4-12.88,22.27
			c3.12,17.01,20.56,22.51,20.56,22.51S559.79,306.87,562.3,297.61z M558.19,305.21c-18.64-12.61-10.94-34.48-1.69-34.48
			c3.64,0,6.75,2.61,7.63,5.78c1.69,6.11-3.21,13.08-5.15,20.21C558.11,299.95,557.96,302.8,558.19,305.21z"/>
		<path d="M610.17,252.9c-12.42,0-21.23,9.02-21.23,9.02c0.3,0.02,6.56-1.43,13.38,4.72c5.24,4.73,9.41,12.64,16.85,14.14
			c3.66,0.74,7.7-0.55,10.25-3.34C637.46,268.65,626.24,252.9,610.17,252.9z M626.88,275.12c-1.75,1.91-4.57,2.79-7.04,2.29
			c-8.1-1.63-11.43-13.38-22.07-17.68c3.25-1.78,7.54-3.4,12.4-3.4C622.62,256.33,633.06,268.37,626.88,275.12z"/>
		<path d="M600.64,228.27c-0.14-5.93-5.2-10.71-10.68-10.71c-8.02,0-14.57,10.26-15.09,18.26c-1.08,16.79,14.07,26.1,14.07,26.1
			s-2.91-5.96,1.64-14.09C594.03,241.67,600.82,235.85,600.64,228.27z M584.84,253.85c-13.8-15.52-2.71-32.85,5.11-32.85
			c3.64,0,7.15,3.31,7.25,7.36C597.4,236.62,586.63,242.54,584.84,253.85z"/>
		<path d="M633.68,230.89c-3.99,0-6.94,1.08-6.94,1.08s4.23,0.92,6.55,6.54c1.76,4.26,1.99,10.09,5.94,13.06
			c1.94,1.46,4.68,1.84,6.97,0.92C655.06,248.92,650,230.89,633.68,230.89z M646.98,246.75c-0.51,2.86-3.79,3.51-5.69,2.08
			c-3.35-2.52-2.91-9.19-6.3-14.46C643.13,234.96,647.91,241.51,646.98,246.75z"/>
		<path d="M652.65,213.54c-16.08,0-23.24,12-25.6,17.05c-0.62,1.32-1.3,1.6-1.34,1.63c0.07-0.02,1.23-0.17,2.66-0.99
			c2.02-1.16,5.36-2.54,9.94-2.54c4.7,0,22.15,3.01,24.56-7.65C664.08,215.66,658.69,213.54,652.65,213.54z M659.51,220.29
			c-1.86,8.25-17.64,4.01-25.46,5.37c4.41-5.07,11.07-8.68,18.59-8.68C655.48,216.98,660.14,217.52,659.51,220.29z"/>
		<path d="M629.25,203.17c-4.99,0-9.53,6-10.28,11.09c-1.59,10.86,7.77,17.71,7.77,17.71s-1.58-4.03,1.81-9.08
			c2.57-3.82,7.29-7.24,7.57-12.19C636.36,206.66,633.02,203.17,629.25,203.17z M624.16,223.79c-5.06-8.99,1.06-17.19,5.09-17.19
			c0.61,0,1.21,0.21,1.84,0.63C636.7,211.08,626.73,217.85,624.16,223.79z"/>
	</g>
</g>
</svg>
