<?xml version="1.0" encoding="utf-8"?>
<!-- Generator: Adobe Illustrator 23.0.1, SVG Export Plug-In . SVG Version: 6.00 Build 0)  -->
<svg version="1.1" id="Layer_1" xmlns="http://www.w3.org/2000/svg" xmlns:xlink="http://www.w3.org/1999/xlink" x="0px" y="0px"
	 viewBox="0 0 1366 768" style="enable-background:new 0 0 1366 768;" xml:space="preserve">
<g>
	<g>
		<path d="M792.93,254.44c-3.11-3.34-7.79-5.37-12.99-5.18c-5.21,0.19-9.83,2.57-12.85,6.15c3.11,3.34,7.79,5.37,12.99,5.18
			C785.28,260.39,789.9,258.01,792.93,254.44z"/>
		<path d="M841.58,359.65c-10.51,1.32-19.64,5.81-26.07,12.06c0.8-2.17,1.56-4.35,2.24-6.59c1.78-5.83,3.1-11.71,3.99-17.61
			c9.61,2.72,21.14,1.73,31.87-3.58c11.23-5.56,19.19-14.66,22.56-24.42c-9.87-3.2-21.97-2.37-33.2,3.19
			c-9.43,4.67-16.54,11.84-20.58,19.8c0.85-7.8,0.92-15.6,0.28-23.3c9.79-1.35,19.85-6.75,27.55-15.72
			c8.16-9.51,11.92-21,11.21-31.3c-10.34,0.91-21.15,6.41-29.31,15.92c-5.67,6.61-9.22,14.18-10.61,21.65
			c-1.05-6.42-2.59-12.74-4.65-18.89c9.23-4.52,17.29-13.38,21.56-25.01c4.31-11.76,3.82-23.84-0.46-33.24
			c-9.36,4.47-17.57,13.41-21.88,25.17c-3.18,8.67-3.74,17.51-2.11,25.32c-3.35-8.15-7.59-15.96-12.68-23.28
			c5.56-2.48,10.19-7.42,12.32-14.03c2.18-6.75,1.29-13.77-1.87-19.3c-5.72,2.42-10.5,7.46-12.68,14.2
			c-1.89,5.87-1.46,11.93,0.75,17.05c-4.61-6.34-9.87-12.29-15.75-17.74c4.63-3.79,7.77-9.63,8.19-16.42
			c0.43-7.08-2.17-13.66-6.6-18.23c-4.94,3.77-8.32,9.83-8.75,16.91c-0.13,2.21,0.06,4.35,0.47,6.42c-1.03-1.65-2.29-3.21-3.83-4.6
			c-4.64-4.17-10.6-5.98-16.18-5.43c-0.11,5.47,2.22,11.11,6.86,15.29c0.64,0.57,1.3,1.09,1.98,1.57c-3.73,0.67-7,2.58-9.27,5.26
			c2.8,3.01,7.01,4.83,11.69,4.66c4.34-0.16,8.22-2.03,10.93-4.86c9.81,8.68,17.94,18.72,24.26,29.68
			c-2.47-2.93-6.01-5.11-10.24-5.94c-5.33-1.05-10.6,0.27-14.52,3.17c2.36,4.14,6.63,7.32,11.96,8.36c5.22,1.02,10.36-0.22,14.26-3
			c2.77,5.1,5.16,10.38,7.14,15.8c-1.96-2.1-4.45-3.84-7.41-4.95c-5.47-2.07-11.29-1.62-15.97,0.75c1.76,4.81,5.71,8.95,11.18,11.02
			c4.9,1.85,10.06,1.67,14.46-0.08c1.68,5.59,2.93,11.31,3.77,17.1c-1.47-2.14-3.41-4.06-5.81-5.56
			c-4.95-3.11-10.75-3.82-15.81-2.41c0.78,5.06,3.84,9.9,8.79,13.01c4.28,2.68,9.17,3.57,13.69,2.86c0.53,6.96,0.44,14-0.28,21.04
			c-1.05-4.46-3.58-8.72-7.54-12c-5.2-4.3-11.72-6-17.73-5.16c0.12,5.92,2.89,11.92,8.09,16.22c4.89,4.05,10.96,5.76,16.66,5.25
			c-0.86,6.16-2.19,12.31-4.05,18.4c-0.39,1.28-0.81,2.55-1.24,3.82c-1.02-4.18-3.34-8.19-6.95-11.37
			c-5.06-4.47-11.52-6.37-17.55-5.72c-0.07,5.92,2.51,12,7.57,16.47c4.35,3.85,9.74,5.78,15.01,5.83
			c-3.03,7.68-6.78,14.9-11.17,21.59c0.67-6.04-0.88-12.76-4.83-18.73c-4.42-6.68-10.89-10.99-17.44-12.31
			c-1.34,6.55,0.09,14.18,4.51,20.86c4.21,6.36,10.27,10.53,16.49,12.07c-4.61,6.74-9.86,12.93-15.65,18.5
			c1.89-6.57,1.29-14.38-2.3-21.67c-3.8-7.71-10.1-13.16-16.89-15.46c-2.31,6.79-1.82,15.11,1.98,22.81
			c3.68,7.47,9.72,12.79,16.27,15.21c-6.18,5.82-12.96,10.93-20.2,15.28c2.73-6.4,3.01-14.4,0.14-22.18
			c-2.97-8.07-8.66-14.15-15.17-17.15c-3.01,6.51-3.4,14.83-0.43,22.9c2.9,7.87,8.39,13.83,14.7,16.9
			c-6.64,3.92-13.66,7.19-20.96,9.75c2.72-6.4,3-14.4,0.14-22.17c-2.97-8.06-8.66-14.15-15.17-17.15c-3.01,6.51-3.4,14.83-0.43,22.9
			c2.86,7.77,8.26,13.68,14.48,16.78c-18.76,6.41-38.46,7.18-60.84,4.68c-6.18-0.76-13.37-2.69-19.18-4.68
			c6.22-3.11,11.62-9.01,14.48-16.78c2.97-8.07,2.58-16.39-0.43-22.9c-6.51,3-12.2,9.09-15.17,17.15
			c-2.86,7.78-2.58,15.78,0.14,22.17c-7.3-2.57-14.32-5.83-20.96-9.75c6.31-3.07,11.8-9.03,14.7-16.9
			c2.97-8.06,2.58-16.39-0.43-22.9c-6.51,3-12.2,9.09-15.17,17.15c-2.87,7.78-2.58,15.79,0.14,22.18
			c-7.24-4.35-14.01-9.46-20.2-15.28c6.55-2.42,12.58-7.74,16.27-15.21c3.8-7.71,4.29-16.03,1.98-22.81
			c-6.79,2.3-13.09,7.75-16.89,15.46c-3.59,7.28-4.2,15.1-2.3,21.67c-5.79-5.57-11.04-11.76-15.65-18.5
			c6.22-1.54,12.29-5.71,16.49-12.07c4.42-6.68,5.85-14.32,4.51-20.86c-6.55,1.33-13.02,5.63-17.44,12.31
			c-3.95,5.97-5.5,12.69-4.83,18.73c-4.39-6.69-8.14-13.91-11.17-21.59c5.26-0.06,10.65-1.99,15.01-5.83
			c5.06-4.47,7.63-10.56,7.57-16.47c-6.03-0.65-12.5,1.25-17.55,5.72c-3.6,3.18-5.92,7.19-6.95,11.37
			c-0.43-1.26-0.85-2.53-1.24-3.82c-1.86-6.09-3.19-12.24-4.05-18.4c5.7,0.51,11.77-1.2,16.66-5.25c5.2-4.31,7.97-10.31,8.09-16.22
			c-6.01-0.84-12.53,0.85-17.73,5.16c-3.96,3.28-6.5,7.54-7.54,12c-0.72-7.04-0.81-14.08-0.28-21.04c4.52,0.71,9.41-0.18,13.69-2.86
			c4.95-3.1,8.01-7.94,8.79-13.01c-5.06-1.41-10.86-0.69-15.81,2.41c-2.4,1.5-4.34,3.41-5.8,5.56c0.84-5.79,2.09-11.51,3.77-17.1
			c4.39,1.76,9.56,1.93,14.46,0.08c5.47-2.07,9.42-6.21,11.18-11.02c-4.69-2.38-10.5-2.82-15.97-0.75
			c-2.95,1.12-5.45,2.85-7.41,4.95c1.99-5.42,4.37-10.71,7.14-15.8c3.9,2.77,9.04,4.02,14.26,3c5.33-1.05,9.6-4.23,11.96-8.36
			c-3.93-2.9-9.19-4.22-14.53-3.17c-4.23,0.83-7.77,3.01-10.24,5.94c6.32-10.96,14.45-21.01,24.26-29.68
			c2.71,2.83,6.59,4.7,10.93,4.86c4.68,0.18,8.89-1.65,11.69-4.66c-2.27-2.68-5.54-4.59-9.27-5.26c0.68-0.48,1.34-1,1.98-1.57
			c4.64-4.17,6.97-9.82,6.86-15.29c-5.58-0.55-11.54,1.26-16.18,5.43c-1.54,1.39-2.81,2.95-3.83,4.6c0.42-2.06,0.61-4.21,0.47-6.42
			c-0.43-7.08-3.81-13.14-8.75-16.91c-4.43,4.58-7.03,11.16-6.6,18.23c0.42,6.8,3.56,12.64,8.19,16.42
			c-5.88,5.46-11.14,11.4-15.75,17.74c2.21-5.12,2.64-11.19,0.75-17.05c-2.18-6.75-6.95-11.78-12.68-14.2
			c-3.16,5.53-4.04,12.55-1.87,19.3c2.13,6.61,6.76,11.55,12.32,14.03c-5.09,7.32-9.33,15.13-12.68,23.28
			c1.63-7.81,1.07-16.65-2.11-25.32c-4.31-11.77-12.52-20.7-21.88-25.17c-4.28,9.4-4.77,21.48-0.46,33.24
			c4.26,11.63,12.33,20.49,21.56,25.01c-2.05,6.16-3.6,12.48-4.65,18.89c-1.39-7.46-4.94-15.03-10.61-21.65
			c-8.16-9.51-18.97-15.01-29.31-15.92c-0.72,10.3,3.05,21.79,11.21,31.3c7.7,8.97,17.75,14.37,27.55,15.72
			c-0.64,7.7-0.57,15.5,0.28,23.3c-4.04-7.96-11.15-15.13-20.58-19.8c-11.23-5.56-23.33-6.4-33.2-3.19
			c3.37,9.76,11.33,18.86,22.56,24.42c10.73,5.32,22.26,6.3,31.87,3.58c0.89,5.9,2.21,11.78,3.99,17.61
			c0.68,2.23,1.44,4.42,2.24,6.59c-6.43-6.25-15.56-10.74-26.07-12.06c-12.43-1.56-24.14,1.63-32.4,7.9
			c6.39,8.11,16.9,14.09,29.33,15.65c11.72,1.47,22.79-1.28,30.95-6.86c3.66,8.86,8.26,17.11,13.68,24.64
			c-7.38-3.33-16.29-4.67-25.59-3.33c-12.4,1.79-22.84,7.97-29.15,16.21c8.31,6.12,20.03,9.1,32.43,7.31
			c11.2-1.62,20.79-6.83,27.19-13.89c4.06,4.92,8.47,9.49,13.2,13.68c-9.56-1.13-20.34,1.39-29.91,7.81
			c-10.41,6.98-17.14,17.07-19.27,27.23c10.14,1.93,22-0.46,32.4-7.44c9.9-6.64,16.46-16.09,18.91-25.73
			c7.16,6.06,14.99,11.27,23.32,15.53c-8.77,0.61-18,4.24-25.92,10.89c-9.6,8.06-15.21,18.81-16.24,29.13
			c10.29,0.83,21.82-2.81,31.42-10.87c8.84-7.42,14.29-17.13,15.9-26.68c31.72,14.35,71.82,14.54,103.94,0
			c1.61,9.55,7.06,19.26,15.9,26.68c9.6,8.06,21.13,11.7,31.42,10.87c-1.02-10.32-6.64-21.08-16.24-29.13
			c-7.92-6.65-17.15-10.28-25.92-10.89c8.33-4.25,16.16-9.47,23.32-15.53c2.45,9.64,9.02,19.09,18.91,25.73
			c10.41,6.98,22.26,9.37,32.4,7.44c-2.12-10.16-8.86-20.25-19.27-27.23c-9.56-6.42-20.35-8.94-29.91-7.81
			c4.73-4.19,9.14-8.76,13.2-13.68c6.4,7.06,15.99,12.27,27.19,13.89c12.4,1.79,24.12-1.19,32.43-7.31
			c-6.31-8.24-16.75-14.42-29.15-16.21c-9.3-1.34-18.21-0.01-25.59,3.33c5.42-7.53,10.02-15.79,13.68-24.64
			c8.16,5.57,19.23,8.33,30.95,6.86c12.43-1.56,22.94-7.54,29.33-15.65C865.72,361.28,854.02,358.09,841.58,359.65z"/>
		<path d="M605.78,254.44c3.03,3.57,7.65,5.95,12.85,6.15c5.21,0.2,9.88-1.83,13-5.18c-3.03-3.57-7.65-5.95-12.86-6.15
			C613.57,249.07,608.89,251.1,605.78,254.44z"/>
	</g>
	<path d="M693.42,460.57L693.42,460.57c-3.26,0-5.93-2.67-5.93-5.93v-7.03c0-3.26,2.67-5.93,5.93-5.93l0,0
		c3.26,0,5.93,2.67,5.93,5.93v7.03C699.35,457.9,696.68,460.57,693.42,460.57z"/>
	<path d="M705.98,460.57L705.98,460.57c-3.26,0-5.93-2.67-5.93-5.93v-7.03c0-3.26,2.67-5.93,5.93-5.93l0,0
		c3.26,0,5.93,2.67,5.93,5.93v7.03C711.91,457.9,709.24,460.57,705.98,460.57z"/>
	<path d="M699.35,460.57L699.35,460.57c-3.26,0-5.93-2.67-5.93-5.93v-7.03c0-3.26,2.67-5.93,5.93-5.93l0,0
		c3.26,0,5.93,2.67,5.93,5.93v7.03C705.28,457.9,702.61,460.57,699.35,460.57z"/>
	<path d="M699.28,453.05c-6.49-0.09-19.67,1.03-18.77,7.48c0.66,3.73,5.78,6.14,9.59,8.31c22.78,13.36-1.87,35.8-19.78,25.24
		l3.64-5.52c6.69,4.4,18.04,0.96,19.89-4.97c3.47-10.77-15.79-12.62-16.58-22.78c-0.93-9.05,13.07-10.14,22.15-9.46L699.28,453.05z"
		/>
	<path d="M706.06,452.49c5.2,0.58,16.97,2.55,17.36,7.78c0.48,8.05-13.47,10.55-8.61,18.43c2.56,4.18,9.06,3.77,9.95,1.09l3.3,1.18
		c-1.35,3.39-4.97,4.52-8.61,4.05c-7.84-0.98-11.78-10.34-4.88-16.54c5.61-5.13,14.7-10.63-8.67-14.29L706.06,452.49z"/>
</g>
</svg>
