<?xml version="1.0" encoding="utf-8"?>
<!-- Generator: Adobe Illustrator 23.0.1, SVG Export Plug-In . SVG Version: 6.00 Build 0)  -->
<svg version="1.1" id="Layer_1" xmlns="http://www.w3.org/2000/svg" xmlns:xlink="http://www.w3.org/1999/xlink" x="0px" y="0px"
	 viewBox="0 0 1366 768" style="enable-background:new 0 0 1366 768;" xml:space="preserve">
<g>
	<path d="M924.94,343.75c-4.03-6.36-12.31-4.26-19.1-3.06c-0.45-1-0.73-1.43-0.93-1.79c-0.16,0.05-12.34,0.07-13.55,10.53
		c-5.79,1.68-10.22,0.19-10.75,0.19c-5.23-5.7-9.3-9.55-14.34-13.87c3.72-1.41,3.57-1.33,4.57-1.77
		c10.82,4.85,29.01,10.76,30.25-1.03c0.15-1.44-0.13-2.8-0.57-3.98c6.93-1.01,9.39-7.93,7.2-12.23c16.8-7.16,9.6-16.93,4.08-18.49
		c-4.43-1.24-8.52,1.92-11.29,5c-2.61-3.85-11.45-5.9-14.59,1.3c-9.86-3.89-13.27,16.9-15.71,27.01c-1.23,0.5-7.19,2.49-7.61,2.64
		c-3.14-6.77-6.84-13.29-11.01-19.62c15.75,8.72,22.66-12.87,5.08-17.34c0.09-2.46-4.87-3.91-7.1-4.25c2.02-0.75,3.35-2.37,3.71-4.4
		c4.81,1.63,12.54,0.65,13.54-4.3c2.54,0.6,5.58,0.44,8.48-1.68c3.15-2.31,3.63-5.44,1.63-8.32c8.19-2.86,7.46-14.82-3.97-12.46
		c-0.14-0.79-0.34-1.5-0.6-2.13c-1.97-4.74-6.72-4.23-11.04-1.36c-3.72-4.48-10.29-1.53-15.41,3.31c-6.3-7.6-17.09,6.7-23.19,14.57
		c-2.02,0.06-4.62,0.08-7.18-0.13l0.09-0.13c-9.89-7.07-20.52-12.73-31.67-16.98c2.54-0.49,2.67-0.52,3.28-0.67
		c4.92,3.31,16.33,10.13,21.65,7.49c2.84-1.41,4.27-4.02,3.63-7.41c5.88,0.15,8.91-5.23,7.7-9.09c14.92-3.53,10.36-12.65,6.01-14.72
		c-3.48-1.66-7.32,0.37-10.06,2.53c-1.61-3.55-8.64-6.5-12.26-1c-7.59-4.62-13.35,11.98-16.85,20.12c-3.54,0.77-6.01,0.85-7.39,1.2
		c-7.25-2.49-14.7-4.39-22.31-5.67c10.25-0.68,16.18-11.31,6.75-16.91c-4.23-2.52-10.4-0.86-12.62-0.13
		c-0.65-1.13-0.91-1.33-1.18-1.7c-1.13,0.35-14.16,1.45-13.31,10.9c-5.71,0.58-11.3,1.61-16.87,2.88c1.88-2.88,2.78-5.82,3.14-7.26
		c9.93,3.18,14.92-11.56,15-11.69c-0.69-0.38-0.86-0.48-1.44-0.78c6.9-10.34,2.84-21.76-5.37-21.14
		c-7.51,0.57-9.54,8.87-11.67,15.43c-1.09-0.07-1.61-0.02-2.01-0.02c-0.03,0.17-5.73,10.93,2.93,16.91
		c-1.24,5.91-4.63,9.12-4.88,9.58c-7.49,1.94-12.8,3.73-18.98,6.15c0.5-3.95,0.5-3.78,0.58-4.86c9.36-7.28,23.12-20.57,13.29-27.2
		c-1.2-0.81-2.54-1.2-3.78-1.37c0.91-2.53,1.08-5.67-1.07-8.53c-1.95-2.61-4.28-3.53-6.35-3.57c1.57-18.19-10.45-16.42-14.41-12.27
		c-3.18,3.32-2.3,8.42-0.89,12.32c-4.62,0.5-10.58,7.34-5.7,13.5c-8.06,6.88,8.69,19.65,16.48,26.55c-0.13,1.31-0.16,1.25-1.07,6.91
		c-6.68,1.96-13.18,4.44-19.5,7.39c4.17-3.89,3.08-8.86-0.94-11.13c3.91-4.4,1.74-10.18-1.99-11.75c6.92-13.68-3-16.07-7.38-14.08
		c-3.52,1.59-4.43,5.84-4.55,9.32c-3.75-1.06-10.54,2.42-8.67,8.73c-8.43,2.83,0.56,17.92,4.52,25.85
		c-1.72,3.27-3.29,5.24-3.89,6.51c-1.14,0.82-2.28,1.65-3.4,2.51c-4.96-1.67-11.87,2.01-14.1,9.6c-2.46-0.18-4.09,4.72-4.51,6.93
		c-0.67-2.05-2.25-3.44-4.26-3.87c1.81-4.75,1.11-12.51-3.8-13.69c1.86-6.72-3.54-14.35-9.63-10.47c-2.56-8.29-14.53-8-12.6,3.5
		c-6.5,0.88-7.29,5.98-3.91,11.5c-4.61,3.55-1.91,10.23,2.74,15.52c-7.7,5.92,5.62,16.96,13.32,23.39
		c-9.92,17.79-16.1,37.56-17.92,57.35c-1.49-0.61-2.98-1.23-4.46-1.88c-2.95-2.7-5.42-8.53-6.84-12.28
		c4.92-8.65,13.99-24.11,4.55-27.01c2.51-6.58,2.71-13.78-2.85-15.5c1.24-6.36-1.3-10.86-7.68-9.41
		c-2.21-11.46-13.53-7.54-13.03,1.12c-7.05-1.51-9.46,7.51-5.37,13.17c-4.18,2.83-2.12,10.34,1.23,14.16
		c-1.73,1.11-2.72,2.97-2.64,5.12c-1.2-1.98-4.4-5.95-6.65-4.92c-7.24-9.67-21.6-7.06-18.9,4.62c1.11,4.8,6.56,8.11,8.63,9.21
		c-0.37,1.26-0.34,1.58-0.42,2.03l0.42,0.36c5.08,4.39,12.26,6.76,16.66,1.73c4.36,3.73,8.97,7.05,13.73,10.21
		c-3.38,0.63-6.13,2.01-7.42,2.74c-4.56-9.37-18.66-2.8-18.81-2.77c0.2,0.76,0.25,0.95,0.43,1.58
		c-12.24,2.15-17.69,12.98-11.57,18.49c5.6,5.03,13,0.77,19.22-2.23c0.7,0.84,1.09,1.18,1.38,1.47c0.15-0.09,11.86-3.41,10.2-13.8
		c5.12-3.19,9.79-2.95,10.3-3.09c6.57,4.07,11.54,6.68,17.56,9.47c-3.2,2.37-3.08,2.25-3.92,2.94c-11.73-1.74-30.84-2.5-28.84,9.18
		c0.24,1.43,0.88,2.66,1.63,3.68c-2.45,1.09-4.84,3.14-5.43,6.66c-0.54,3.21,0.41,5.54,1.81,7.05c-14.23,11.44-4.65,18.9,1.08,18.9
		c4.6,0,7.68-4.15,9.52-7.87c3.56,3,12.62,2.58,13.7-5.2c10.54,1.08,8.2-19.86,7.81-30.26c0.95-0.74,1.02-0.75,4.66-3.26
		c-1.08,18.38,1.57,37.11,7.89,54.89c-2.19-0.43-4.68-0.67-6.26-0.27c-0.92-9.02-14.41-7.98-14.54-8c-0.07,0.68-0.09,0.86-0.13,1.43
		c-10.75-2.03-18.49,5.19-15.19,11.56c3.03,5.86,10.42,4.65,16.42,4.11c0.31,0.9,0.53,1.3,0.67,1.63
		c0.15-0.03,10.78,0.86,12.62-8.16c0.36-0.06,3.3-1.23,7.04-0.54c0.17,0.46,0.33,0.93,0.5,1.39c-2.87,3.82-0.27,7.64,4.14,10.08
		c-2.26,5.36,3.38,9.84,10.03,12.15c-0.78,1.85-0.66,3.45,0.09,4.83l-0.02,0c3.31,4.73,7.64,10.06,11.32,14.15
		c-4.03-0.65-4.1-0.66-4.89-0.75c-3.91-5.38-13.29-16.95-19.9-16.22c-3.53,0.39-6.05,2.59-6.68,6.4
		c-6.13-2.43-11.39,2.07-11.61,6.61c-17.07-2.03-15.77,9.32-11.99,13.18c3.03,3.09,7.85,2.43,11.56,1.21
		c0.33,4.35,6.59,10.17,12.52,5.78c6.21,7.79,18.66-7.47,25.49-14.68c4.1,0.56,6.77,1.46,8.34,1.6c3.64,3.83,7.5,7.49,11.53,10.96
		c-5.48,2.78-5.45,2.75-6.18,3.16c-5.64-1.84-18.47-5.29-22.87-1.29c-2.34,2.13-3.01,5.04-1.47,8.12c-5.7,1.46-7.14,7.46-4.92,10.85
		c-13.39,7.47-6.51,14.99-1.76,15.8c3.81,0.65,6.94-2.36,8.99-5.18c2.52,2.97,10.09,3.89,12.07-2.38
		c8.57,2.37,9.57-15.17,10.72-23.95c2.88-1.55,5.08-2.31,6.39-2.96c0.43,0.06,0.68-0.05,1.32-0.23c0.13,0.11,0.26,0.22,0.39,0.33
		c-0.13,2.23,0.43,7.43,1.86,9.71c-8.29,3.66-3.13,16.18-3.11,16.31c0.67-0.15,0.84-0.18,1.4-0.32
		c1.39,10.85,10.65,15.98,15.69,10.87c4.63-4.69,1.2-11.35-1.16-16.89c0.76-0.58,1.08-0.91,1.34-1.14
		c-0.07-0.13-2.51-10.52-11.66-9.47c-0.24-0.54-2.46-2.81-2.82-7.79c18.17,14.57,39.61,25.15,61.83,29.36
		c-3.23,1.62-3.28,1.64-3.86,1.96c-5.06-1.67-16.57-4.82-20.54-1.25c-2.11,1.9-2.73,4.51-1.35,7.29c-5.13,1.29-6.44,6.67-4.46,9.73
		c-12.05,6.66-5.9,13.44-1.64,14.18c3.42,0.6,6.24-2.09,8.09-4.62c2.25,2.68,9.05,3.53,10.85-2.09c7.69,2.17,8.65-13.58,9.72-21.47
		c3.13-1.66,5.39-2.31,6.39-3c3.01,3.7,7.31,4.56,12.62,4.04c-1.55,2.03-3.48,5.22-3.78,7.35c-8.7-2.55-12.83,10.34-12.89,10.45
		c0.61,0.32,0.76,0.4,1.27,0.66c-5.93,9.19-2.16,19.08,4.98,18.43c6.57-0.6,8.23-7.9,10-13.66c0.95,0.05,1.41,0,1.76-0.01
		c0.03-0.15,4.86-9.66-2.8-14.76c0.19-0.62-0.16-3.61,3.11-8.11c0.32,0.76,0.5,1.01,0.67,1.35c1.18-0.16,14.21,0.88,14.91-8.58
		c5.73,0.37,11.41,0.26,17.11-0.08c-2.33,2.53-3.7,5.29-4.29,6.65c-9.27-4.76-16.61,8.96-16.71,9.08c0.62,0.49,0.77,0.61,1.29,1
		c-8.5,9.07-6.36,21.01,1.84,21.74c7.5,0.66,10.86-7.19,14.03-13.32c1.06,0.25,1.58,0.29,1.98,0.35c0.06-0.16,7.44-9.85-0.13-17.16
		c1.09-2.81,2.6-4.87,3.88-6.28l0.01,0.05c5.62-1.08,11.17-2.52,16.62-4.29c1.83-0.33,3.67-0.69,5.59-1.1
		c-1.14,3.82-1.11,3.65-1.37,4.7c-10.42,5.65-26.17,16.51-17.55,24.66c1.05,0.99,2.31,1.6,3.51,1.97c-1.31,2.35-1.99,5.41-0.34,8.59
		c1.5,2.89,3.65,4.18,5.68,4.55c-4.52,17.69,7.62,17.91,12.21,14.46c3.68-2.76,3.65-7.93,2.89-12.01
		c4.64,0.26,11.64-5.51,7.83-12.38c9.08-5.47-5.36-20.81-11.92-28.89c0.35-1.28,2.44-7.38,2.61-7.9
		c11.04-4.46,21.54-10.33,31.19-17.45c-0.42,1.92-0.65,3.96-0.38,5.33c-9.05,0.46-8.71,13.99-8.73,14.12
		c0.68,0.1,0.85,0.13,1.42,0.21c-2.58,10.63,4.24,18.73,10.77,15.76c6-2.73,5.17-10.17,4.95-16.19c0.91-0.27,1.33-0.46,1.66-0.59
		c-0.02-0.15,1.41-10.72-7.51-13.02c-0.04-0.37-1.07-3.39-0.17-7.12c0.53-0.4,1.04-0.81,1.57-1.22c2.99,6.45,13.95,6.26,21.23-2.69
		c0.46,0.46,0.6,0.6,1.17,1.15c0.1-0.11,12.71-9.23,6.74-17.78c1.26-0.77,3.81-2.5,6.01-5.14c0.43,5.7,1.09,11.34,2.22,16.97
		c-9.57,2.04-6.49,15.72-6.49,15.94c0.43,0.15,0.7,0.33,1.97,0.62c-0.43,23.04,25.23,16.02,17.09-2.24c1.99-1.46,0.05-6.24-1.06-8.2
		c1.84,1.12,3.94,1.16,5.75,0.19c1.7,4.79,7.26,10.24,11.77,7.97c2.95,6.35,12.01,8.61,14.12,1.73c7.32,4.65,16.25-3.33,7.32-10.84
		c4.37-4.87,1.69-9.28-4.48-11.29c1.21-5.69-5.17-9.02-12.15-10.04c2.06-9.66-15.85-9.26-25.81-9.17
		c-2.43-2.89-5.98-7.46-7.16-11.24c4.94-0.96,4.95-0.95,5.72-1.14c4.92,3.31,16.33,10.13,21.65,7.49c2.84-1.4,4.27-4.02,3.63-7.41
		c5.88,0.15,8.91-5.23,7.7-9.09c14.92-3.53,10.36-12.65,6.01-14.72c-3.48-1.66-7.32,0.37-10.06,2.53c-1.61-3.55-8.64-6.5-12.26-1
		c-7.6-4.62-13.35,11.98-16.86,20.12c-2.31,0.51-4.17,0.71-5.58,0.89c0.02-0.18,0.04-0.37,0.06-0.55
		c6.67-13.33,11.33-27.76,13.88-42.03c0.93-1.02,1.66-2.35,2.01-3.96c6.37,3.36,11.14-4.67,8.73-11.23
		c4.79-1.59,4.84-9.38,2.65-13.96c1.97-0.6,3.42-2.12,3.93-4.21c0.62,2.23,2.63,6.92,5.07,6.54c7.23,18.71,30.17,5.31,13.64-10.54
		c0.69-1.11,0.75-1.43,0.95-1.84c-0.84-0.84-7.93-11.83-15.88-6.64c-3.19-4.78-6.72-9.22-10.46-13.54c3.42,0.31,6.45-0.28,7.88-0.63
		c1.85,10.26,17.21,7.75,17.36,7.76c0.01-0.79,0.02-0.98,0.01-1.64C921.16,359.65,929.34,350.7,924.94,343.75z M881.88,306.99
		c3.27-1.41,4.99,0.16,5.12,3.48c0.09-5.67,2.61-9.67,8.35-8.06c5.82,1.64,3.54,6.81,3.54,6.81c0.17-0.09,8.62-14.61,15.52-6.56
		c6.63,7.74-10.6,13.11-10.6,13.11s4.09,2.17,1.69,7.27c-2.4,5.1-8.99,3.54-8.99,3.54s5.36,5.99-0.09,9.97
		c-4.46,3.26-17.77-1.73-22.9-3.89c2.34-1.27,4.69-2.78,7-4.29c10.27,3.57,11.39,4.92,11.85,3.71c0.45-1.21-1.31-0.95-10.4-4.65
		c4.65-3.11,8.32-5.79,9.67-6.77c8.21,0.26,9.86,1.21,9.94-0.07c0.08-1.27-1.8-0.55-8.16-1.21c20.21-14.68,18.31-13.91,18.15-14.14
		c-0.4-0.55,0.47-0.59-14.57,9.77c0.08-5.81,0.75-6.82-0.21-7.09c-1.49-0.42-0.67,2.29-1.23,8.06c-5.07,3.47-7.05,4.84-11.31,7.58
		c-0.19-6.24,0.61-7.9-0.64-7.92c-1.27-0.01-0.46,1.68-0.76,8.81c-2.71,1.72-7.11,4.44-9.99,5.89
		C874.03,324.82,877.29,308.97,881.88,306.99z M802.72,237.62c1.45,0.69,1.36,2.68,1.25,3.54c0.89-4.68,3.54-7.63,8.06-5.48
		c4.59,2.19,1.96,6.14,1.96,6.14c0.12-0.04,9.22-10.87,13.78-3.21c4.39,7.35-10.64,9.34-10.64,9.34s3.07,2.38,0.36,6.26
		c-2.71,3.88-7.95,1.65-7.95,1.65s3.58,5.72-1.5,8.24c-4.16,2.06-14.46-3.97-18.4-6.48c2.12-0.72,4.28-1.63,6.4-2.55
		c7.98,4.41,8.73,5.7,9.28,4.76c0.55-0.94-0.95-0.98-7.95-5.34c4.3-1.92,7.71-3.61,8.97-4.22c6.76,1.38,7.99,2.41,8.24,1.36
		c0.25-1.04-1.41-0.71-6.58-2.17c5.68-2.8,11.3-5.7,16.89-8.67c0.39-0.21,0.09-0.8-0.31-0.6c-4.31,2.1-8.64,4.16-13,6.18l1.16-5.26
		c0.17-0.76-0.98-1.01-1.14-0.25l-1.34,6.12c-5.33,2.44-8.02,3.61-10.44,4.63c0.86-5.68,1.57-6.46,0.6-6.64
		c-1.04-0.19-0.61,1.3-1.89,7.18c-2.49,1.04-6.51,2.66-9.11,3.45C791.79,249.66,797.32,235.05,802.72,237.62z M731.61,207.95
		c7.86-0.59,8.25,11.1,3.38,18.21c-3.04-1.47-8.34-3.75-13.15-4.55C723.67,215.83,725.49,208.41,731.61,207.95z M719.06,223.35
		c5.92,0.16,14.17,4.15,16.7,5.45C729.25,245.53,713.62,236.45,719.06,223.35z M532.78,345.32c-1.06-4.59,1.02-6.2,1.07-6.23
		c5.35-3.42,10.42-1.7,14.18,3.21c-2.64,2.2-6.13,6.69-7.9,10.76C538.15,351.96,533.65,349.11,532.78,345.32z M541.2,356.2
		c1.1-5.21,7.63-12.74,9.47-13.27C561.79,350.65,555.37,367.2,541.2,356.2z M533.81,387.84c-5.86-5.27,2.33-13.64,10.82-15.02
		c1.04,3.21,3.05,8.62,5.8,12.65C544.99,388.13,538.37,391.94,533.81,387.84z M553.61,386.27c-3.98-4.39-6.79-13.11-7.6-15.84
		C562.62,363.58,566.84,381.15,553.61,386.27z M564.03,342.09c0.44,0,0.72,0.03,0.72,0.03c-6.3-2.36-10.41-13.98-3.08-13.98
		c0.73,0,1.27,0.11,1.27,0.11s-6.03-3.17-4.52-9.35c1.31-5.37,6.02-1.98,7.25-1.98c1.4,0-2.81-6.7,3.16-8.87
		c4.99-1.81,5.19,7.55,5.28,7.69c11.77-4.98,6.39,8.7,6.48,8.9c0.14,0,3.02-2.11,4.98,2.11c1.96,4.22-2.56,13.12-2.56,13.12
		c0.14,0.01,4.22-1.65,5.43,2.71c1.04,3.75-5.48,15.6-7.34,18.89c-1.59-4.61-2.64-8.32-3.82-13.1c3.12-5.41,4.69-6.39,3.63-7.06
		c-1.05-0.66-1.33,1.24-4.1,5.18c-1.55-6.58-0.77-4.29-3.15-17.6c0.28-0.24-0.39,0.62,3.78-5.7c0.21-0.32,0.12-0.75-0.2-0.96
		c-1.04-0.67-1.34,1.19-3.91,4.7l-1.3-7.8c-0.16-0.97-1.62-0.74-1.48,0.23l2.35,16.2c-6.64-2.35-7.88-3.72-8.35-2.55
		c-0.48,1.22,1.58,1.1,8.58,4.13l0.62,4.29l-0.01-0.15c0.12,1.78,1.48,7.71,1.91,9.51c-2.15-0.28-6.6-2.3-9.59-3.94
		c-0.81-0.45-1.48,0.78-0.67,1.22c1.34,0.73,7.46,3.98,10.6,4.11c1.01,4.08,1.86,7,2.74,9.75
		C562.74,358.03,551.87,342.09,564.03,342.09z M557.02,357.82c1.21-2.04,1.54-4.33,1.19-6.72c3.89,5.97,13.25,11.98,21.38,13.49
		c1.72,4.95,2.99,7.51,4.25,9.72C573.97,369.56,563.93,363.27,557.02,357.82z M583.86,413.08c-2.76,2.24-4.85,1.19-5.87-1.96
		c1.44,5.48,0.11,10.02-5.85,10.02c-6.05,0-5.25-5.6-5.25-5.6c-0.14,0.14-4.35,16.4-13.17,10.52c-8.48-5.66,6.65-15.49,6.65-15.49
		s-4.52-0.99-3.59-6.55c0.93-5.56,7.7-5.84,7.7-5.84s-6.78-4.31-2.61-9.62c3.42-4.35,17.58-3.14,23.1-2.46
		c-1.91,1.86-3.76,3.94-5.57,6.03c-10.85-0.65-12.3-1.65-12.41-0.36c-0.11,1.29,1.52,0.56,11.28,1.66
		c-3.63,4.25-6.44,7.83-7.48,9.13c-7.98,1.98-9.82,1.51-9.55,2.76c0.27,1.25,1.88,0.04,8.18-1.04
		c-15.48,19.61-13.86,18.35-13.64,18.53c0.54,0.42-0.3,0.7,11.38-13.35c1.5,5.62,1.13,6.76,2.12,6.76c0.46,0,0.78-0.42,0.68-0.85
		l-1.68-7.24c3.94-4.72,5.48-6.57,8.84-10.36c1.87,5.96,1.55,7.77,2.76,7.45c1.22-0.34-0.02-1.76-1.65-8.68
		c2.14-2.39,5.64-6.2,8.02-8.37C586.59,393.79,587.74,409.93,583.86,413.08z M566.46,441.8c-3.18-6.14,6.13-10.44,13.5-8.96
		c-0.14,2.95-0.17,8,0.84,12.15C575.56,445.49,568.94,446.58,566.46,441.8z M583.16,446.63c-1.9-4.82-1.51-12.83-1.33-15.32
		C597.61,430.83,595.46,446.52,583.16,446.63z M610.68,481.63c-5.26,0.36-9.51,0.83-11.07,0.99c-6.58-4.06-7.49-5.61-8.15-4.6
		c-0.66,1,1.21,1.29,6.09,4.81c-7.06,0.76-14.09,1.65-21.12,2.62c-0.49,0.07-0.4,0.81,0.09,0.75c5.35-0.55,10.71-1.05,16.06-1.5
		l-3.24,5.09c-0.47,0.73,0.64,1.44,1.11,0.7l3.77-5.93c6.56-0.52,9.83-0.71,12.77-0.86c-3.09,5.65-4.14,6.2-3.19,6.76
		c1.03,0.6,1.15-1.14,4.75-6.83c3.02-0.13,7.88-0.29,10.92-0.12c-4.78,5.32-16.23,18.57-20.92,13.78c-1.26-1.29-0.4-3.35,0.05-4.2
		c-2.74,4.59-6.66,6.67-10.59,2.66c-3.99-4.07,0.3-7.22,0.3-7.22c-0.14,0-13.89,7.89-15.75-1.92c-1.79-9.43,14.8-5.73,14.8-5.73
		s-2.32-3.69,2.03-6.73c4.35-3.04,9,1.33,9,1.33s-1.57-7.4,4.75-8.1c5.17-0.57,13.7,9.75,16.87,13.91
		c-2.51-0.06-5.14,0.07-7.73,0.22c-6.71-7.72-6.99-9.36-7.93-8.58C603.43,473.73,604.99,474.35,610.68,481.63z M626.67,523.61
		c-1.59-0.27-2.04-2.21-2.17-3.06c0.43,4.75-1.32,8.31-6.26,7.47c-5.01-0.85-3.56-5.37-3.56-5.37c-0.1,0.07-5.9,12.97-12.38,6.86
		c-6.23-5.88,7.69-11.89,7.69-11.89s-3.61-1.45-2.06-5.92c1.55-4.47,7.19-3.75,7.19-3.75s-5.01-4.52-0.81-8.33
		c3.44-3.12,15-0.13,19.47,1.21c-1.84,1.27-3.68,2.74-5.46,4.21c-8.89-2.06-9.95-3.1-10.22-2.04c-0.27,1.05,1.18,0.68,9.1,2.96
		c-3.61,3.02-6.43,5.58-7.47,6.51c-6.88,0.52-8.34-0.13-8.3,0.95c0.04,1.07,1.55,0.3,6.92,0.29c-4.7,4.24-9.31,8.57-13.88,12.95
		c-0.32,0.31,0.14,0.79,0.46,0.49c3.57-3.2,7.18-6.37,10.82-9.49l0.32,5.37c0.05,0.77,1.22,0.7,1.17-0.07l-0.38-6.26
		c4.46-3.81,6.73-5.66,8.78-7.31c0.72,5.7,0.25,6.65,1.24,6.55c1.06-0.11,0.23-1.42-0.15-7.42c2.11-1.68,5.54-4.34,7.82-5.8
		C633.89,509.05,632.56,524.61,626.67,523.61z M659.33,533.91c-4.85,4.92-11.83-2.61-12.69-10.07c2.85-0.78,7.66-2.31,11.29-4.56
		C660.03,524.11,663.12,530.07,659.33,533.91z M658.76,516.53c-4,3.3-11.74,5.4-14.16,6C639.27,507.68,654.86,504.86,658.76,516.53z
		 M695.87,552.8c-1.42-0.25-1.83-1.99-1.93-2.76c0.36,4.26-1.22,7.46-5.65,6.69c-4.5-0.78-3.18-4.84-3.18-4.84
		c-0.09,0.06-5.35,11.63-11.15,6.11c-5.57-5.3,6.95-10.65,6.95-10.65s-3.23-1.32-1.82-5.33c1.41-4.01,6.48-3.34,6.48-3.34
		s-4.48-4.08-0.7-7.49c3.1-2.79,13.47-0.06,17.48,1.16c-1.66,1.13-3.31,2.45-4.92,3.76c-7.97-1.89-8.92-2.82-9.17-1.87
		c-0.25,0.94,1.06,0.61,8.16,2.7c-3.25,2.7-5.8,4.99-6.74,5.82c-6.18,0.44-7.49-0.15-7.46,0.82c0.04,0.96,1.39,0.28,6.21,0.29
		c-4.24,3.79-8.4,7.66-12.52,11.58c-0.29,0.28,0.12,0.71,0.41,0.44c3.22-2.86,6.47-5.69,9.75-8.48l0.27,4.83
		c0.04,0.69,1.09,0.64,1.05-0.06l-0.32-5.62c4.02-3.4,6.07-5.06,7.91-6.53c0.63,5.12,0.2,5.97,1.08,5.89
		c0.95-0.09,0.22-1.27-0.1-6.67c1.9-1.5,4.99-3.87,7.05-5.18C702.41,539.75,701.16,553.72,695.87,552.8z M713.36,569.1
		c-6.88,0.63-7.36-9.62-3.2-15.89c2.68,1.24,7.34,3.17,11.57,3.8C720.21,562.06,718.72,568.61,713.36,569.1z M724.14,555.45
		c-5.18-0.06-12.45-3.44-14.69-4.55C714.95,536.11,728.68,544.02,724.14,555.45z M740.62,563.45c-7.85-0.7-6.33-12.3-0.36-18.51
		c2.76,1.94,7.61,5.06,12.24,6.63C749.74,556.97,746.73,563.99,740.62,563.45z M755.52,550.3c-5.81-1.12-13.3-6.41-15.59-8.11
		C749.09,526.75,763.02,538.27,755.52,550.3z M880.2,435.4c1.45,0.69,1.36,2.69,1.25,3.54c0.89-4.68,3.54-7.63,8.06-5.48
		c4.59,2.19,1.96,6.14,1.96,6.14c0.12-0.04,9.22-10.87,13.78-3.21c4.39,7.35-10.64,9.34-10.64,9.34s3.07,2.38,0.36,6.26
		c-2.71,3.88-7.95,1.65-7.95,1.65s3.58,5.72-1.5,8.24c-4.16,2.06-14.46-3.97-18.4-6.48c2.12-0.72,4.28-1.63,6.4-2.55
		c7.98,4.41,8.73,5.7,9.27,4.76c0.55-0.94-0.95-0.98-7.95-5.34c4.3-1.92,7.71-3.61,8.97-4.22c6.76,1.38,7.99,2.41,8.24,1.36
		c0.25-1.04-1.41-0.71-6.58-2.17c5.68-2.8,11.3-5.7,16.89-8.67c0.39-0.21,0.09-0.8-0.31-0.6c-4.31,2.1-8.64,4.17-13,6.18l1.16-5.26
		c0.17-0.76-0.98-1.01-1.14-0.25l-1.35,6.12c-5.33,2.44-8.02,3.61-10.44,4.63c0.86-5.68,1.57-6.46,0.6-6.64
		c-1.04-0.19-0.61,1.3-1.89,7.18c-2.49,1.04-6.51,2.66-9.11,3.45C869.28,447.44,874.81,432.83,880.2,435.4z M867.09,340.63
		c2.11,3.4,2.9,9.68,3.26,13.67c-0.11,0.11-0.23,0.22-0.34,0.33c-1.47-5.5-3.28-10.85-5.47-16.03
		C865.4,339.27,866.25,339.94,867.09,340.63z M856.24,299.23c15.56,4.14,8.37,23.58-6.91,11.42
		C852.41,307.47,855.22,302.51,856.24,299.23z M854.64,297.04c0.22,1.9-4.23,10.82-8.62,13.84
		C830.42,302,843.24,289.73,854.64,297.04z M840.48,262.03c4.49-0.56,4.53,3.85,4.59,3.97c0,0,6.48-7.59,11.13-7.4
		c4.65,0.19,3.8,3.66,3.86,3.79c0,0,7.75-7.33,10.06-1.77c0.41,1,0.65,2.41,0.64,4.35c0.16,0.03,8.89-3.38,9.13,1.92
		c0.28,6.34-7.52,5.02-6.98,6.32c0.47,1.13,5.4,4.19,0.95,7.45c-5.13,3.76-10.37-0.59-10.37-0.59s0.31,0.46,0.59,1.13
		c2.81,6.77-9.5,7.43-14.09,2.52c0,0,0.13,0.25,0.3,0.66c4.66,11.22-14.22,7.3-23.96-5.94c2.88-0.24,5.91-0.58,10.06-1.21
		c1.33,2.85,6.67,7.25,7.86,8.21c0.72,0.58,1.6-0.51,0.87-1.09c-2.66-2.14-6.23-5.47-7.32-7.35c1.83-0.29,7.82-1.32,9.52-1.89
		l-0.14,0.05l4.2-1.07l6.12,6.32c0.27,0.28,0.71,0.28,0.98,0.02c0.91-0.88-0.84-1.5-5.55-6.73l15.86-4.04
		c0.95-0.24,0.6-1.68-0.36-1.46l-7.71,1.79c2.26-3.71,3.86-4.71,2.84-5.41c-0.32-0.22-0.75-0.13-0.97,0.18
		c-4.24,6.27-3.69,5.33-3.81,5.68c-13.2,2.91-10.78,2.75-17.46,3.84c2.58-4.07,4.23-5.06,3.21-5.77c-1.02-0.72-1.33,1.1-5.12,6.06
		c-4.88,0.74-8.7,1.2-13.57,1.49C828.17,273.08,836.62,262.52,840.48,262.03z M813.78,278.54c2.34,0.25,5.1,0.37,9.75,0.1
		c4.52,6.93,13.65,13.26,20.66,14.57c-2.34,0.6-4.33,1.78-5.75,3.68c-7.51-4.2-16.9-10.84-24.95-17.95L813.78,278.54z
		 M813.48,310.94c-0.35-14.18,17.5-17.02,17.55,0.94C828.19,312.18,819.05,312.93,813.48,310.94z M819.63,329.84
		c-5.54-2.64-4.56-10.21-4.19-16.26c4.78,1,10.54,0.77,13.91,0.5C831.33,322.46,826.75,333.23,819.63,329.84z M754.72,249.69
		c0.23-3.43-0.6-9.06-2.32-13.14C771.1,230.7,770.68,251.44,754.72,249.69z M749.38,235.15c2.94,4.3,3.89,13.88,3.1,15.87
		c-2.88-0.38-5.77-0.68-8.68-0.88C736.98,246.61,736.12,237.13,749.38,235.15z M764.45,273.37c2.98,4.66-2.73,5.73-3.57,6.61
		c-0.97,1.01,6.78,2.6,4.23,8.41c-2.13,4.86-9.05-1.46-9.21-1.5c-0.69,1.82-1.42,3.05-2.16,3.83c-4.16,4.35-8.75-5.28-8.75-5.28
		c-0.1,0.1-0.56,3.64-4.96,2.14c-4.41-1.5-7.71-10.92-7.71-10.92c-0.1,0.1-1.73,4.19-5.71,2.05c-3.43-1.84-7.5-14.74-8.58-18.36
		c4.43,2.03,7.83,3.84,12.11,6.29c1.75,5.99,1.38,7.8,2.59,7.5c1.2-0.3,0.03-1.82-0.92-6.54c5.83,3.42,3.64,2.4,14.9,9.88
		c-0.01,0.37-0.18-0.71,1.51,6.67c0.09,0.38,0.46,0.61,0.84,0.52c1.2-0.29,0.07-1.8-0.7-6.07l6.54,4.45
		c0.81,0.55,1.66-0.66,0.86-1.23l-13.34-9.49c6.28-3.17,8.14-3.13,7.61-4.27c-0.55-1.19-1.89,0.38-8.91,3.34l-3.53-2.51l0.12,0.1
		c-1.37-1.14-6.6-4.26-8.2-5.19c1.69-1.36,6.22-3.18,9.47-4.21c0.88-0.27,0.46-1.61-0.42-1.33c-1.45,0.46-8.03,2.64-10.29,4.82
		c-3.64-2.09-6.34-3.49-8.94-4.76c8.33-5.31,13.51-4.91,23.71-4.23c6.26,2.65,0.36,7.64,0.27,7.84c6.06-2.92,17.3,2.13,12.23,7.44
		c-0.5,0.53-0.96,0.84-0.96,0.84S761.02,268.01,764.45,273.37z M737.28,245.47c0.49,1.75,1.45,3.23,2.75,4.45
		c-8.6-0.37-17.31-0.03-26.98,1.38C721.54,248.54,730.3,246.46,737.28,245.47z M721.78,254.27c-1.8,0.83-3.51,1.77-4.99,2.84
		c-1.57-0.72-2.91-1.28-4.1-1.75C715.7,254.9,718.73,254.53,721.78,254.27z M678.78,226.7c0.29-3.55,2.49-4.33,5.48-2.89
		c-4.96-2.75-7.32-6.84-3.2-11.15c4.18-4.37,7.67,0.07,7.67,0.07c0-0.19-8.85-14.47,1.49-16.79c9.95-2.22,6.6,15.51,6.6,15.51
		s3.84-2.59,7.22,1.92c3.38,4.51-1.1,9.6-1.1,9.6s7.8-1.92,8.76,4.76c0.78,5.47-9.87,14.88-14.19,18.4
		c-0.03-2.66-0.25-5.44-0.5-8.19c7.97-7.4,9.69-7.75,8.83-8.72c-0.85-0.97-1.46,0.71-8.99,7c-0.57-5.56-1.21-10.06-1.44-11.71
		c4.08-7.13,5.7-8.14,4.6-8.81c-1.09-0.67-1.33,1.33-4.9,6.63c-3.48-24.73-3.69-22.7-3.97-22.66c-0.67,0.1-0.3-0.7,1.79,17.45
		c-5.1-2.8-5.67-3.86-6.36-3.14c-0.32,0.33-0.23,0.86,0.15,1.08l6.39,3.78c0.69,6.11,0.96,8.5,1.38,13.55
		c-5.6-2.76-6.68-4.25-7.29-3.15c-0.18,0.34-0.06,0.76,0.28,0.94l7.14,3.86c0.25,3.2,0.58,8.36,0.51,11.59
		C690.84,242,678.38,231.68,678.78,226.7z M651.28,245.83c1.47-0.67,2.93,0.69,3.51,1.33c-3.01-3.7-3.56-7.62,1-9.69
		c4.63-2.1,5.96,2.46,5.96,2.46c0.05-0.12-2.37-14.05,6.42-12.61c8.45,1.38,0.28,14.16,0.28,14.16s3.8-0.81,5.02,3.76
		c1.22,4.57-3.86,7.14-3.86,7.14s6.68,0.95,5.33,6.45c-1.1,4.51-12.35,8.5-16.82,9.89c0.81-2.08,1.51-4.33,2.17-6.54
		c8.52-3.26,9.98-3,9.61-4.03c-0.36-1.02-1.36,0.1-9.2,2.64c1.3-4.52,2.21-8.22,2.55-9.58c5.42-4.28,6.99-4.56,6.35-5.43
		c-0.64-0.86-1.45,0.62-5.89,3.63c1.52-6.15,2.92-12.31,4.26-18.5c0.09-0.43-0.56-0.58-0.66-0.15c-1.17,4.65-2.39,9.29-3.65,13.92
		l-3.28-4.27c-0.47-0.61-1.4,0.1-0.93,0.71l3.81,4.97c-1.57,5.65-2.41,8.46-3.18,10.97c-3.79-4.32-3.93-5.37-4.69-4.74
		c-0.82,0.68,0.6,1.31,4.27,6.07c-0.81,2.57-2.16,6.69-3.23,9.19C653.45,261.94,645.84,248.3,651.28,245.83z M661.89,269.46
		c-2.03,1.21-4.03,2.49-6.01,3.81c0.91-1.63,0.99-1.78,1.24-2.28C658.43,270.62,660.09,270.1,661.89,269.46z M647.15,296.22
		c-3.07-3.2-7.92-6.18-11.16-7.32C640.7,273.5,659.86,281.39,647.15,296.22z M633.74,290.41c1.9-0.15,10.66,4.63,13.51,9.12
		C637.81,314.79,626.02,301.54,633.74,290.41z M629.52,300.7c0.51,2.36,1.62,4.39,3.47,5.88c-4.57,7.52-11.78,16.93-19.37,24.82
		c0.41-2.51,0.7-5.36,0.59-10.59C621.29,316.55,627.96,307.66,629.52,300.7z M598.24,303.27c-0.4-4.51,4.01-4.38,4.14-4.44
		c0,0-7.35-6.75-6.99-11.39c0.36-4.64,3.79-3.67,3.92-3.72c0.02-0.2-9.79-11.15,2.97-10.6c0.03-0.16-3.05-9.01,2.26-9.05
		c6.34-0.05,4.74,7.7,6.06,7.21c1.15-0.43,4.38-5.25,7.48-0.67c3.57,5.26-0.97,10.34-0.97,10.34s0.47-0.29,1.15-0.55
		c6.87-2.56,7.08,9.76,2,14.18c0,0,0.25-0.13,0.67-0.28c11.39-4.25,6.77,14.48-6.82,23.73c-0.14-2.89-0.36-5.92-0.84-10.1
		c2.9-1.22,7.49-6.4,8.49-7.56c0.61-0.7-0.45-1.61-1.05-0.91c-2.23,2.58-5.69,6.03-7.61,7.04c-0.23-1.84-1.03-7.87-1.54-9.58
		l0.04,0.15l-0.91-4.23c5.68-5.46,7.44-5.93,6.59-6.87c-0.85-0.94-1.53,0.78-6.93,5.3l-3.46-16c-0.21-0.96-1.66-0.66-1.47,0.3
		l1.51,7.77c-3.62-2.39-4.56-4.03-5.3-3.04c-0.23,0.31-0.16,0.75,0.15,0.97c6.11,4.46,5.19,3.89,5.53,4.02
		c2.43,13.3,2.36,10.88,3.2,17.59c-3.97-2.73-4.9-4.41-5.65-3.42c-0.76,1,1.05,1.37,5.87,5.34c0.56,4.9,0.88,8.74,1,13.61
		C608.82,315.98,598.58,307.15,598.24,303.27z M611.32,328.98c-0.3,2.41-0.81,4.75-1.69,6.46c-0.75,0.73-1.53,1.44-2.29,2.16
		C608.56,334.7,609.88,331.83,611.32,328.98z M603.39,383.9c5.12-2.49,6.75,2.57,6.75,2.57c0.05-0.13-3.09-15.67,6.81-14.33
		c9.51,1.29,0.76,15.85,0.76,15.85s4.23-1.03,5.74,4.06c1.5,5.09-4.11,8.12-4.11,8.12s7.52,0.86,6.18,7.07
		c-1.1,5.09-13.58,9.91-18.54,11.6c0.85-2.36,1.56-4.9,2.24-7.4c9.44-3.92,11.09-3.67,10.65-4.81c-0.44-1.13-1.52,0.15-10.23,3.24
		c1.32-5.11,2.22-9.28,2.56-10.81c5.94-4.96,7.69-5.32,6.95-6.28c-0.74-0.95-1.61,0.74-6.49,4.25c1.52-6.93,2.9-13.89,4.2-20.86
		c0.09-0.49-0.64-0.63-0.74-0.15c-1.17,5.25-2.39,10.49-3.67,15.71l-3.8-4.69c-0.55-0.67-1.57,0.15-1.02,0.83l4.43,5.46
		c-1.58,6.38-2.44,9.55-3.23,12.39c-4.38-4.72-4.57-5.89-5.4-5.17c-0.89,0.79,0.71,1.45,4.98,6.67c-0.83,2.91-2.22,7.57-3.34,10.39
		c-8.26-14.54-7.88-15.45-8.11-22.39c0.88-2.18,3.17-2.99,5.62-0.44C599.08,390.75,598.35,386.36,603.39,383.9z M601.21,425.03
		c-1.35-5.23-2.41-10.53-3.13-15.89c1.95,4.03,4.26,7.98,5.87,11C602.94,422.19,601.99,423.76,601.21,425.03z M619.16,467.9
		c-2.57-3.73,1.33-5.79,1.41-5.9c0,0-9.72-2.26-11.7-6.47c-1.97-4.21,1.49-5.06,1.58-5.17c-0.09-0.2-14.02-4.88-2.65-10.69
		c-0.05-0.16-7.09-6.33-2.5-8.99c5.49-3.17,7.92,4.36,8.82,3.29c0.79-0.94,1.23-6.72,6.18-4.28c5.7,2.82,4.25,9.47,4.25,9.47
		s0.26-0.49,0.73-1.04c4.71-5.62,10.97,5,8.73,11.35c0,0,0.16-0.23,0.44-0.57c7.81-9.31,13.03,9.26,5.77,24.01
		c-1.54-2.45-3.24-4.98-5.71-8.37c1.92-2.49,3.37-9.26,3.67-10.76c0.18-0.9-1.19-1.18-1.37-0.27c-0.67,3.34-1.98,8.05-3.15,9.88
		c-1.1-1.49-4.77-6.34-6.06-7.58l0.11,0.11l-2.88-3.23c2.25-7.55,3.55-8.83,2.35-9.23c-1.2-0.4-0.95,1.44-3.41,8.03l-10.9-12.21
		c-0.65-0.73-1.77,0.24-1.13,0.99l5.14,6.01c-4.33-0.29-5.95-1.25-6.11-0.03c-0.05,0.38,0.23,0.73,0.61,0.77
		c7.52,0.87,6.43,0.82,6.79,0.77c8.67,10.37,7.41,8.3,11.45,13.72c-4.8-0.42-6.44-1.42-6.6-0.19c-0.17,1.24,1.59,0.67,7.74,1.75
		c2.9,3.99,5.07,7.17,7.58,11.35C634.63,473.74,621.37,471.11,619.16,467.9z M659.96,440.49c-0.69,17.93-17.49,12.21-16.25-1.27
		C645.29,438.15,655.27,437.99,659.96,440.49z M651.58,423.86c0.05-0.01,2.63-0.56,5.46,3.19c2.34,3.1,1.64,8.38,1.2,10.6
		c-4.25-1.27-9.94-1.48-13.32-0.87C643.58,430.76,645.53,425.76,651.58,423.86z M643.75,494.12c-7.01-6.11-13.41-12.98-19.12-20.56
		c4.91,1.73,10.9,2.78,15.3,3.59c1.95,3.5,4.83,9.14,5,13.13C644.56,491.57,644.15,492.84,643.75,494.12z M641.7,475.3
		c4.07-7.2,5.48-18.23,3.41-25.05c1.61,1.8,3.58,3.02,5.92,3.41c-0.27,8.79-1.91,20.53-4.62,31.15
		C645.53,482.41,644.38,479.8,641.7,475.3z M724.64,518.49c-0.79,3.34-0.89,9.03,0.14,13.35
		C705.44,534.54,709.15,514.15,724.64,518.49z M727.53,533.71c-2.25-4.83-1.55-14.78-0.39-16.3
		C740.67,516.91,745.47,533.99,727.53,533.71z M727.06,498.97c0.58-0.44,1.08-0.67,1.08-0.67s-6.72,1.09-9.23-4.76
		c-2.18-5.08,3.63-5.2,4.61-5.94c1.12-0.84-6.27-3.68-2.8-8.99c2.9-4.45,8.68,2.92,8.84,2.98c0.98-1.68,1.9-2.77,2.76-3.42
		c4.81-3.61,7.76,6.64,7.76,6.64c0.11-0.08,1.15-3.5,5.25-1.3c4.1,2.2,5.83,12.03,5.83,12.03c0.12-0.08,2.39-3.85,5.97-1.09
		c3.08,2.38,4.99,15.76,5.47,19.52c-4.04-2.73-7.1-5.07-10.92-8.18c-0.75-6.2-0.08-7.92-1.33-7.82c-1.23,0.1-0.33,1.79-0.17,6.61
		c-5.19-4.33-3.19-2.96-13.08-12.18c0.07-0.36,0.06,0.73-0.4-6.83c-0.03-0.38-0.36-0.68-0.74-0.65c-1.23,0.09-0.36,1.76-0.3,6.1
		l-5.73-5.46c-0.71-0.68-1.74,0.38-1.05,1.07l11.61,11.54c-6.72,2.1-8.54,1.75-8.2,2.97c0.1,0.37,0.48,0.59,0.86,0.49l8.48-2.33
		l3.07,3.05l-0.1-0.11c1.17,1.35,5.81,5.28,7.24,6.46c-1.89,1.07-6.66,2.12-10.03,2.61c-0.91,0.13-0.71,1.51,0.2,1.38
		c1.51-0.22,8.35-1.3,10.94-3.08c3.25,2.66,5.68,4.48,8.05,6.16c-15.12,6.45-33.38,0.23-23.66-7.06c0.35-0.26,0.59-0.41,0.59-0.41
		C731.46,510.2,721.19,503.37,727.06,498.97z M766.75,523.59c-9.06,1.42-18.34,2.08-25.59,1.91c-0.26-2.36-1.37-4.39-3.08-6.09
		c6.7,2.44,17.78,1.62,25.2-2.05c3.88,2.61,6.32,3.91,8.47,4.88C770.09,522.73,768.42,523.17,766.75,523.59z M795.8,553.58
		c-0.87,3.45-3.16,3.87-5.87,1.96c4.45,3.52,6.1,7.95,1.33,11.53c-4.84,3.63-7.56-1.32-7.56-1.32c-0.03,0.19,6.37,15.72-4.22,16.32
		c-10.18,0.57-3.98-16.38-3.98-16.38s-4.21,1.93-6.8-3.08c-2.59-5,2.65-9.29,2.65-9.29s-8.01,0.62-7.86-6.13
		c0.12-5.53,12.17-13.07,17-15.83c-0.41,2.63-0.64,5.41-0.84,8.17c-9.07,5.99-10.83,6.06-10.14,7.16c0.68,1.09,1.55-0.47,10.02-5.44
		c-0.35,5.58-0.45,10.13-0.5,11.79c-5.19,6.37-6.95,7.1-5.98,7.94c0.96,0.84,1.53-1.09,5.92-5.74c-0.61,24.97-0.07,23,0.21,23
		c0.68,0.01,0.18,0.74,1.09-17.51c4.57,3.59,4.96,4.73,5.76,4.13c0.36-0.27,0.37-0.81,0.03-1.09l-5.69-4.78
		c0.32-6.14,0.44-8.54,0.85-13.59c5.07,3.64,5.9,5.28,6.68,4.3c0.23-0.3,0.18-0.74-0.12-0.98l-6.41-4.98
		c0.28-3.2,0.79-8.35,1.39-11.51C786.4,536.52,797.02,548.73,795.8,553.58z M819.52,537.83c-6.29,2.86-10.12-6.66-8.26-13.94
		c2.94,0.29,7.98,0.57,12.18-0.22C823.67,528.93,824.42,535.6,819.52,537.83z M825.2,521.4c-4.91,1.65-12.89,0.85-15.37,0.54
		C810.16,506.17,825.72,509.11,825.2,521.4z M822.18,499.27c-1.36-5.98,5.19-9.91,10.17-13.37c2.18,4.37,5.92,8.75,8.22,11.23
		C835.22,503.88,823.93,506.96,822.18,499.27z M843.33,497.09c-1.99-2.04-8.24-8.74-10.14-14.35
		C844.1,473.68,857.39,485.92,843.33,497.09z M847.91,479.91c-1.29-1.02-2.59-1.63-3.87-2c4.22-5.28,8.03-10.96,11.42-16.92
		c-0.08,3.52-0.05,7.15,0.15,11.44C855.25,472.8,853.18,476.99,847.91,479.91z M853.41,508.23c-2.7-17.74,14.87-15.29,16.2-1.81
		C868.26,507.77,858.49,509.8,853.41,508.23z M864.78,522.98c-3.15,1.3-9.18-2.23-9.14-12.29c4.42,0.44,10.04-0.42,13.25-1.66
		C871.34,514.7,870.37,519.98,864.78,522.98z M866.66,472.67c1.98,2.11,4.12,4.28,7.19,7.14c-1.41,2.81-1.56,9.73-1.57,11.26
		c-0.01,0.92,1.39,0.93,1.39,0.01c0.03-3.41,0.43-8.28,1.23-10.29c1.37,1.25,5.88,5.32,7.38,6.3l-0.13-0.08l3.44,2.63
		c-0.78,7.84-1.82,9.34-0.56,9.5c1.25,0.17,0.66-1.59,1.84-8.53l13,9.94c0.78,0.6,1.69-0.57,0.92-1.18l-6.18-4.94
		c4.31-0.53,6.08,0.11,6.01-1.12c-0.03-0.38-0.36-0.67-0.74-0.65c-7.55,0.57-6.47,0.4-6.82,0.53c-10.47-8.55-8.84-6.76-13.84-11.32
		c4.79-0.49,6.59,0.18,6.52-1.05c-0.07-1.25-1.69-0.36-7.93-0.26c-3.6-3.37-6.33-6.09-9.58-9.72c3.78-0.03,17.31,0.05,20.08,2.78
		c3.22,3.18-0.21,5.94-0.27,6.06c0,0,9.97,0.38,12.71,4.15c2.73,3.77-0.51,5.25-0.58,5.37c0.14,0.2,14.69,2.14,4.61,9.99
		c0.08,0.14,8.16,4.88,4.15,8.35c-4.8,4.15-8.6-2.79-9.29-1.56c-0.6,1.07,0.06,6.83-5.26,5.36c-6.13-1.69-5.96-8.5-5.96-8.5
		s-0.17,0.53-0.52,1.16c-3.57,6.4-11.72-2.84-10.72-9.5C871.26,505.13,862.31,488.52,866.66,472.67z M864.78,470.6
		c-2.64,7.84-1.95,18.94,1.37,25.24c-1.92-1.47-4.08-2.29-6.45-2.23c-1.39-8.69-2-20.53-1.34-31.46
		C859.68,464.34,861.3,466.69,864.78,470.6z M866.43,425.49c-2.47-0.63-6.05-1.14-8.08-0.61c-1.01-9.01-14.49-7.83-14.63-7.85
		c-0.06,0.68-0.08,0.86-0.12,1.43c-10.76-1.92-18.43,5.38-15.07,11.72c3.09,5.83,10.47,4.54,16.46,3.95
		c0.32,0.89,0.54,1.3,0.69,1.62c0.14-0.03,10.79,0.75,12.53-8.29c0.49-0.07,3.45-1.42,7.78-0.47c-2.08,7.32-4.79,14.54-8.05,21.51
		c-0.55,0.27-1.32,0.65-1.33,0.66c-5.32,2.62-5.23,2.62-6.46,3.14c-8.89-5.41-26.04-17.64-30.23-7.91
		c-7.32-2.84-12.1,4.86-11.21,9.43c-4.14-0.2-9.27,0.47-11.51,4.48c-2.79,5.01-0.94,17.01,15.98,10.15
		c1.5,4.58,8.13,7.73,13.75,3.52c0.52,1.14,1.29,2.31,2.42,3.21c9.24,7.44,17.87-9.63,22.07-20.72c1.01-0.4,0.85-0.35,4.47-1.99
		c-0.01,0.1-0.01,0.2-0.02,0.3c-4.49,8.84-9.87,17.22-16.01,24.81c-5.01,0.63-8.88,4.46-8.98,4.51c0.12,0.39,0.23,0.9,0.61,1.92
		c-4.83,3.4-10.88,7.11-11.48,12.71c-4.19-1.89-4.16-1.88-4.77-2.13c-1.69-4.44-6-14.18-10.7-14.92c-2.51-0.39-4.66,0.66-5.81,3.17
		c-3.78-2.82-8.25-0.7-9.25,2.39c-11.4-4.59-12.63,3.49-10.74,6.86c1.51,2.7,4.97,3.14,7.75,3c-0.59,3.07,2.65,8.25,7.56,6.33
		c2.83,6.54,14.27-1.67,20.34-5.37c1.75,0.74,3.06,1.46,4.06,2c-12.78,10.11-27.26,17.88-42.58,22.9
		c-3.63-1.02-7.86-3.49-10.67-5.26c-1.26-9.88-3.28-27.68-12.57-24.33c-1.95-6.77-6.11-12.64-11.59-10.68
		c-2.26-4.67-6.09-7.52-10.2-4.44c-0.55,0.41-1.08,0.92-1.6,1.53c-8.65-7.84-15.35,2.09-9.75,8.72c-6.54,3.02-3.05,11.69,3.62,13.76
		c-1.65,4.77,4.51,9.54,9.48,10.58c-0.72,1.93-0.4,4.01,0.96,5.68c-2.15-0.86-7.09-2.11-8.27,0.06c-8.65-2.52-16.36,2.79-15.91,8.87
		c-22.87-4.15-44.03-13.77-61.77-28.07c3.76-1.04,3.85-1.09,4.98-1.33c7.71,6.99,22.24,22.24,28.2,13.47
		c6.65,4.17,12.8-2.49,12.79-7.15c4.03,0.98,9.19,1.29,12.15-2.23c3.69-4.39,4.13-16.53-13.78-12.98c-0.6-4.78-6.53-9.12-12.83-6.05
		c-0.3-1.22-0.84-2.51-1.77-3.61c-7.67-9.04-19.37,6.09-25.58,16.19c-1.06,0.2-0.9,0.19-4.77,1.11c1.73-6.41,2.93-11.88,4.03-19.54
		c0.43-0.3,3.25-4.03,8.98-5.9c6.89,7.96,16.96,1.12,17.13,1.06c-0.04-0.4-0.05-0.93-0.24-2c6.29-2.84,14.32-5.76,14.06-13.29
		c-0.28-8.23-12.09-11.01-21.6-3.02c-0.36-0.54-0.48-0.7-0.93-1.35c-0.12,0.09-14.22,6.67-9.97,16.19
		c-1.38,0.52-4.22,1.74-6.87,3.92c0.65-5.68,1.07-11.34,1.01-17.08c6.68-0.13,9.48-7.16,9.39-13.87l-0.01-0.55
		c-0.4-0.23-0.62-0.46-1.82-0.98c0.48-2.29,1.45-8.6-1.51-12.53c-7.22-9.58-18.44-0.25-15.69,11.51c-0.65,0.31-1.18,0.75-1.25,1.47
		c-0.25,2.37,0.04,4.69,0.75,6.79c-1.59-1.45-3.65-1.88-5.62-1.27c-0.77-5.02-5.2-11.43-10.05-10.04c-0.64-2.53-2.18-5.16-5.4-6.75
		c-3.5-1.73-6.5-0.71-8.14,2.39c-3.62-3.41-8.53-2.83-10.69-0.02c-0.12-0.42-0.26-0.83-0.38-1.24c3.35-6.43,3.34-6.36,3.74-7.23
		c6.34-2,20.29-7.24,21.69-13.74c0.75-3.47-0.54-6.56-3.96-8.36c4.24-5.05,1.64-11.46-2.59-13.1c7.33-15.54-3.85-17.91-8.71-15.55
		c-3.89,1.89-4.79,6.68-4.81,10.58c-4.23-1.07-11.74,3.04-9.45,10.05c-0.46,0.17-0.86,0.38-1.22,0.61
		c-0.15-17.57,2.79-34.15,8.65-49.73c0.5,0.13,6.69,1.64,7.96,2.04c3.27,9.88,8.39,30.31,17.89,25.62
		c3.73,6.91,12.37,4.14,14.65,0.09c3.02,2.84,7.36,5.65,11.67,4.05c5.37-2,11.74-12.34-5.59-18.08c0.79-1.91,0.85-4.42-0.77-7.24
		c-1.79-3.1-4.74-4.18-7.42-4.35c0.34-1.21,0.51-2.59,0.24-4.02c-2.21-11.65-19.85-4.25-30.23,1.48c-1.03-0.35-0.87-0.28-4.7-1.38
		c4.67-4.72,8.41-8.9,13.14-15.01c0.52-0.05,4.81-1.9,10.72-0.71c2.07,10.32,14.21,9.33,14.38,9.37c0.16-0.37,0.41-0.83,0.77-1.86
		c6.87,0.64,15.3,2.04,18.79-4.63c3.81-7.3-5.09-15.54-17.31-13.28c-0.05-0.65-0.07-0.84-0.15-1.63
		c-0.15,0.02-15.66-1.21-16.66,9.17c-1.46-0.23-4.52-0.57-7.91,0.03c3.36-4.62,6.52-9.34,9.3-14.36c8.61,4.66,15.1-7.72,15.27-7.93
		c-0.23-0.39-0.32-0.7-1.1-1.75c4.35-4.92,6.93-11.3,3-16.53c2.05-1.55,4.14-3.03,6.26-4.45c2.36,0.98,6.06,2.05,8.24,1.77
		c-0.16,9.06,13.35,9.65,13.48,9.68c0.15-0.67,0.19-0.84,0.3-1.4c10.42,3.3,18.98-2.94,16.46-9.66c-2.31-6.18-9.79-5.86-15.81-6.05
		c-0.2-0.93-0.37-1.36-0.47-1.7c-0.15,0.01-10.6-2.15-13.5,6.59c-0.37,0.01-3.45,0.84-7.11-0.32c14.63-9.52,30.64-16.05,47.94-19.42
		c2.83,0.74,5.72,1.86,7.86,2.77c2.85,9.54,7.76,26.77,16.38,21.95c3.03,6.36,8.09,11.48,13.17,8.64c2.99,4.23,7.24,6.43,10.79,2.72
		c0.47-0.49,0.91-1.08,1.33-1.77c9.81,6.32,14.8-4.57,8.19-10.19c2.9-1.97,3.58-5.06,1.48-8.35c-1.93-3.02-4.71-4.27-7.3-4.63
		c0.85-4.97-6.01-8.68-11.08-8.89c0.28-1.46,0-2.9-0.77-4.12c19.2,1.88,37.62,7.74,54.32,17.3c-0.04,0.2-1.19,5.77-1.54,7.03
		c-9.75,3.63-29.98,9.5-24.94,18.82c-6.77,3.98-3.68,12.51,0.45,14.64c-2.73,3.12-5.38,7.57-3.62,11.81
		c2.2,5.3,12.77,11.28,17.87-6.25c1.94,0.71,4.45,0.69,7.21-1.04c3.03-1.9,4-4.89,4.07-7.57c1.22,0.3,2.61,0.41,4.02,0.09
		c11.56-2.64,3.52-19.99-2.59-30.16c0.31-1.04,0.25-0.88,1.21-4.74c4.89,4.49,9.2,8.07,15.48,12.58c0.07,0.52,2.08,4.74,1.1,10.69
		c-10.23,2.45-8.81,14.54-8.83,14.71c0.38,0.15,0.85,0.38,1.89,0.71c-0.38,6.89-1.48,15.36,5.32,18.6
		c7.43,3.54,15.34-5.65,12.63-17.78c0.65-0.07,0.84-0.1,1.62-0.21c-0.03-0.15,0.63-15.7-9.77-16.31c0.18-1.47,0.4-4.54-0.32-7.9
		c4.74,3.19,9.57,6.17,14.69,8.77c-4.34,8.78,8.27,14.8,8.48,14.97c0.14-0.09,0.28-0.17,0.44-0.26c9.47,13.7,16.28,28.8,20.24,44.91
		c-6.97,7.08-15.15,16.68-8.12,21.21c-4.2,5.66-6.34,12.53-1.45,15.69c-2.93,5.8-1.67,10.81,4.85,11.14
		c-0.56,6.74,3.21,9.31,6.85,8.66C868.24,418.2,867.42,421.86,866.43,425.49z M846.85,434.01c-1.95-4.8-1.64-12.82-1.48-15.31
		C861.14,418.06,859.15,433.78,846.85,434.01z M844.48,432.39c-5.24,0.55-11.85,1.71-14.38-3.05c-3.24-6.1,6.03-10.5,13.41-9.1
		C843.41,423.21,843.43,428.25,844.48,432.39z M798.49,463.28c-0.84-10.57,15.41-6.32,15.6-6.38c0,0-5.28-2.03-2.33-7.31
		c2.9-5.21,7.51-4.17,11.6-0.24c-2.26-2.43-2.15-4.76,1.15-6.08c4.64-1.86,18.17,7,22.92,10.06c-3.06,1.02-8.09,2.22-11.22,2.93
		c-5.25-4.79-5.89-6.57-6.78-5.67c-0.87,0.9,0.87,1.5,5.16,6.03c-4.95,1.09-7.31,1.53-13.35,2.68c-4.49-3.68-5.82-6.17-6.58-4.82
		c-0.49,0.87,0.7,1.1,4.87,5.15c-28.58,5.35-18.76,4.47,5.62,0.55c-4.02,4.97-5.85,5.8-4.89,6.64c0.97,0.85,1.45-0.99,7.06-7
		c1.65-0.27,6.14-0.98,11.62-2.08c-3.79,9.06-5.21,10.13-4.04,10.66c1.18,0.54,1.01-1.21,5.73-11.01c2.7-0.57,5.42-1.17,7.98-1.94
		c-2.09,5.16-7.93,18.12-13.39,18.98c-6.67,1.06-7.13-6.97-7.13-6.97s-3.54,5.77-8.85,3.88c-5.31-1.9-3.97-6.33-3.97-6.33
		S799.31,473.44,798.49,463.28z M806.84,492.42c-3.7-0.73-6.72-1.2-7.82-1.38c-3.79-4.03-4.12-5.27-4.77-4.7
		c-0.64,0.57,0.59,1.12,3.3,4.46c-5.01-0.79-10.03-1.5-15.06-2.14c-0.35-0.04-0.42,0.48-0.08,0.54c3.79,0.62,7.59,1.27,11.37,1.97
		l-3.19,2.91c-0.46,0.42,0.17,1.11,0.63,0.69l3.71-3.38c4.62,0.87,6.92,1.35,8.98,1.79c-3.19,3.32-4.02,3.5-3.47,4.07
		c0.6,0.6,1-0.57,4.56-3.83c2.11,0.47,5.49,1.27,7.56,1.96c-4.29,2.78-14.67,9.78-17.01,5.6c-0.63-1.13,0.35-2.39,0.82-2.89
		c-2.75,2.65-5.85,3.36-7.81-0.14c-1.99-3.55,1.56-4.92,1.56-4.92c-0.1-0.03-11.06,2.85-10.51-4.27c0.53-6.84,11.29-1.19,11.29-1.19
		s-0.91-2.98,2.66-4.26c3.57-1.28,5.96,2.6,5.96,2.6s0.3-5.4,4.79-4.7c3.68,0.57,7.63,9.28,9.05,12.75
		c-1.72-0.51-3.56-0.91-5.37-1.29c-3.19-6.58-3.08-7.77-3.87-7.4C803.32,485.61,804.28,486.33,806.84,492.42z M686.57,483.17
		c4.86,2.86,2.7,6.96,2.7,6.96s17.26-5.27,16.14,4.86c-1.17,10.54-16.33,3.3-16.52,3.32c0,0,4.8,2.99,0.91,7.62
		c-3.83,4.57-8.16,2.68-11.44-1.96c1.76,2.81,1.22,5.08-2.28,5.76c-4.9,0.95-16.53-10.31-20.61-14.2c3.2-0.43,8.36-0.66,11.57-0.76
		c4.25,5.69,4.55,7.57,5.59,6.85c1.02-0.72-0.57-1.64-3.93-6.9c5.06-0.14,7.47-0.12,13.62-0.11c3.71,4.46,4.55,7.16,5.55,5.97
		c0.64-0.76-0.48-1.21-3.82-5.98c29.08,0.14,19.27-0.86-5.42-1.6c4.88-4.13,6.84-4.59,6.06-5.59c-0.79-1.02-1.62,0.7-8.26,5.54
		c-1.67-0.04-6.21-0.19-11.8-0.15c5.43-8.18,7.03-8.96,5.98-9.71c-1.06-0.75-1.22,1-7.7,9.73c-2.76,0.05-5.55,0.13-8.2,0.4
		c3.02-4.67,11.21-16.29,16.73-16.12c6.75,0.22,5.69,8.19,5.69,8.19S681.71,480.31,686.57,483.17z M675.01,469.34
		c-12.42,6.84-23.16-7.69-7.25-16.01C669.33,455.72,674.21,463.48,675.01,469.34z M670.48,453.81c6.53-5.61,18.2-6.51,18.47,1.37
		c0.21,6.13-6.97,8.75-12.51,11.21C675.12,461.69,672.27,456.68,670.48,453.81z M628.13,351.03c4.47,2.38,6.56,3.57,11.9,6.62
		l0.95,7.37c0.06,0.44,0.51,0.72,0.94,0.56c0.93-0.35,0.18-1.29-0.37-7.08c15.85,9.08,14.97,9.11,15.33,8.53
		c0.15-0.24,2.1,0.37-19.26-12.59c6.28-1.18,8.21-0.62,8.03-1.88c-0.18-1.27-1.75-0.19-9.92,0.75c-1.43-0.86-5.31-3.23-10.2-5.94
		c8.75-4.44,10.54-4.33,9.98-5.5c-0.55-1.17-1.56,0.27-11.5,4.67c-2.42-1.32-4.89-2.62-7.33-3.7c4.93-2.58,17.78-8.65,22.5-5.77
		c5.76,3.52,0.92,9.93,0.92,9.93s6.44-2.1,9.25,2.78c2.81,4.88-1.08,7.39-1.08,7.39s17.62,3.92,11.65,12.19
		c-6.21,8.59-15.84-5.17-16.01-5.25c0,0,2.7,4.96-2.96,7.08c-5.59,2.08-8.42-1.69-8.99-7.34c0.15,3.31-1.45,5.02-4.82,3.89
		c-4.74-1.59-9.3-17.11-10.93-22.51c2.99,1.2,7.6,3.55,10.44,5.04c0.89,7.05,0.23,8.82,1.49,8.71
		C629.4,358.85,628.46,357.27,628.13,351.03z M647.7,314.55c0.19,2.85,0.61,12-1.58,17.5C631.94,331.88,629.76,313.94,647.7,314.55z
		 M649.84,316.31c8.45-1.67,19.04,3.31,15.39,10.29c-2.84,5.44-10.37,4.18-16.41,3.59C649.99,325.45,649.98,319.68,649.84,316.31z
		 M678.57,271.03c1.31,5.01-0.04,12.92-0.52,15.37C662.34,284.98,666.35,269.66,678.57,271.03z M680.72,272.94
		c5.26,0.13,11.98-0.16,13.86,4.89c2.42,6.47-7.34,9.63-14.48,7.28C680.59,282.18,681.22,277.18,680.72,272.94z M795.88,314.83
		c-4.78,2.99-7.42-0.81-7.42-0.81s-3.27,17.75-11.75,12.09c-8.81-5.89,4.59-16.01,4.66-16.19c0,0-4.86,2.88-7.18-2.7
		c-2.29-5.51,1.38-8.48,7-9.25c-3.3,0.27-5.07-1.26-4.06-4.67c1.41-4.79,16.76-9.92,22.1-11.75c-1.09,3.03-3.27,7.73-4.65,10.62
		l-8.05,1.03c-0.38,0.05-0.65,0.4-0.6,0.78c0.17,1.24,1.72,0.25,7.94-0.31c-2.21,4.56-3.33,6.68-6.18,12.14l-7.33,1.22
		c-0.44,0.07-0.7,0.53-0.53,0.95c0.38,0.92,1.3,0.14,7.06-0.63c-8.49,16.17-8.55,15.29-7.96,15.63c0.25,0.14-0.29,2.11,11.87-19.7
		c1.41,6.24,0.92,8.19,2.18,7.95c1.26-0.23,0.12-1.76-1.11-9.88c0.81-1.46,3.03-5.42,5.57-10.41c4.76,8.58,4.72,10.37,5.86,9.77
		c1.15-0.6-0.33-1.55-5.09-11.32c1.23-2.47,2.44-4.98,3.43-7.46c2.75,4.84,9.3,17.45,6.59,22.28c-3.3,5.89-9.89,1.28-9.89,1.28
		S800.66,311.84,795.88,314.83z M881.75,380.7c-0.42-0.12-0.69-0.22-0.69-0.22c5.42,3.98,6.24,16.28-0.82,14.29
		c-0.7-0.2-1.19-0.45-1.19-0.45s4.95,4.68,1.82,10.22c-2.71,4.81-6.34,0.28-7.51-0.05c-1.35-0.38,0.89,7.21-5.44,7.69
		c-5.29,0.4-2.95-8.67-3-8.83c-12.67,1.61-3.8-10.12-3.83-10.32c-0.13-0.04-3.47,1.21-4.22-3.38c-0.74-4.59,6.02-11.93,6.02-11.93
		c-0.13-0.04-4.51,0.44-4.49-4.08c0.02-3.89,9.49-13.54,12.19-16.2c0.29,4.86,0.29,8.72,0.13,13.65c-4.47,4.36-6.24,4.88-5.41,5.81
		c0.83,0.92,1.62-0.83,5.35-3.88c-0.29,6.76-0.42,4.34-1.73,17.79c-0.33,0.16,0.54-0.49-5.18,4.46c-0.29,0.25-0.32,0.69-0.07,0.98
		c0.82,0.92,1.62-0.79,5.03-3.47l-0.86,7.86c-0.11,0.98,1.36,1.15,1.49,0.18l2.12-16.23c5.75,4.06,6.58,5.72,7.34,4.71
		c0.79-1.04-1.22-1.49-7.14-6.3l0.56-4.29l-0.03,0.15c0.36-1.75,0.66-7.82,0.74-9.67c2,0.85,5.73,4,8.17,6.39
		c0.66,0.65,1.63-0.35,0.97-1c-1.09-1.07-6.1-5.85-9.09-6.83c0.13-4.2,0.11-7.24,0-10.13C887.3,365.7,893.45,383.99,881.75,380.7z
		 M897.21,384.83c3.14-1.4,7.72-4.78,10.52-8.22C921.63,390.34,903.17,399.78,897.21,384.83z M907.55,373.3
		c-2.47,4.71-10.8,10.2-12.71,10.21C886.23,373.06,896.88,358.87,907.55,373.3z M892.76,367.45c-1.72,1.64-2.66,3.75-2.97,6.15
		c-2.13-6.8-9.51-15.11-16.93-18.77c-0.32-5.23-0.84-8.04-1.46-10.51C879.61,351.56,887.58,360.34,892.76,367.45z M903.74,340.98
		c2.64,5.3,2.98,14.46,3.02,17.31C888.93,360.39,889.62,342.33,903.74,340.98z M908.74,356.37c-0.13-3.38-0.6-9.12-2.16-13.75
		c5.96-1.09,13.37-2.97,16.65,2.21C927.44,351.49,917.3,357.33,908.74,356.37z"/>
	<path d="M823.69,449.69c0,0-0.12-0.13-0.33-0.34C823.56,449.56,823.69,449.69,823.69,449.69z"/>
	<path d="M678.37,503.98c-0.16-0.25-0.27-0.39-0.27-0.39S678.2,503.74,678.37,503.98z"/>
</g>
</svg>
