<?xml version="1.0" encoding="utf-8"?>
<!-- Generator: Adobe Illustrator 23.0.1, SVG Export Plug-In . SVG Version: 6.00 Build 0)  -->
<svg version="1.1" id="Layer_1" xmlns="http://www.w3.org/2000/svg" xmlns:xlink="http://www.w3.org/1999/xlink" x="0px" y="0px"
	 viewBox="0 0 1366 768" style="enable-background:new 0 0 1366 768;" xml:space="preserve">
<g>
	<g>
		<path d="M801.77,352.63c2.29-1.34,5.94-1.91,8.58-2.1c0.02,0,0.04-0.02,0.04-0.04c0-0.02-0.02-0.03-0.04-0.04
			c-2.27-0.12-6.35,0.03-8.28,1.25c0.89-3.02,0.34-4.63,4.59-10.01c2.76,0.82,6.64-1.53,8.9-3.29c0.02-0.01,0.02-0.04,0.01-0.05
			c-0.01-0.02-0.03-0.02-0.05-0.01c-2.73,1.6-5.48,2.69-8.63,3.05c2.31-2.88,4.88-5.57,7.47-7.95c0.03-0.03,0.04-0.08,0.01-0.11
			c-0.03-0.03-0.07-0.03-0.1-0.01c-3.3,2.64-6.82,5.9-9.53,9.34c0.03-2.29,1.07-5.35,1.95-7.45c0.44-0.99-3.57,5.3-2.26,7.84
			c-1.18,1.55-2.24,3.25-2.83,5.13c-0.46-1.92-1.6-4.28-2.71-6.08c-0.43-0.71,1.36,2.6,2.24,7.67c-0.87,3.12-3.31,8.47-5.8,14.39
			c-0.29-1.89-3.46-24.42,6.26-29.68c10.15-5.49,14.22-6.98,19.33-13.51c0,0-0.65,5.74-1.7,19.03c-1,12.68-21.84,23.3-23.72,24.23
			C797.95,361.06,800.46,356.68,801.77,352.63z"/>
		<path d="M790.45,322.98c1.45-1.36,4.03-2.37,5.93-2.94c0.01,0,0.02-0.02,0.02-0.03c0-0.01-0.02-0.02-0.03-0.02
			c-1.68,0.29-4.64,1.06-5.85,2.27c0.15-2.35-0.51-3.44,1.71-8.07c2.15,0.15,4.61-2.2,5.97-3.86c0.01-0.01,0.01-0.03,0-0.04
			c-0.01-0.01-0.03-0.01-0.04,0c-1.73,1.62-3.57,2.86-5.81,3.65c1.21-2.49,2.65-4.88,4.16-7.04c0.02-0.03,0.01-0.06-0.01-0.08
			c-0.02-0.02-0.06-0.01-0.08,0.01c-1.98,2.47-4.02,5.43-5.44,8.39c-0.35-1.68-0.1-4.09,0.2-5.77c0.16-0.79-1.74,4.46-0.37,6.1
			c-0.61,1.33-1.1,2.74-1.23,4.21c-0.65-1.33-1.88-2.87-2.98-4c-0.43-0.45,1.42,1.68,2.9,5.24c-0.13,2.42-1.03,6.73-1.88,11.47
			c-0.52-1.34-6.53-17.29-0.29-22.73c6.52-5.68,9.25-7.44,11.92-13.05c0,0,0.46,4.31,1.87,14.19c1.35,9.44-12.15,20.62-13.37,21.61
			C789.04,329.77,790.15,326.16,790.45,322.98z"/>
		<path d="M729.53,467.92c2.29-2.86,6.73-5.39,10.03-6.93c0.03-0.01,0.04-0.04,0.03-0.07c-0.01-0.02-0.04-0.04-0.06-0.03
			c-2.98,0.96-8.18,3.16-10.07,5.68c-0.34-4.33-1.83-6.14,0.99-15.17c3.97-0.3,7.82-5.24,9.87-8.63c0.02-0.02,0.01-0.06-0.02-0.07
			c-0.02-0.01-0.05-0.01-0.07,0.01c-2.73,3.41-5.75,6.17-9.63,8.19c1.56-4.86,3.55-9.6,5.73-13.93c0.03-0.05,0.01-0.11-0.04-0.14
			c-0.05-0.03-0.11-0.01-0.14,0.04c-2.96,5.03-5.9,10.97-7.71,16.74c-1.09-2.96-1.26-7.43-1.15-10.58c0.09-1.49-2,8.59,0.94,11.23
			c-0.76,2.58-1.29,5.29-1.13,8.01c-1.54-2.26-4.18-4.74-6.49-6.52c-0.91-0.7,3.03,2.69,6.67,8.8c0.41,4.45-0.1,12.56-0.4,21.42
			c-1.3-2.3-16.49-29.81-6.53-41.38c10.39-12.08,14.91-16.02,18.29-26.96c0,0,1.98,7.73,7.17,25.39
			c4.95,16.86-16.71,40.83-18.67,42.95C728.75,480.67,729.84,473.78,729.53,467.92z"/>
		<path d="M765.03,444.49c1.65-2.5,5.07-4.89,7.64-6.39c0.02-0.01,0.03-0.04,0.02-0.06c-0.01-0.02-0.04-0.03-0.06-0.02
			c-2.35,1.01-6.41,3.18-7.76,5.38c-0.6-3.49-1.95-4.85-0.33-12.41c3.21-0.54,5.97-4.85,7.39-7.76c0.01-0.02,0-0.05-0.02-0.06
			c-0.02-0.01-0.04,0-0.06,0.02c-1.97,2.98-4.21,5.45-7.22,7.38c0.9-4.07,2.17-8.07,3.62-11.76c0.02-0.04,0-0.09-0.04-0.11
			c-0.04-0.02-0.09,0-0.11,0.04c-2.03,4.32-3.98,9.36-5.01,14.19c-1.1-2.33-1.58-5.95-1.73-8.52c-0.04-1.22-0.98,7.14,1.6,9.06
			c-0.42,2.16-0.65,4.4-0.32,6.6c-1.42-1.72-3.76-3.54-5.77-4.81c-0.79-0.5,2.67,1.96,6.09,6.66c0.67,3.59,0.86,10.22,1.28,17.46
			c-1.23-1.77-15.64-23.01-8.42-33.17c7.55-10.61,10.93-14.14,12.86-23.3c0,0,2.19,6.14,7.73,20.12
			c5.29,13.35-10.54,34.46-11.97,36.33C765.35,454.92,765.71,449.24,765.03,444.49z"/>
		<path d="M786.86,413.68c2.39-2.64,6.86-4.84,10.16-6.14c0.03-0.01,0.04-0.04,0.03-0.06c-0.01-0.03-0.04-0.04-0.06-0.03
			c-2.95,0.76-8.13,2.58-10.12,4.92c-0.08-4.22-1.42-6.07,1.86-14.68c3.87-0.05,7.91-4.63,10.1-7.79c0.02-0.02,0.01-0.06-0.01-0.07
			c-0.02-0.01-0.05-0.01-0.07,0.01c-2.86,3.15-5.95,5.65-9.84,7.38c1.8-4.62,4.02-9.11,6.39-13.19c0.03-0.05,0.01-0.11-0.04-0.14
			c-0.04-0.03-0.11-0.01-0.14,0.03c-3.17,4.71-6.38,10.31-8.48,15.8c-0.88-2.94-0.78-7.29-0.49-10.34
			c0.17-1.44-2.45,8.23,0.24,10.96c-0.89,2.47-1.56,5.06-1.57,7.71c-1.36-2.28-3.78-4.85-5.92-6.71c-0.84-0.73,2.78,2.79,5.96,8.94
			c0.14,4.35-0.84,12.19-1.66,20.79c-1.13-2.31-14.25-29.93-3.89-40.58c10.81-11.12,15.44-14.67,19.37-25.1
			c0,0,1.47,7.63,5.45,25.09c3.81,16.67-18.66,38.66-20.68,40.61C785.35,426.03,786.81,419.4,786.86,413.68z"/>
		<path d="M785.51,356.35c-1.06-2.11-1.34-5.4-1.35-7.76c0-0.02-0.01-0.03-0.03-0.04c-0.02,0-0.03,0.01-0.04,0.03
			c-0.24,2.01-0.36,5.65,0.6,7.44c-2.63-0.97-4.09-0.59-8.62-4.69c0.9-2.41-0.95-6-2.38-8.12c-0.01-0.02-0.03-0.02-0.05-0.01
			c-0.01,0.01-0.02,0.03-0.01,0.04c1.26,2.53,2.06,5.04,2.19,7.86c-2.42-2.23-4.66-4.68-6.61-7.13c-0.02-0.03-0.06-0.04-0.09-0.01
			c-0.03,0.02-0.03,0.06-0.01,0.09c2.15,3.1,4.83,6.43,7.72,9.05c-2.03-0.17-4.69-1.28-6.51-2.19c-0.85-0.46,4.49,3.5,6.83,2.49
			c1.31,1.15,2.75,2.19,4.39,2.83c-1.74,0.29-3.91,1.17-5.57,2.04c-0.65,0.34,2.4-1.05,6.96-1.53c2.72,0.96,7.33,3.46,12.44,6.04
			c-1.7,0.14-21.93,1.59-26.01-7.38c-4.26-9.36-5.34-13.08-10.84-18.02c0,0,5.07,0.93,16.82,2.68c11.22,1.67,19.39,20.85,20.1,22.57
			C792.78,360.26,789.03,357.76,785.51,356.35z"/>
		<path d="M777.64,328.61c-1.43-1.78-2.36-4.83-2.84-7.05c0-0.02-0.02-0.03-0.04-0.03c-0.02,0-0.03,0.02-0.03,0.04
			c0.18,1.94,0.8,5.4,2.08,6.9c-2.68-0.38-3.98,0.28-9.08-2.68c0.36-2.45-2.11-5.47-3.89-7.18c-0.01-0.01-0.03-0.01-0.05,0
			c-0.01,0.01-0.01,0.03,0,0.04c1.7,2.13,2.96,4.34,3.66,6.97c-2.74-1.61-5.35-3.47-7.68-5.39c-0.03-0.02-0.07-0.02-0.09,0.01
			c-0.02,0.03-0.02,0.07,0,0.09c2.65,2.49,5.86,5.09,9.12,6.97c-1.95,0.25-4.69-0.25-6.58-0.75c-0.9-0.26,4.95,2.39,6.95,0.96
			c1.47,0.81,3.04,1.5,4.71,1.78c-1.58,0.63-3.45,1.89-4.85,3.05c-0.55,0.46,2.05-1.48,6.26-2.85c2.76,0.36,7.62,1.78,12.97,3.17
			c-1.58,0.48-20.37,5.95-26.04-1.69c-5.92-7.97-7.7-11.25-13.88-14.8c0,0,4.97-0.15,16.41-0.88c10.92-0.7,22.53,15.74,23.55,17.22
			C785.28,330.83,781.24,329.23,777.64,328.61z"/>
		<path d="M764.9,303.14c-1.23-1.54-2.04-4.18-2.46-6.1c0-0.02-0.02-0.03-0.03-0.02c-0.01,0-0.02,0.02-0.02,0.03
			c0.15,1.68,0.69,4.68,1.8,5.97c-2.32-0.33-3.45,0.24-7.87-2.32c0.31-2.13-1.83-4.74-3.37-6.22c-0.01-0.01-0.03-0.01-0.04,0
			c-0.01,0.01-0.01,0.03,0,0.04c1.47,1.84,2.56,3.75,3.17,6.04c-2.37-1.39-4.63-3-6.65-4.67c-0.02-0.02-0.06-0.02-0.08,0.01
			c-0.02,0.02-0.02,0.06,0,0.08c2.3,2.16,5.07,4.41,7.9,6.04c-1.69,0.22-4.06-0.22-5.7-0.65c-0.78-0.22,4.29,2.07,6.02,0.83
			c1.27,0.71,2.63,1.3,4.08,1.54c-1.37,0.54-2.99,1.64-4.2,2.64c-0.47,0.4,1.77-1.28,5.42-2.47c2.39,0.31,6.6,1.54,11.23,2.75
			c-1.37,0.41-17.64,5.15-22.55-1.46c-5.13-6.9-6.66-9.75-12.02-12.82c0,0,4.31-0.13,14.21-0.77c9.46-0.61,19.51,13.63,20.39,14.91
			C771.53,305.06,768.03,303.67,764.9,303.14z"/>
		<path d="M774.49,296.83c1.07-1.66,3.31-3.27,4.99-4.29c0.01-0.01,0.02-0.02,0.01-0.04c-0.01-0.01-0.02-0.02-0.04-0.01
			c-1.54,0.68-4.21,2.16-5.08,3.62c-0.43-2.3-1.33-3.19-0.32-8.2c2.11-0.38,3.9-3.25,4.81-5.18c0-0.01,0-0.03-0.01-0.04
			c-0.01-0.01-0.03,0-0.04,0.01c-1.28,1.99-2.74,3.63-4.71,4.93c0.56-2.69,1.36-5.35,2.29-7.8c0.01-0.03,0-0.06-0.03-0.07
			c-0.03-0.01-0.06,0-0.07,0.03c-1.31,2.87-2.55,6.22-3.19,9.42c-0.75-1.53-1.09-3.92-1.21-5.61c-0.04-0.81-0.59,4.72,1.13,5.97
			c-0.26,1.43-0.39,2.91-0.15,4.36c-0.95-1.12-2.51-2.31-3.85-3.13c-0.52-0.32,1.78,1.27,4.08,4.34c0.47,2.36,0.65,6.74,0.99,11.52
			c-0.83-1.16-10.52-15.06-5.83-21.83c4.89-7.07,7.1-9.43,8.3-15.49c0,0,1.5,4.04,5.27,13.22c3.6,8.77-6.67,22.85-7.6,24.09
			C774.79,303.72,774.99,299.96,774.49,296.83z"/>
		<path d="M762.67,287.61c0.11-1.58,1.06-3.58,1.86-4.95c0.01-0.01,0-0.02-0.01-0.03c-0.01-0.01-0.02,0-0.03,0.01
			c-0.82,1.08-2.13,3.15-2.18,4.52c-1.19-1.46-2.17-1.73-3.4-5.65c1.34-1.09,1.49-3.8,1.38-5.52c0-0.01-0.01-0.02-0.02-0.02
			c-0.01,0-0.02,0.01-0.02,0.02c-0.13,1.89-0.52,3.62-1.4,5.3c-0.65-2.11-1.11-4.29-1.41-6.38c0-0.02-0.03-0.04-0.05-0.04
			c-0.02,0-0.04,0.02-0.04,0.05c0.19,2.52,0.62,5.37,1.4,7.87c-1.12-0.79-2.29-2.33-3.03-3.48c-0.34-0.55,1.42,3.55,3.11,3.76
			c0.37,1.11,0.85,2.2,1.58,3.13c-1.11-0.42-2.66-0.65-3.92-0.71c-0.5-0.02,1.75,0.21,4.55,1.48c1.25,1.48,3.07,4.5,5.16,7.73
			c-1.03-0.5-13.25-6.53-12.57-13.11c0.71-6.87,1.35-9.39-0.16-14.13c0,0,2.62,2.26,8.84,7.27c5.94,4.78,4.15,18.67,3.98,19.91
			C765.55,292.35,764.23,289.63,762.67,287.61z"/>
		<path d="M760.71,483.74c2.37,3.13,3.83,8.41,4.57,12.25c0,0.03,0.04,0.05,0.06,0.05c0.03,0,0.05-0.03,0.05-0.06
			c-0.22-3.35-1.13-9.33-3.26-11.96c4.59,0.78,6.86-0.29,15.5,5.02c-0.73,4.2,3.39,9.51,6.37,12.53c0.02,0.02,0.06,0.02,0.08,0
			c0.02-0.02,0.02-0.05,0-0.08c-2.83-3.74-4.9-7.59-5.98-12.15c4.64,2.89,9.04,6.21,12.97,9.62c0.05,0.04,0.12,0.04,0.16-0.01
			c0.04-0.04,0.04-0.11,0-0.16c-4.45-4.4-9.85-9.02-15.37-12.41c3.37-0.35,8.05,0.65,11.29,1.58c1.53,0.48-8.4-4.33-11.91-1.98
			c-2.49-1.47-5.16-2.73-8.03-3.28c2.75-1.01,6.02-3.1,8.48-5.03c0.96-0.76-3.59,2.45-10.9,4.62c-4.73-0.74-13.02-3.41-22.16-6.05
			c2.73-0.75,35.31-9.3,44.72,4.08c9.83,13.97,12.72,19.71,23.21,26.1c0,0-8.56,0.03-28.27,0.78c-18.82,0.71-38.03-28.1-39.72-30.69
			C747.65,479.58,754.53,482.52,760.71,483.74z"/>
		<path d="M784.83,449.21c4.08,0.64,9.05,3.58,12.41,5.96c0.02,0.02,0.06,0.01,0.08-0.01c0.02-0.02,0.01-0.06-0.01-0.08
			c-2.61-2.39-7.67-6.25-11.21-6.7c4.05-2.75,4.99-5.23,15.43-7.51c2.51,3.73,9.51,4.74,13.98,4.86c0.03,0,0.06-0.03,0.06-0.06
			c0-0.03-0.03-0.06-0.05-0.06c-4.88-0.77-9.26-2.19-13.41-4.87c5.63-1.19,11.4-1.88,16.87-2.17c0.07,0,0.12-0.06,0.12-0.12
			c0-0.06-0.06-0.11-0.12-0.11c-6.59-0.09-14.06,0.34-20.73,1.8c2.3-2.72,6.59-5.39,9.73-7.04c1.51-0.75-9.54,2.85-10.48,7.19
			c-2.96,0.7-5.91,1.7-8.49,3.37c1.35-2.77,2.31-6.75,2.76-10.01c0.18-1.28-0.94,4.48-4.9,11.46c-4.13,2.89-12.37,6.92-21.24,11.58
			c1.53-2.56,20.01-32.83,36.93-29.54c17.66,3.44,24.04,5.67,36.67,2.87c0,0-6.48,6.27-20.9,21.23
			c-13.77,14.28-49.39,6.43-52.56,5.7C771.88,455.58,779.24,452.79,784.83,449.21z"/>
		<path d="M772.48,305h0.84c16.33,22.04,23.84,48.65,23.12,75.02c-0.73,0.48-1.19,1.53-1.73,2.61
			C796.33,355.56,789.18,327.88,772.48,305z"/>
		<path d="M688.15,489.67c0,0,16.69,2.02,30.41-2.24l-0.09,0.05c1.38-0.51,2.8-1.05,4.3-1.66c28.03-11.37,48.14-31.04,59.95-55.9
			c0.79,3.08,1.45-1.29,2.58-1.29c-15.97,35.38-48.76,63.53-96.41,69C688.89,497.62,692.23,491.1,688.15,489.67z"/>
		<path d="M803.86,419.42c3.5,3.1,9.55,2.47,13.43,1.15c0.52-0.18-5.09,1.74-13.3-1.26c4.24-3.83,8.42-7.72,12.49-11.73
			c0.03-0.03,0.03-0.09,0-0.12c-0.03-0.03-0.08-0.03-0.12,0c-2.59,2.26-5.21,4.49-7.84,6.71c0.94-2.72-0.61-8.03-1.58-10.73
			c-0.45-1.27,1.74,7.35,0.94,11.28c-15.17,12.77-22.69,18.06-26.24,20.26c0.8-1.46,1.58-2.58,1.9-3.38
			c3.39-3.35,19.53-19.35,21.65-33.8c2.86-1.07,8.58-0.99,21.01-6.95c-2.58,18.73,1.9,27.67-11.14,37.96
			c-9.06-1.76-13.83-3.78-20.52-1.37C797.2,425.28,800.29,422.65,803.86,419.42z"/>
		<path d="M805.99,377.56c0,4.7,3.81,8.5,8.5,8.5s8.5-3.81,8.5-8.5s-3.81-8.5-8.5-8.5S805.99,372.86,805.99,377.56z"/>
		<path d="M778.2,306.26c0,2.3,1.86,4.16,4.16,4.16c2.3,0,4.16-1.86,4.16-4.16c0-2.3-1.86-4.16-4.16-4.16
			C780.06,302.11,778.2,303.97,778.2,306.26z"/>
		<path d="M780.36,339.18c0,2.3,1.86,4.16,4.16,4.16c2.3,0,4.16-1.86,4.16-4.16c0-2.3-1.86-4.16-4.16-4.16
			C782.22,335.02,780.36,336.88,780.36,339.18z"/>
		<g>
			<path d="M802.28,394.03c4.09-1.17,6.93-3.2,8.43-6.04c2.06-3.89,0.79-7.84,0.73-8l-1.63,0.54c0.01,0.03,1.09,3.44-0.63,6.68
				c-1.27,2.4-3.75,4.14-7.37,5.17L802.28,394.03z"/>
		</g>
	</g>
	<g>
		<path d="M563.29,352.63c-2.29-1.34-5.94-1.91-8.58-2.1c-0.02,0-0.04-0.02-0.04-0.04c0-0.02,0.02-0.03,0.04-0.04
			c2.26-0.12,6.35,0.03,8.28,1.25c-0.88-3.02-0.34-4.63-4.59-10.01c-2.76,0.82-6.64-1.53-8.91-3.29c-0.02-0.01-0.02-0.04-0.01-0.05
			c0.01-0.02,0.04-0.02,0.05-0.01c2.73,1.6,5.48,2.69,8.63,3.05c-2.31-2.88-4.88-5.57-7.47-7.95c-0.03-0.03-0.04-0.08-0.01-0.11
			c0.03-0.03,0.07-0.03,0.1-0.01c3.3,2.64,6.82,5.9,9.53,9.34c-0.03-2.29-1.07-5.35-1.95-7.45c-0.44-0.99,3.57,5.3,2.26,7.84
			c1.18,1.55,2.23,3.25,2.83,5.13c0.46-1.92,1.6-4.28,2.71-6.08c0.43-0.71-1.36,2.6-2.24,7.67c0.87,3.12,3.31,8.47,5.8,14.39
			c0.29-1.89,3.46-24.42-6.26-29.68c-10.15-5.49-14.22-6.98-19.33-13.51c0,0,0.65,5.74,1.71,19.03c1,12.68,21.84,23.3,23.72,24.23
			C567.11,361.06,564.6,356.68,563.29,352.63z"/>
		<path d="M574.61,322.98c-1.45-1.36-4.03-2.37-5.93-2.94c-0.01,0-0.02-0.02-0.02-0.03c0-0.01,0.02-0.02,0.03-0.02
			c1.67,0.29,4.64,1.06,5.85,2.27c-0.15-2.35,0.51-3.44-1.71-8.07c-2.16,0.15-4.61-2.2-5.97-3.86c-0.01-0.01-0.01-0.03,0-0.04
			c0.01-0.01,0.03-0.01,0.04,0c1.74,1.62,3.57,2.86,5.81,3.65c-1.21-2.49-2.65-4.88-4.16-7.04c-0.02-0.03-0.01-0.06,0.01-0.08
			c0.02-0.02,0.06-0.01,0.08,0.01c1.98,2.47,4.02,5.43,5.44,8.39c0.35-1.68,0.1-4.09-0.2-5.77c-0.16-0.79,1.74,4.46,0.37,6.1
			c0.61,1.33,1.1,2.74,1.23,4.21c0.65-1.33,1.88-2.87,2.98-4c0.43-0.45-1.42,1.68-2.9,5.24c0.12,2.42,1.03,6.73,1.88,11.47
			c0.52-1.34,6.53-17.29,0.29-22.73c-6.52-5.68-9.25-7.44-11.92-13.05c0,0-0.46,4.31-1.87,14.19c-1.35,9.44,12.15,20.62,13.37,21.61
			C576.02,329.77,574.91,326.16,574.61,322.98z"/>
		<path d="M635.53,467.92c-2.29-2.86-6.73-5.39-10.03-6.93c-0.03-0.01-0.04-0.04-0.03-0.07c0.01-0.02,0.04-0.04,0.06-0.03
			c2.98,0.96,8.18,3.16,10.07,5.68c0.34-4.33,1.83-6.14-0.99-15.17c-3.97-0.3-7.82-5.24-9.87-8.63c-0.02-0.02-0.01-0.06,0.02-0.07
			c0.02-0.01,0.05-0.01,0.07,0.01c2.73,3.41,5.75,6.17,9.63,8.19c-1.56-4.86-3.55-9.6-5.73-13.93c-0.03-0.05-0.01-0.11,0.04-0.14
			c0.05-0.03,0.11-0.01,0.14,0.04c2.96,5.03,5.9,10.97,7.7,16.74c1.09-2.96,1.26-7.43,1.15-10.58c-0.09-1.49,2,8.59-0.94,11.23
			c0.76,2.58,1.29,5.29,1.13,8.01c1.54-2.26,4.18-4.74,6.49-6.52c0.91-0.7-3.03,2.69-6.67,8.8c-0.41,4.45,0.1,12.56,0.4,21.42
			c1.3-2.3,16.49-29.81,6.54-41.38c-10.39-12.08-14.92-16.02-18.3-26.96c0,0-1.99,7.73-7.17,25.39
			c-4.95,16.86,16.71,40.83,18.67,42.95C636.3,480.67,635.22,473.78,635.53,467.92z"/>
		<path d="M600.03,444.49c-1.65-2.5-5.07-4.89-7.64-6.39c-0.02-0.01-0.03-0.04-0.02-0.06c0.01-0.02,0.04-0.03,0.06-0.02
			c2.35,1.01,6.42,3.18,7.77,5.38c0.6-3.49,1.95-4.85,0.33-12.41c-3.21-0.54-5.97-4.85-7.39-7.76c-0.01-0.02,0-0.05,0.02-0.06
			c0.02-0.01,0.04,0,0.05,0.02c1.97,2.98,4.21,5.45,7.22,7.38c-0.9-4.07-2.17-8.07-3.62-11.76c-0.02-0.04,0-0.09,0.04-0.11
			c0.04-0.02,0.09,0,0.11,0.04c2.03,4.32,3.98,9.36,5.01,14.19c1.11-2.33,1.58-5.95,1.73-8.52c0.04-1.22,0.98,7.14-1.61,9.06
			c0.43,2.16,0.65,4.4,0.32,6.6c1.42-1.72,3.76-3.54,5.77-4.81c0.79-0.5-2.67,1.96-6.09,6.66c-0.67,3.59-0.86,10.22-1.28,17.46
			c1.23-1.77,15.64-23.01,8.41-33.17c-7.55-10.61-10.93-14.14-12.86-23.3c0,0-2.19,6.14-7.73,20.12
			c-5.29,13.35,10.54,34.46,11.97,36.33C599.71,454.92,599.35,449.24,600.03,444.49z"/>
		<path d="M578.19,413.68c-2.39-2.64-6.85-4.84-10.16-6.14c-0.03-0.01-0.04-0.04-0.03-0.06c0.01-0.03,0.04-0.04,0.06-0.03
			c2.95,0.76,8.13,2.58,10.12,4.92c0.08-4.22,1.42-6.07-1.86-14.68c-3.87-0.05-7.91-4.63-10.1-7.79c-0.02-0.02-0.01-0.06,0.01-0.07
			c0.02-0.01,0.05-0.01,0.07,0.01c2.86,3.15,5.95,5.65,9.84,7.38c-1.8-4.62-4.02-9.11-6.39-13.19c-0.03-0.05-0.01-0.11,0.03-0.14
			c0.04-0.03,0.11-0.01,0.14,0.03c3.18,4.71,6.38,10.31,8.48,15.8c0.88-2.94,0.78-7.29,0.49-10.34c-0.17-1.44,2.45,8.23-0.25,10.96
			c0.89,2.47,1.56,5.06,1.57,7.71c1.36-2.28,3.78-4.85,5.92-6.71c0.84-0.73-2.79,2.79-5.96,8.94c-0.14,4.35,0.84,12.19,1.66,20.79
			c1.13-2.31,14.25-29.93,3.89-40.58c-10.81-11.12-15.44-14.67-19.37-25.1c0,0-1.47,7.63-5.45,25.09
			c-3.81,16.67,18.66,38.66,20.68,40.61C579.7,426.03,578.25,419.4,578.19,413.68z"/>
		<path d="M579.54,356.35c1.05-2.11,1.34-5.4,1.34-7.76c0-0.02,0.01-0.03,0.03-0.04c0.02,0,0.03,0.01,0.04,0.03
			c0.24,2.01,0.36,5.65-0.6,7.44c2.63-0.97,4.09-0.59,8.62-4.69c-0.9-2.41,0.95-6,2.38-8.12c0.01-0.02,0.03-0.02,0.05-0.01
			c0.01,0.01,0.02,0.03,0.01,0.04c-1.26,2.53-2.06,5.04-2.19,7.86c2.42-2.23,4.66-4.68,6.61-7.13c0.02-0.03,0.07-0.04,0.09-0.01
			c0.03,0.02,0.04,0.06,0.01,0.09c-2.15,3.1-4.83,6.43-7.72,9.05c2.03-0.17,4.69-1.28,6.51-2.19c0.85-0.46-4.49,3.5-6.83,2.49
			c-1.31,1.15-2.75,2.19-4.39,2.83c1.74,0.29,3.91,1.17,5.57,2.04c0.66,0.34-2.4-1.05-6.96-1.53c-2.72,0.96-7.33,3.46-12.44,6.04
			c1.7,0.14,21.93,1.59,26.01-7.38c4.26-9.36,5.34-13.08,10.84-18.02c0,0-5.07,0.93-16.82,2.68c-11.22,1.67-19.39,20.85-20.1,22.57
			C572.28,360.26,576.02,357.76,579.54,356.35z"/>
		<path d="M587.42,328.61c1.43-1.78,2.36-4.83,2.84-7.05c0-0.02,0.02-0.03,0.04-0.03c0.02,0,0.03,0.02,0.03,0.04
			c-0.18,1.94-0.8,5.4-2.08,6.9c2.68-0.38,3.98,0.28,9.08-2.68c-0.36-2.45,2.11-5.47,3.89-7.18c0.01-0.01,0.03-0.01,0.04,0
			c0.01,0.01,0.01,0.03,0,0.04c-1.7,2.13-2.96,4.34-3.66,6.97c2.74-1.61,5.35-3.47,7.68-5.39c0.03-0.02,0.07-0.02,0.09,0.01
			c0.02,0.03,0.02,0.07,0,0.09c-2.65,2.49-5.86,5.09-9.12,6.97c1.95,0.25,4.69-0.25,6.59-0.75c0.89-0.26-4.95,2.39-6.95,0.96
			c-1.47,0.81-3.04,1.5-4.71,1.78c1.58,0.63,3.45,1.89,4.85,3.05c0.55,0.46-2.05-1.48-6.26-2.85c-2.76,0.36-7.62,1.78-12.97,3.17
			c1.58,0.48,20.37,5.95,26.04-1.69c5.92-7.97,7.69-11.25,13.88-14.8c0,0-4.97-0.15-16.41-0.88c-10.92-0.7-22.53,15.74-23.55,17.22
			C579.77,330.83,583.81,329.23,587.42,328.61z"/>
		<path d="M600.15,303.14c1.23-1.54,2.04-4.18,2.46-6.1c0-0.02,0.02-0.03,0.03-0.02c0.01,0,0.02,0.02,0.02,0.03
			c-0.15,1.68-0.7,4.68-1.8,5.97c2.32-0.33,3.45,0.24,7.87-2.32c-0.31-2.13,1.83-4.74,3.37-6.22c0.01-0.01,0.03-0.01,0.04,0
			c0.01,0.01,0.01,0.03,0,0.04c-1.47,1.84-2.56,3.75-3.17,6.04c2.37-1.39,4.63-3,6.66-4.67c0.02-0.02,0.06-0.02,0.08,0.01
			c0.02,0.02,0.02,0.06,0,0.08c-2.3,2.16-5.08,4.41-7.9,6.04c1.69,0.22,4.06-0.22,5.7-0.65c0.78-0.22-4.28,2.07-6.02,0.83
			c-1.27,0.71-2.63,1.3-4.08,1.54c1.37,0.54,2.99,1.64,4.2,2.64c0.48,0.4-1.77-1.28-5.42-2.47c-2.39,0.31-6.6,1.54-11.23,2.75
			c1.37,0.41,17.64,5.15,22.55-1.46c5.13-6.9,6.66-9.75,12.02-12.82c0,0-4.31-0.13-14.21-0.77c-9.46-0.61-19.51,13.63-20.39,14.91
			C593.53,305.06,597.03,303.67,600.15,303.14z"/>
		<path d="M590.56,296.83c-1.07-1.66-3.31-3.27-4.99-4.29c-0.01-0.01-0.02-0.02-0.01-0.04c0.01-0.01,0.02-0.02,0.04-0.01
			c1.55,0.68,4.21,2.16,5.08,3.62c0.43-2.3,1.33-3.19,0.32-8.2c-2.11-0.38-3.9-3.25-4.81-5.18c-0.01-0.01,0-0.03,0.01-0.04
			c0.01-0.01,0.03,0,0.04,0.01c1.27,1.99,2.73,3.63,4.7,4.93c-0.56-2.69-1.36-5.35-2.29-7.8c-0.01-0.03,0-0.06,0.03-0.07
			c0.03-0.01,0.06,0,0.07,0.03c1.31,2.87,2.55,6.22,3.19,9.42c0.75-1.53,1.09-3.92,1.21-5.61c0.04-0.81,0.59,4.72-1.14,5.97
			c0.26,1.43,0.39,2.91,0.15,4.36c0.95-1.12,2.51-2.31,3.85-3.13c0.52-0.32-1.78,1.27-4.08,4.34c-0.47,2.36-0.65,6.74-0.99,11.52
			c0.83-1.16,10.52-15.06,5.83-21.83c-4.89-7.07-7.1-9.43-8.3-15.49c0,0-1.5,4.04-5.27,13.22c-3.6,8.77,6.67,22.85,7.6,24.09
			C590.26,303.72,590.07,299.96,590.56,296.83z"/>
		<path d="M602.38,287.61c-0.11-1.58-1.06-3.58-1.86-4.95c-0.01-0.01,0-0.02,0.01-0.03c0.01-0.01,0.02,0,0.03,0.01
			c0.82,1.08,2.13,3.15,2.18,4.52c1.19-1.46,2.17-1.73,3.4-5.65c-1.34-1.09-1.49-3.8-1.38-5.52c0-0.01,0.01-0.02,0.02-0.02
			c0.01,0,0.02,0.01,0.02,0.02c0.13,1.89,0.52,3.62,1.4,5.3c0.65-2.11,1.11-4.29,1.41-6.38c0-0.02,0.03-0.04,0.05-0.04
			c0.02,0,0.04,0.02,0.04,0.05c-0.19,2.52-0.61,5.37-1.4,7.87c1.12-0.79,2.29-2.33,3.03-3.48c0.34-0.55-1.42,3.55-3.11,3.76
			c-0.37,1.11-0.85,2.2-1.58,3.13c1.11-0.42,2.66-0.65,3.92-0.71c0.5-0.02-1.75,0.21-4.55,1.48c-1.25,1.48-3.07,4.5-5.16,7.73
			c1.03-0.5,13.25-6.53,12.57-13.11c-0.71-6.87-1.35-9.39,0.16-14.13c0,0-2.62,2.26-8.84,7.27c-5.93,4.78-4.15,18.67-3.98,19.91
			C599.5,292.35,600.82,289.63,602.38,287.61z"/>
		<path d="M604.35,483.74c-2.37,3.13-3.84,8.41-4.57,12.25c0,0.03-0.03,0.05-0.06,0.05c-0.03,0-0.05-0.03-0.05-0.06
			c0.22-3.35,1.13-9.33,3.26-11.96c-4.59,0.78-6.86-0.29-15.5,5.02c0.73,4.2-3.39,9.51-6.37,12.53c-0.02,0.02-0.06,0.02-0.08,0
			c-0.02-0.02-0.02-0.05,0-0.08c2.83-3.74,4.9-7.59,5.98-12.15c-4.64,2.89-9.04,6.21-12.97,9.62c-0.04,0.04-0.12,0.04-0.16-0.01
			c-0.04-0.04-0.04-0.11,0-0.16c4.45-4.4,9.85-9.02,15.37-12.41c-3.37-0.35-8.05,0.65-11.29,1.58c-1.53,0.48,8.4-4.33,11.91-1.98
			c2.49-1.47,5.16-2.73,8.03-3.28c-2.75-1.01-6.02-3.1-8.48-5.03c-0.97-0.76,3.59,2.45,10.89,4.62c4.73-0.74,13.02-3.41,22.16-6.05
			c-2.73-0.75-35.31-9.3-44.72,4.08c-9.83,13.97-12.72,19.71-23.21,26.1c0,0,8.56,0.03,28.27,0.78
			c18.82,0.71,38.03-28.1,39.72-30.69C617.41,479.58,610.53,482.52,604.35,483.74z"/>
		<path d="M580.23,449.21c-4.08,0.64-9.05,3.58-12.41,5.96c-0.02,0.02-0.06,0.01-0.08-0.01c-0.02-0.02-0.01-0.06,0.01-0.08
			c2.61-2.39,7.67-6.25,11.21-6.7c-4.05-2.75-5-5.23-15.43-7.51c-2.51,3.73-9.51,4.74-13.98,4.86c-0.03,0-0.06-0.03-0.06-0.06
			c0-0.03,0.02-0.06,0.05-0.06c4.88-0.77,9.26-2.19,13.41-4.87c-5.63-1.19-11.4-1.88-16.87-2.17c-0.07,0-0.12-0.06-0.11-0.12
			c0-0.06,0.05-0.11,0.12-0.11c6.59-0.09,14.06,0.34,20.73,1.8c-2.3-2.72-6.59-5.39-9.73-7.04c-1.51-0.75,9.54,2.85,10.48,7.19
			c2.96,0.7,5.91,1.7,8.49,3.37c-1.35-2.77-2.31-6.75-2.76-10.01c-0.18-1.28,0.94,4.48,4.9,11.46c4.13,2.89,12.37,6.92,21.24,11.58
			c-1.53-2.56-20.01-32.83-36.93-29.54c-17.66,3.44-24.04,5.67-36.67,2.87c0,0,6.48,6.27,20.9,21.23
			c13.77,14.28,49.39,6.43,52.56,5.7C593.17,455.58,585.81,452.79,580.23,449.21z"/>
		<path d="M592.58,305h-0.84c-16.33,22.04-23.84,48.65-23.12,75.02c0.73,0.48,1.19,1.53,1.73,2.61
			C568.73,355.56,575.87,327.88,592.58,305z"/>
		<path d="M676.91,489.67c0,0-16.69,2.02-30.41-2.24l0.08,0.05c-1.38-0.51-2.8-1.05-4.3-1.66c-28.03-11.37-48.14-31.04-59.95-55.9
			c-0.79,3.08-1.45-1.29-2.58-1.29c15.97,35.38,48.76,63.53,96.41,69C676.17,497.62,672.83,491.1,676.91,489.67z"/>
		<path d="M561.2,419.42c-3.5,3.1-9.55,2.47-13.43,1.15c-0.52-0.18,5.09,1.74,13.3-1.26c-4.24-3.83-8.42-7.72-12.49-11.73
			c-0.04-0.03-0.04-0.09,0-0.12c0.03-0.03,0.08-0.03,0.12,0c2.59,2.26,5.21,4.49,7.84,6.71c-0.94-2.72,0.61-8.03,1.58-10.73
			c0.45-1.27-1.74,7.35-0.94,11.28c15.17,12.77,22.69,18.06,26.23,20.26c-0.8-1.46-1.58-2.58-1.9-3.38
			c-3.39-3.35-19.53-19.35-21.65-33.8c-2.86-1.07-8.58-0.99-21.01-6.95c2.58,18.73-1.9,27.67,11.14,37.96
			c9.06-1.76,13.83-3.78,20.52-1.37C567.86,425.28,564.77,422.65,561.2,419.42z"/>
		<path d="M559.06,377.56c0,4.7-3.81,8.5-8.5,8.5s-8.5-3.81-8.5-8.5s3.81-8.5,8.5-8.5S559.06,372.86,559.06,377.56z"/>
		<path d="M586.86,306.26c0,2.3-1.86,4.16-4.16,4.16c-2.3,0-4.16-1.86-4.16-4.16c0-2.3,1.86-4.16,4.16-4.16
			C584.99,302.11,586.86,303.97,586.86,306.26z"/>
		<path d="M584.69,339.18c0,2.3-1.86,4.16-4.16,4.16c-2.3,0-4.16-1.86-4.16-4.16c0-2.3,1.86-4.16,4.16-4.16
			C582.83,335.02,584.69,336.88,584.69,339.18z"/>
		<g>
			<path d="M562.78,394.03c-4.1-1.17-6.93-3.2-8.43-6.04c-2.06-3.89-0.79-7.84-0.73-8l1.63,0.54c-0.01,0.03-1.09,3.44,0.63,6.68
				c1.27,2.4,3.75,4.14,7.37,5.17L562.78,394.03z"/>
		</g>
	</g>
</g>
</svg>
