<?xml version="1.0" encoding="utf-8"?>
<!-- Generator: Adobe Illustrator 23.0.1, SVG Export Plug-In . SVG Version: 6.00 Build 0)  -->
<svg version="1.1" id="Layer_1" xmlns="http://www.w3.org/2000/svg" xmlns:xlink="http://www.w3.org/1999/xlink" x="0px" y="0px"
	 viewBox="0 0 1366 768" style="enable-background:new 0 0 1366 768;" xml:space="preserve">
<g>
	<g>
		<path d="M689.53,439.24c0,0,13.81,8.17,27.45,9.71l-0.09,0.01c1.4,0.09,2.85,0.15,4.4,0.2c93.24,2.63,154.83-112.84,86.1-190.57
			c78.07,86.35-6.76,222.89-120.26,187.89C687.13,446.47,692.55,442.05,689.53,439.24z"/>
		<path d="M735.9,465.19c5.75-10.98,15.03-18.62,24.91-21.69c3.09,9.87,2.09,21.85-3.67,32.82c-5.75,10.98-15.03,18.62-24.91,21.69
			C729.14,488.15,730.15,476.17,735.9,465.19z"/>
		<path d="M770.89,470.43c-4.4-11.1-4.24-21.81-0.42-30.93c9,3.97,17.02,11.39,21.42,22.49c4.4,11.1,4.24,22.66,0.42,31.78
			C783.3,489.8,775.29,481.52,770.89,470.43z"/>
		<path d="M802.95,456.5c-10.04-5.58-17.02-14.21-19.83-23.21c9.02-2.41,19.97-1.07,30,4.52c10.04,5.58,17.02,14.21,19.84,23.21
			C823.93,463.44,812.99,462.09,802.95,456.5z"/>
		<path d="M766.63,407.6c9.18,6.9,14.93,16.4,16.49,25.7c-9.27,1.17-19.93-1.66-29.11-8.56c-9.18-6.9-14.93-16.4-16.49-25.7
			C746.78,397.87,757.44,400.7,766.63,407.6z"/>
		<path d="M828.76,430.83c-10.53-3.3-18.84-9.96-23.3-17.74c7.95-3.89,18.46-4.66,29-1.37c10.53,3.3,18.83,9.96,23.31,17.74
			C849.81,433.36,839.29,434.13,828.76,430.83z"/>
		<path d="M792.79,388.5c7.71,7.9,11.86,17.7,12.11,26.67c-8.84-0.34-18.47-4.65-26.18-12.54c-7.71-7.9-11.86-17.7-12.11-26.67
			C775.45,376.29,785.08,380.6,792.79,388.5z"/>
		<path d="M846.54,403.49c-10.58,0.51-20.27-2.65-26.88-8.01c5.86-5.97,15.07-10.03,25.65-10.54c10.58-0.51,20.27,2.65,26.88,8.01
			C866.33,398.91,857.12,402.98,846.54,403.49z"/>
		<path d="M809.8,374.19c6.28,6.4,9.68,14.29,9.91,21.47c-7.17-0.36-15-3.9-21.27-10.3c-6.28-6.4-9.68-14.29-9.91-21.47
			C795.7,364.25,803.52,367.79,809.8,374.19z"/>
		<path d="M855.09,365.45c-7.8,5.79-16.68,8.51-24.27,8.08c1.61-7.25,6.68-14.88,14.49-20.67c7.81-5.79,16.68-8.51,24.27-8.08
			C867.96,352.04,862.89,359.66,855.09,365.45z"/>
		<path d="M821.61,351.61c5.84,7,8.91,15.4,8.98,22.87c-6.82-0.78-14.18-4.9-20.03-11.9c-5.84-7-8.91-15.4-8.99-22.87
			C808.4,340.49,815.76,344.61,821.61,351.61z"/>
		<path d="M857.7,335.13c-6.24,6.88-13.97,11.16-21.02,12.29c0.31-6.98,3.73-14.99,9.98-21.87c6.24-6.88,13.97-11.16,21.03-12.29
			C867.37,320.24,863.94,328.25,857.7,335.13z"/>
		<path d="M824.15,328.35c6.67,5.29,11.05,12.33,12.52,19.09c-6.4,0.52-13.93-1.89-20.6-7.18c-6.67-5.29-11.05-12.33-12.52-19.09
			C809.95,320.65,817.48,323.06,824.15,328.35z"/>
		<path d="M852.73,300.19c-4.72,7.51-11.17,12.88-17.44,15.2c-0.7-6.52,1.3-14.57,6.03-22.07c4.73-7.51,11.17-12.88,17.44-15.2
			C859.45,284.64,857.46,292.68,852.73,300.19z"/>
		<path d="M819.95,306.35c6.49,1.36,11.99,4.91,15.33,9.38c-4.31,2.87-10.41,3.99-16.9,2.64c-6.49-1.36-11.99-4.91-15.33-9.37
			C807.35,306.12,813.46,305,819.95,306.35z"/>
		<path d="M842.9,277.63c-2.95,7.93-7.78,14.23-12.98,17.66c-1.72-5.91-1.3-13.78,1.65-21.71c2.95-7.93,7.78-14.22,12.98-17.66
			C846.27,261.83,845.84,269.7,842.9,277.63z"/>
		<path d="M827.69,261.09c-0.47,6.73-2.94,12.67-6.43,16.52c-2.94-4.09-4.56-10.18-4.09-16.91c0.47-6.73,2.94-12.67,6.43-16.52
			C826.53,248.27,828.16,254.36,827.69,261.09z"/>
		<path d="M811.54,247.39c-0.31,4.6-1.95,8.67-4.27,11.3c-1.96-2.8-3.05-6.96-2.74-11.57c0.31-4.6,1.95-8.67,4.27-11.3
			C810.76,238.62,811.85,242.79,811.54,247.39z"/>
		<path d="M795.97,254.42c4.61,0.31,8.67,1.95,11.3,4.27c-2.8,1.96-6.96,3.05-11.57,2.74c-4.61-0.31-8.67-1.95-11.3-4.27
			C787.2,255.2,791.37,254.11,795.97,254.42z"/>
		<path d="M809.42,270.19c4.62,0.54,8.72,2.94,11.4,6.28c-2.76,2.7-6.9,4.15-11.52,3.61c-4.62-0.54-8.72-2.94-11.4-6.28
			C800.65,271.1,804.8,269.65,809.42,270.19z"/>
		<path d="M816.93,286.92c5.15,0.7,9.74,3.72,12.76,7.89c-3.05,3.34-7.67,5.11-12.82,4.41c-5.15-0.7-9.74-3.72-12.76-7.89
			C807.17,288,811.78,286.23,816.93,286.92z"/>
		<path d="M799.39,244.61c3.04,3.47,4.75,7.5,4.97,11.01c-3.36-0.59-7.08-2.77-10.12-6.24c-3.04-3.47-4.75-7.5-4.97-11.01
			C792.64,238.96,796.36,241.14,799.39,244.61z"/>
	</g>
	<g>
		<path d="M728.89,439.24c0,0-13.81,8.17-27.45,9.71l0.09,0.01c-1.4,0.09-2.85,0.15-4.4,0.2c-93.24,2.63-154.83-112.84-86.1-190.57
			c-78.07,86.35,6.76,222.89,120.26,187.89C731.3,446.47,725.88,442.05,728.89,439.24z"/>
		<path d="M682.53,465.19c-5.75-10.98-15.03-18.62-24.91-21.69c-3.09,9.87-2.09,21.85,3.67,32.82
			c5.75,10.98,15.03,18.62,24.91,21.69C689.28,488.15,688.28,476.17,682.53,465.19z"/>
		<path d="M647.54,470.43c4.4-11.1,4.24-21.52,0.42-30.64c-9,3.97-17.02,11.11-21.42,22.21c-4.4,11.1-4.24,22.66-0.42,31.78
			C635.13,489.8,643.14,481.52,647.54,470.43z"/>
		<path d="M615.48,456.5c10.04-5.58,17.02-14.21,19.83-23.21c-9.02-2.41-19.97-1.07-30,4.52c-10.04,5.58-17.02,14.21-19.83,23.21
			C594.49,463.44,605.44,462.09,615.48,456.5z"/>
		<path d="M651.8,407.6c-9.18,6.9-14.93,16.4-16.49,25.7c9.27,1.17,19.93-1.66,29.11-8.56c9.18-6.9,14.93-16.4,16.49-25.7
			C671.65,397.87,660.99,400.7,651.8,407.6z"/>
		<path d="M589.67,430.83c10.53-3.3,18.83-9.96,23.3-17.74c-7.95-3.89-18.46-4.66-29-1.37c-10.53,3.3-18.83,9.96-23.31,17.74
			C568.62,433.36,579.13,434.13,589.67,430.83z"/>
		<path d="M625.64,388.5c-7.71,7.9-11.86,17.7-12.11,26.67c8.84-0.34,18.47-4.65,26.18-12.54c7.71-7.9,11.86-17.7,12.11-26.67
			C642.98,376.29,633.35,380.6,625.64,388.5z"/>
		<path d="M571.89,403.49c10.58,0.51,20.27-2.65,26.88-8.01c-5.86-5.97-15.07-10.03-25.65-10.54c-10.58-0.51-20.27,2.65-26.88,8.01
			C552.09,398.91,561.31,402.98,571.89,403.49z"/>
		<path d="M608.63,374.19c-6.28,6.4-9.68,14.29-9.91,21.47c7.17-0.36,15-3.9,21.28-10.3c6.28-6.4,9.68-14.29,9.91-21.47
			C622.73,364.25,614.91,367.79,608.63,374.19z"/>
		<path d="M563.34,365.45c7.8,5.79,16.68,8.51,24.27,8.08c-1.61-7.25-6.68-14.88-14.49-20.67c-7.81-5.79-16.68-8.51-24.27-8.08
			C550.46,352.04,555.53,359.66,563.34,365.45z"/>
		<path d="M596.82,351.61c-5.84,7-8.91,15.4-8.99,22.87c6.82-0.78,14.18-4.9,20.03-11.9c5.84-7,8.91-15.4,8.98-22.87
			C610.03,340.49,602.66,344.61,596.82,351.61z"/>
		<path d="M560.73,335.13c6.24,6.88,13.97,11.16,21.02,12.29c-0.31-6.98-3.73-14.99-9.98-21.87c-6.24-6.88-13.97-11.16-21.02-12.29
			C551.06,320.24,554.48,328.25,560.73,335.13z"/>
		<path d="M594.27,328.35c-6.67,5.29-11.06,12.33-12.52,19.09c6.4,0.52,13.93-1.89,20.6-7.18c6.67-5.29,11.05-12.33,12.52-19.09
			C608.48,320.65,600.94,323.06,594.27,328.35z"/>
		<path d="M565.7,300.19c4.72,7.51,11.17,12.88,17.44,15.2c0.7-6.52-1.3-14.57-6.03-22.07c-4.73-7.51-11.17-12.88-17.44-15.2
			C558.97,284.64,560.97,292.68,565.7,300.19z"/>
		<path d="M598.48,306.35c-6.49,1.36-11.99,4.91-15.33,9.38c4.31,2.87,10.41,3.99,16.9,2.64c6.49-1.36,11.99-4.91,15.33-9.37
			C611.07,306.12,604.97,305,598.48,306.35z"/>
		<path d="M575.53,277.63c2.95,7.93,7.78,14.23,12.98,17.66c1.72-5.91,1.3-13.78-1.65-21.71c-2.95-7.93-7.78-14.22-12.98-17.66
			C572.16,261.83,572.58,269.7,575.53,277.63z"/>
		<path d="M590.74,261.09c0.47,6.73,2.94,12.67,6.43,16.52c2.94-4.09,4.56-10.18,4.09-16.91c-0.47-6.73-2.94-12.67-6.43-16.52
			C591.9,248.27,590.27,254.36,590.74,261.09z"/>
		<path d="M606.89,247.39c0.31,4.6,1.95,8.67,4.27,11.3c1.96-2.8,3.05-6.96,2.74-11.57c-0.31-4.6-1.95-8.67-4.27-11.3
			C607.67,238.62,606.58,242.79,606.89,247.39z"/>
		<path d="M622.45,254.42c-4.61,0.31-8.67,1.95-11.3,4.27c2.8,1.96,6.96,3.05,11.57,2.74c4.61-0.31,8.67-1.95,11.3-4.27
			C631.23,255.2,627.06,254.11,622.45,254.42z"/>
		<path d="M609.01,270.19c-4.62,0.54-8.72,2.94-11.41,6.28c2.76,2.7,6.9,4.15,11.52,3.61c4.62-0.54,8.72-2.94,11.41-6.28
			C617.78,271.1,613.63,269.65,609.01,270.19z"/>
		<path d="M601.5,286.92c-5.15,0.7-9.74,3.72-12.76,7.89c3.05,3.34,7.67,5.11,12.82,4.41c5.15-0.7,9.74-3.72,12.76-7.89
			C611.26,288,606.65,286.23,601.5,286.92z"/>
		<path d="M619.03,244.61c-3.04,3.47-4.75,7.5-4.97,11.01c3.36-0.59,7.08-2.77,10.12-6.24c3.04-3.47,4.75-7.5,4.97-11.01
			C625.79,238.96,622.07,241.14,619.03,244.61z"/>
	</g>
</g>
</svg>
