<?xml version="1.0" encoding="utf-8"?>
<!-- Generator: Adobe Illustrator 23.0.1, SVG Export Plug-In . SVG Version: 6.00 Build 0)  -->
<svg version="1.1" id="Layer_1" xmlns="http://www.w3.org/2000/svg" xmlns:xlink="http://www.w3.org/1999/xlink" x="0px" y="0px"
	 viewBox="0 0 1366 768" style="enable-background:new 0 0 1366 768;" xml:space="preserve">
<g>
	<g>
		<g>
			<path d="M856.06,274.56c5.06,13.13,7.77,26.98,9.12,40.9c1.28,13.95,1.32,27.99-1.03,41.71c-2.3,13.74-6.61,27.13-12.7,39.63
				c-6.09,12.5-14.11,24.06-23.85,33.87c-9.74,9.8-21.34,17.74-34.12,22.81c-12.8,5.03-26.8,7.19-40.74,9.64
				c-13.96,2.41-28.19,4.92-41.8,10.23c-6.78,2.66-13.35,6.13-19.2,10.68c-5.87,4.53-10.86,10.23-14.63,16.59
				c-0.73,1.22-0.32,2.8,0.9,3.53c1.22,0.72,2.79,0.32,3.52-0.89c3.51-5.8,8.07-10.92,13.47-15.01c5.39-4.12,11.51-7.29,17.95-9.75
				c12.91-4.94,26.85-7.23,40.78-9.67c6.98-1.2,14.02-2.38,21.04-3.89c7.01-1.51,14.05-3.33,20.87-6.04
				c13.59-5.39,25.95-13.75,36.1-24.16c10.19-10.38,18.47-22.5,24.72-35.53c6.25-13.04,10.63-26.94,12.93-41.2
				c1.14-7.13,1.76-14.35,1.82-21.57c0.03-7.21-0.41-14.39-1.31-21.52c-0.91-7.13-2.33-14.2-4.27-21.12
				c-1.89-6.93-4.5-13.68-7.76-20.06c-0.24-0.48-0.83-0.67-1.31-0.42c-0.45,0.23-0.64,0.75-0.47,1.21L856.06,274.56z"/>
			<g>
				<g>
					<path d="M834.5,523.36l-3.67-2.77c-10.66-8.04-18.14-11.47-25.02-11.47l-0.27,0c-5.93,0-9.76-6.36-11.43-9.89
						c-1.74,1.04-4.13,1.69-6.54,1.69c-6.03,0-10.43-3.78-11.78-10.11c-2.38-11.21-15.65-24.42-15.78-24.55l-3.19-3.16l4.48,0.22
						c9.36,0.46,40.2,2.38,44.07,7.82c1.83,2.56,2.6,4.36,3.23,5.81c1.11,2.56,1.91,4.41,8.62,9.56
						c11.14,8.54,16.11,31.38,16.32,32.35L834.5,523.36z M805.81,505.69c6.77,0,13.87,2.82,23.2,9.34c-2-7-6.56-20.18-13.87-25.79
						c-7.07-5.41-8.28-7.68-9.69-10.92c-0.62-1.44-1.26-2.92-2.88-5.18c-1.68-2.36-17.64-4.96-37.18-6.15
						c4.29,4.81,11.88,14.3,13.75,23.11c1.37,6.43,5.86,7.39,8.42,7.39c2.87,0,5.23-1.2,5.76-2.02l1.9-2.92l1.16,3.29
						c0.97,2.74,4.48,9.86,9.05,9.86L805.81,505.69z"/>
				</g>
				<path d="M803.96,490.21c-3.22-2.8-6.5-5.31-9.91-7.73c-3.39-2.41-6.9-4.66-10.48-6.77c-3.57-2.12-7.25-4.06-11-5.81
					c-3.73-1.81-7.62-3.26-11.5-4.64c3.79,1.65,7.54,3.36,11.11,5.41c3.6,1.99,7.1,4.16,10.47,6.49c3.38,2.32,6.68,4.77,9.84,7.37
					c3.16,2.58,6.26,5.32,9.08,8.15l0.04,0.04c0.67,0.67,1.76,0.67,2.43,0c0.67-0.67,0.67-1.76,0-2.43
					C804.02,490.26,803.99,490.23,803.96,490.21z"/>
			</g>
			<g>
				<g>
					<path d="M818.25,478.52c-2.29,0-5.7-0.79-8.91-4.54c-7-8.16-23.92-13.11-24.09-13.16l-4.31-1.24l4.04-1.95
						c2.94-1.42,28.96-13.88,37.65-13.88c0.99,0,1.79,0.15,2.43,0.46c2.68,1.3,4.14,2.44,5.32,3.36c2.06,1.61,3.55,2.77,11.4,4
						c13.11,2.04,27.55,18.72,28.16,19.43l2.99,3.49l-4.55-0.67c-12.78-1.89-20.15-1.4-26.03,1.91c-1.19,0.67-2.53,1-3.99,1
						c-3.82,0-7.72-2.35-9.96-3.98C826.65,475.61,822.76,478.52,818.25,478.52z M790.33,458.89c5.78,2.08,16.15,6.49,21.62,12.86
						c1.9,2.21,4.02,3.34,6.31,3.34c4.2,0,7.56-3.68,7.68-5.24l0.27-3.48l2.59,2.33c0.05,0.05,5.17,4.6,9.55,4.6
						c0.88,0,1.63-0.18,2.31-0.57c4.15-2.33,9.02-3.42,15.33-3.42c2.44,0,5.12,0.16,8.12,0.48c-4.87-4.92-14.43-13.53-22.86-14.84
						c-8.31-1.29-10.35-2.62-12.99-4.68c-1.16-0.9-2.35-1.84-4.7-2.98c-0.02-0.01-0.26-0.12-0.93-0.12
						C817.55,447.18,803.04,452.95,790.33,458.89z"/>
				</g>
				<path d="M832.47,460.65c-3.94-0.86-7.78-1.45-11.7-1.9c-3.9-0.46-7.82-0.73-11.73-0.85c-3.92-0.14-7.83-0.07-11.73,0.18
					c-3.9,0.2-7.77,0.75-11.61,1.37c3.88-0.34,7.76-0.6,11.64-0.52c3.88,0.03,7.75,0.26,11.59,0.67c3.85,0.4,7.67,0.95,11.46,1.68
					c3.77,0.72,7.58,1.6,11.18,2.67l0.05,0.02c0.91,0.27,1.87-0.25,2.14-1.16c0.27-0.91-0.25-1.87-1.16-2.14
					C832.55,460.67,832.51,460.66,832.47,460.65z"/>
			</g>
			<g>
				<g>
					<path d="M854.25,445.71c-1.99,0-4.04-0.59-6.1-1.76c-8.77-4.98-25.36-3.97-25.41-3.96l-4.48,0.29l3.14-3.2
						c5.66-5.78,24.63-24.64,30.84-24.64c0.14,0,0.27,0.01,0.39,0.02c2.79,0.3,4.45,0.85,5.79,1.29c1.37,0.45,2.37,0.78,4.24,0.78
						c1.69,0,4-0.29,7.05-0.88c1.23-0.24,2.58-0.36,4-0.36c11.86,0,26.5,8.25,27.12,8.6l3.99,2.27l-4.5,0.91
						c-11.81,2.38-18.28,5.25-22.34,9.93c-1.62,1.87-4.04,2.81-7.21,2.81c-2.24,0-4.46-0.49-6.04-0.94
						c-0.32,1.47-1.06,3.06-2.13,4.47C860.46,444.16,857.49,445.71,854.25,445.71z M826.86,436.47c5.86,0.03,16.25,0.67,23,4.5
						c1.53,0.87,3.01,1.31,4.4,1.31c2.89,0,4.77-1.9,5.63-3.03c1.38-1.81,1.75-3.63,1.57-4.29l-0.93-3.36l3.23,1.32
						c0.04,0.02,3.6,1.45,7.03,1.45c2.13,0,3.68-0.55,4.62-1.63c3.99-4.61,9.82-7.63,19.55-10.01c-5.1-2.42-13.92-6.01-21.23-6.01
						c-1.2,0-2.33,0.1-3.35,0.3c-3.31,0.64-5.76,0.94-7.7,0.94c-2.42,0-3.83-0.46-5.31-0.95c-1.3-0.43-2.65-0.87-5.08-1.14
						C849.49,415.87,838.86,424.53,826.86,436.47z"/>
				</g>
				<path d="M864.41,424.67c-3.76,0.5-7.34,1.22-10.95,2.06c-3.59,0.84-7.14,1.86-10.64,3c-3.5,1.13-6.94,2.44-10.3,3.92
					c-3.38,1.42-6.63,3.15-9.81,4.93c3.32-1.52,6.67-2.98,10.13-4.13c3.44-1.19,6.93-2.22,10.46-3.06
					c3.53-0.86,7.08-1.58,10.66-2.13c3.56-0.55,7.2-0.98,10.72-1.17l0.05,0c0.95-0.05,1.68-0.86,1.63-1.81
					c-0.05-0.95-0.86-1.68-1.81-1.63C864.5,424.66,864.46,424.66,864.41,424.67z"/>
			</g>
			<g>
				<g>
					<path d="M845.16,410.21l2.11-3.96c4.68-8.81,16.17-29.41,21.58-30.39c1.54-0.28,2.85-0.4,4.25-0.4c0.47,0,0.89,0.01,1.3,0.03
						c2.08,0.06,3.45,0.36,10.04-3.06c3.44-1.78,8.15-2.68,14.01-2.68c8.23,0,15.84,1.76,16.16,1.84l4.47,1.05l-4.07,2.14
						c-9.94,5.24-14.97,9.51-17.36,14.75c-2.02,4.43-7.85,5.2-11.37,5.24c0.11,1.88-0.39,4.11-1.45,6.02
						c-2.31,4.14-6.6,5.92-11.7,4.72c-1.45-0.34-3.13-0.51-5-0.51c-8.67,0-18.67,3.63-18.76,3.66L845.16,410.21z M873.1,378.89
						c-0.8,0-1.94,0.04-3.64,0.35c-2.24,0.46-9.66,11.3-17.14,24.89c3.92-1.12,10.06-2.56,15.82-2.56c2.14,0,4.09,0.2,5.79,0.6
						c0.8,0.19,1.57,0.28,2.28,0.28c3.12,0,4.79-1.81,5.63-3.33c1.25-2.25,1.17-4.6,0.78-5.23l-1.84-2.96l3.47,0.35
						c0.04,0,0.71,0.07,1.71,0.07c2.13,0,7.24-0.32,8.57-3.24c2.35-5.15,6.72-9.38,14.67-14.03c-2.87-0.44-6.76-0.89-10.75-0.89
						c-5.3,0-9.49,0.77-12.43,2.3c-6.45,3.33-8.73,3.53-11.73,3.44C873.92,378.91,873.53,378.89,873.1,378.89z"/>
				</g>
				<path d="M882.63,383.75c-3.24,1.45-6.26,3.05-9.27,4.77c-3,1.72-5.91,3.57-8.74,5.53c-2.84,1.95-5.57,4.04-8.19,6.26
					c-2.65,2.18-5.1,4.59-7.48,7.03c2.59-2.24,5.2-4.42,8.01-6.35c2.77-1.97,5.64-3.81,8.58-5.49c2.94-1.69,5.94-3.27,9.01-4.7
					c3.05-1.43,6.21-2.76,9.3-3.85l0.05-0.02c0.9-0.31,1.37-1.29,1.06-2.19c-0.31-0.9-1.29-1.37-2.19-1.06
					C882.72,383.71,882.67,383.73,882.63,383.75z"/>
			</g>
			<g>
				<g>
					<path d="M865.1,368.87l0.18-4.48c0.38-9.29,1.72-31.24,5.92-34.27c2-1.45,3.4-2.07,4.53-2.56c1.91-0.84,3.29-1.45,7.15-6.57
						c6.59-8.74,24.28-12.74,25.03-12.9l4.49-0.99l-2.74,3.69c-6.21,8.37-8.7,13.96-8.6,19.29c0.09,4.55-4.53,7.59-7.38,9.03
						c0.99,1.85,1.43,4.42,1.01,6.77c-0.4,2.28-1.96,6.3-7.86,7.61c-8.5,1.88-18.51,12.08-18.61,12.18L865.1,368.87z M904.12,312.67
						c-5.51,1.7-14.56,5.15-18.49,10.37c-4.18,5.55-5.96,6.52-8.5,7.65c-1.08,0.48-2.2,0.97-3.9,2.2
						c-1.66,1.35-3.48,13.24-4.29,27.4c3.88-3.42,10.74-8.76,17.17-10.18c3.01-0.67,4.77-2.3,5.22-4.85c0.44-2.5-0.61-4.94-1.3-5.38
						l-2.94-1.88l3.28-1.19c2.05-0.74,7.34-3.39,7.27-6.69C897.53,324.91,899.44,319.66,904.12,312.67z"/>
				</g>
				<path d="M885.96,331.22c-2.13,2.54-4.02,5.1-5.84,7.77c-1.82,2.65-3.5,5.39-5.08,8.18c-1.59,2.78-3.03,5.65-4.33,8.57
					c-1.34,2.9-2.41,5.92-3.42,8.93c1.28-2.91,2.6-5.79,4.18-8.54c1.54-2.76,3.21-5.45,5.02-8.04c1.79-2.6,3.68-5.12,5.69-7.54
					c1.99-2.42,4.11-4.8,6.27-6.95l0.04-0.04c0.68-0.67,0.68-1.76,0.01-2.43c-0.67-0.68-1.76-0.68-2.43-0.02
					C886.03,331.14,885.99,331.18,885.96,331.22z"/>
			</g>
			<g>
				<g>
					<path d="M865.46,318.85l-0.45-4.46c-0.86-8.58-2.49-28.9,1-32.27c1.65-1.59,2.86-2.35,3.84-2.95c1.68-1.05,2.79-1.74,5.65-6.9
						c4.92-8.91,20.65-14.89,21.32-15.13l4.3-1.61l-2.19,4.04c-4.53,8.34-6.12,13.94-5.35,18.71c0.69,4.22-3.04,7.57-5.52,9.3
						c1.12,1.59,1.83,3.85,1.75,6.03c-0.07,2.17-0.99,6.12-6.29,8.11c-7.49,2.81-15.32,13.43-15.4,13.54L865.46,318.85z
						 M893.7,262.22c-4.83,2.31-12.36,6.55-15.21,11.7c-3.13,5.66-4.63,6.79-6.84,8.16c-0.92,0.58-1.88,1.17-3.26,2.51
						c-1.3,1.51-1.42,12.43-0.35,25.25c3.15-3.66,8.64-9.26,14.26-11.36c2.62-0.98,3.99-2.67,4.07-5.01
						c0.08-2.44-1.25-4.38-1.82-4.64l-3.17-1.44l3.08-1.64c1.64-0.87,6.2-4.01,5.73-6.94C889.41,274.09,890.44,269.09,893.7,262.22z
						"/>
				</g>
				<path d="M879.7,281.25c-1.62,2.62-3,5.22-4.32,7.9c-1.31,2.68-2.49,5.41-3.56,8.17c-1.08,2.76-2.02,5.58-2.82,8.43
					c-0.84,2.84-1.42,5.74-1.94,8.63c0.8-2.83,1.65-5.64,2.75-8.36c1.06-2.73,2.25-5.4,3.58-8c1.31-2.61,2.72-5.16,4.25-7.63
					c1.52-2.46,3.15-4.92,4.86-7.15l0.03-0.04c0.58-0.75,0.43-1.83-0.32-2.41c-0.75-0.58-1.83-0.43-2.41,0.32
					C879.76,281.16,879.72,281.2,879.7,281.25z"/>
			</g>
			<g>
				<g>
					<path d="M858.95,282.69l-2.11-3.96c-4.64-8.71-12.16-23.93-10.41-27.91c0.85-1.94,1.62-3.01,2.25-3.87
						c1.05-1.46,1.75-2.43,2.37-7.77c1.08-9.35,12.41-19.95,12.89-20.39l3.37-3.13l-0.5,4.57c-0.94,8.64-0.35,13.93,1.96,17.69
						c2.06,3.36,0.13,7.49-1.38,9.87c1.49,0.99,2.84,2.65,3.53,4.51c0.71,1.91,1.31,5.64-2.56,9.24c-5.36,4.97-8.3,16.7-8.33,16.82
						L858.95,282.69z M863.01,224.68c-3.29,3.67-7.95,9.69-8.55,14.89c-0.69,5.93-1.59,7.43-2.99,9.39
						c-0.58,0.8-1.18,1.64-1.89,3.25c-0.45,1.54,2.59,9.88,8.36,21.19c1.44-4.24,4.13-10.71,8.09-14.38
						c1.84-1.71,2.41-3.57,1.68-5.53c-0.77-2.07-2.56-3.2-3.04-3.22l-3.48-0.13l2.23-2.68c1.07-1.29,3.82-5.48,2.44-7.74
						C863.57,236,862.68,231.47,863.01,224.68z"/>
				</g>
				<path d="M857.81,245.34c-0.46,2.8-0.71,5.5-0.89,8.25c-0.17,2.74-0.21,5.47-0.14,8.2c0.05,2.73,0.25,5.45,0.58,8.15
					c0.29,2.7,0.82,5.38,1.4,8.01c-0.3-2.69-0.54-5.38-0.54-8.07c-0.04-2.69,0.05-5.38,0.28-8.05c0.22-2.67,0.54-5.33,0.99-7.96
					c0.44-2.62,0.99-5.28,1.67-7.76l0.01-0.05c0.25-0.91-0.29-1.86-1.2-2.11c-0.92-0.25-1.86,0.29-2.11,1.2
					C857.84,245.22,857.82,245.28,857.81,245.34z"/>
			</g>
			<g>
				<g>
					<path d="M862.26,285.79l-3.88-1.59c-0.08-0.03-7.97-3.24-14.47-3.24c-1.03,0-1.97,0.08-2.8,0.24c-3.89,0.75-7.1-0.68-8.79-3.86
						c-0.75-1.41-1.1-3.05-1.03-4.47c-2.68-0.19-6.83-1.03-8.2-4.39c-1.56-3.81-5.23-7.18-12.25-11.24l-3.72-2.15l4.22-0.82
						c0.2-0.04,4.86-0.93,10.27-0.93c5.23,0,9.34,0.83,12.22,2.46c4.37,2.48,5.48,2.49,7.17,2.51c0.99,0.01,2.23,0.02,4.16,0.45
						c3.97,0.88,11.28,14.95,15.29,23.26L862.26,285.79z M843.91,277.75c4.21,0,8.78,1.16,11.9,2.14
						c-5.39-10.71-9.91-17.47-11.39-18c-1.58-0.35-2.54-0.36-3.46-0.36c-2.25-0.02-3.87-0.17-8.73-2.92
						c-2.36-1.34-6.03-2.05-10.63-2.05c-1.92,0-3.76,0.12-5.31,0.28c5.3,3.5,8.23,6.67,9.76,10.43c0.74,1.8,3.89,2.45,6.59,2.45
						c0.35,0,0.56-0.01,0.59-0.01l3.25-0.2l-1.82,2.7c-0.24,0.36-0.36,2.03,0.5,3.64c1.03,1.94,2.85,2.68,5.34,2.21
						C841.53,277.85,842.68,277.75,843.91,277.75z"/>
				</g>
				<path d="M834.73,264.32c2.37,1.2,4.54,2.5,6.71,3.88c2.16,1.38,4.24,2.86,6.26,4.42c2.03,1.55,3.97,3.2,5.83,4.93
					c1.88,1.71,3.6,3.58,5.27,5.48c-1.87-1.71-3.75-3.38-5.79-4.86c-2.01-1.51-4.08-2.93-6.22-4.23c-2.13-1.31-4.32-2.54-6.55-3.65
					c-2.22-1.11-4.52-2.17-6.77-3.02l-0.04-0.01c-0.83-0.32-1.24-1.25-0.93-2.08c0.32-0.83,1.25-1.25,2.07-0.93
					C834.63,264.27,834.68,264.29,834.73,264.32z"/>
			</g>
			<g>
				<g>
					<path d="M869.25,315.87l-3.87-1.59c-0.08-0.03-7.97-3.24-14.47-3.24c-1.03,0-1.97,0.08-2.81,0.24c-0.68,0.13-1.35,0.2-1.99,0.2
						c0,0,0,0,0,0c-2.99,0-5.41-1.44-6.79-4.06c-0.75-1.41-1.1-3.05-1.04-4.47c-2.68-0.19-6.83-1.03-8.2-4.39
						c-1.56-3.81-5.22-7.18-12.25-11.24l-3.72-2.15l4.21-0.81c0.2-0.04,4.86-0.93,10.27-0.93c5.23,0,9.34,0.83,12.22,2.46
						c4.37,2.48,5.49,2.49,7.17,2.51c0.99,0.01,2.22,0.02,4.16,0.45c3.97,0.88,11.28,14.95,15.29,23.26L869.25,315.87z
						 M850.9,307.83c4.2,0,8.77,1.16,11.89,2.14c-4.88-9.65-9.75-17.42-11.38-18c-1.58-0.35-2.54-0.36-3.46-0.36
						c-2.25-0.02-3.88-0.17-8.73-2.92c-2.36-1.34-6.03-2.05-10.63-2.05c-1.92,0-3.76,0.12-5.31,0.27c5.3,3.5,8.23,6.67,9.76,10.43
						c0.74,1.8,3.89,2.45,6.58,2.45c0.35,0,0.57-0.01,0.59-0.01l3.25-0.2l-1.82,2.7c-0.24,0.36-0.36,2.03,0.5,3.64
						c1.03,1.94,2.86,2.68,5.35,2.21C848.52,307.93,849.67,307.83,850.9,307.83z"/>
				</g>
				<path d="M841.72,294.39c2.37,1.2,4.54,2.5,6.7,3.89c2.16,1.38,4.24,2.86,6.26,4.42c2.03,1.55,3.97,3.2,5.83,4.93
					c1.88,1.71,3.6,3.59,5.27,5.48c-1.86-1.71-3.75-3.38-5.79-4.86c-2.01-1.51-4.08-2.93-6.22-4.23c-2.13-1.31-4.32-2.54-6.55-3.65
					c-2.22-1.11-4.52-2.17-6.77-3.02l-0.04-0.02c-0.83-0.32-1.25-1.25-0.93-2.07c0.32-0.83,1.24-1.25,2.07-0.93
					C841.62,294.35,841.67,294.37,841.72,294.39z"/>
			</g>
			<g>
				<g>
					<path d="M863.46,383.74l-2.58-4.44c-0.07-0.12-7.08-12.08-14.58-15.82c-5.42-2.71-5.96-7.01-5.79-9.34
						c0.16-2.26,1.12-4.53,2.44-6.1c-2.43-2.13-5.88-6.05-4.69-10.41c1.33-4.88,0.27-10.89-3.54-20.09l-2.01-4.87l4.71,2.35
						c0.67,0.34,16.55,8.36,20.75,18.29c2.4,5.68,3.48,6.52,5.11,7.79c0.96,0.75,2.15,1.68,3.72,3.54
						c3.21,3.82-0.18,22.98-2.48,34.06L863.46,383.74z M840.33,321.23c2.54,7.37,3.03,12.63,1.72,17.44
						c-0.8,2.94,3.57,6.66,5.17,7.73l3.33,2.23l-3.8,1.27c-0.52,0.18-2.13,2-2.31,4.52c-0.17,2.39,1.05,4.25,3.63,5.54
						c5.54,2.77,10.59,9.02,13.53,13.22c2.7-14.3,3.37-24.45,2.36-26.02c-1.28-1.52-2.2-2.24-3.1-2.94
						c-2.18-1.7-3.65-3.06-6.32-9.36C852.19,329.33,845.12,324.21,840.33,321.23z"/>
				</g>
				<path d="M852.69,342.28c1.41,2.94,2.55,5.82,3.63,8.79c1.07,2.95,1.99,5.96,2.8,8.98c0.82,3.02,1.48,6.08,1.99,9.16
					c0.55,3.07,0.83,6.18,1.04,9.27c-0.54-3.06-1.13-6.09-2-9.05c-0.82-2.97-1.79-5.9-2.9-8.76c-1.1-2.87-2.31-5.69-3.65-8.44
					c-1.33-2.74-2.79-5.49-4.33-8l-0.03-0.05c-0.57-0.93-0.28-2.14,0.64-2.71c0.93-0.57,2.14-0.28,2.71,0.65
					C852.63,342.16,852.66,342.22,852.69,342.28z"/>
			</g>
			<g>
				<g>
					<path d="M828.75,436.62l-0.76-5.49c-0.02-0.15-2.12-14.94-8.06-21.74c-4.16-4.76-3.11-9.16-2.11-11.35
						c1.05-2.3,3.02-4.32,5.08-5.41c-1.55-3.12-3.39-8.44-0.42-12.3c3.32-4.32,4.73-10.75,4.69-21.48l-0.02-5.68l3.74,4.28
						c0.53,0.61,13.08,15.1,13.2,26.72c0.07,6.65,0.8,7.93,1.91,9.86c0.65,1.14,1.46,2.55,2.26,5.05
						c1.63,5.12-9.58,22.84-16.41,32.95L828.75,436.62z M825.93,396.03c-0.74,0-3.14,1.32-4.25,3.76c-1.02,2.25-0.54,4.54,1.44,6.81
						c4.39,5.03,6.87,13.32,8.08,18.72c8.55-13.15,13.37-23,13-24.98c-0.65-2.04-1.28-3.13-1.89-4.2
						c-1.48-2.58-2.39-4.54-2.47-11.92c-0.07-6.47-5.02-14.47-8.58-19.4c-0.48,8.38-2.15,13.84-5.43,18.1
						c-1.99,2.59,0.85,8.09,1.99,9.82l2.39,3.58L825.93,396.03L825.93,396.03z"/>
				</g>
				<path d="M834.98,390.88c0.2,3.5,0.17,6.84,0.02,10.25c-0.14,3.38-0.45,6.75-0.88,10.1c-0.42,3.35-1.01,6.67-1.76,9.94
					c-0.7,3.29-1.7,6.5-2.75,9.67c0.71-3.27,1.36-6.54,1.71-9.85c0.39-3.3,0.63-6.61,0.69-9.92c0.08-3.31,0.03-6.62-0.18-9.91
					c-0.2-3.28-0.53-6.61-1.05-9.75l-0.01-0.06c-0.19-1.16,0.59-2.25,1.75-2.44c1.16-0.19,2.25,0.59,2.44,1.75
					C834.96,390.73,834.97,390.8,834.98,390.88z"/>
			</g>
			<g>
				<g>
					<path d="M789.04,461.71l0.65-5.1c0.02-0.14,1.72-13.89-1.96-21.42c-2.14-4.39-1.12-7.67,0.12-9.66c1.6-2.55,4.27-4.13,6.6-4.64
						c-0.63-3.16-0.99-8.38,2.6-11.12c4.02-3.07,6.83-8.48,9.4-18.1l1.36-5.09l2.31,4.73c0.33,0.68,8.06,16.69,5.36,27.13
						c-1.55,5.98-1.2,7.3-0.68,9.29c0.31,1.18,0.69,2.64,0.8,5.07c0.22,4.99-14.11,18.14-22.67,25.54L789.04,461.71z M796.04,424.64
						c-1.26,0-3.64,1.03-4.86,2.97c-1.03,1.65-1.01,3.62,0.08,5.84c2.72,5.57,2.92,13.6,2.71,18.72
						c10.84-9.71,17.54-17.36,17.69-19.23c-0.09-1.98-0.39-3.12-0.68-4.22c-0.7-2.67-1.04-4.64,0.68-11.27
						c1.5-5.8-1-14.17-2.99-19.45c-2.46,7.39-5.28,11.87-9.24,14.89c-2.42,1.85-1.21,7.46-0.59,9.28l1.29,3.79l-3.79-1.3
						C796.34,424.67,796.25,424.64,796.04,424.64z"/>
				</g>
				<path d="M805.69,422.25c-0.67,3.19-1.51,6.17-2.46,9.18c-0.95,2.99-2.04,5.94-3.24,8.83c-1.19,2.9-2.52,5.73-3.98,8.48
					c-1.43,2.77-3.1,5.41-4.81,7.99c1.43-2.75,2.8-5.52,3.92-8.41c1.15-2.86,2.16-5.77,3.02-8.72c0.87-2.95,1.63-5.92,2.24-8.92
					c0.61-2.98,1.12-6.05,1.42-8.98l0.01-0.06c0.11-1.08,1.08-1.87,2.16-1.76c1.08,0.11,1.87,1.08,1.76,2.16
					C805.72,422.11,805.71,422.18,805.69,422.25z"/>
			</g>
			<g>
				<g>
					<path d="M844.06,248.97l-2.99-2.5c-6.58-5.49-17.61-15.26-17.5-19.04c0.05-1.84,0.32-2.96,0.54-3.85
						c0.37-1.52,0.61-2.52-0.64-7.03c-2.18-7.87,3.46-20.1,3.7-20.62l1.69-3.61l1.1,3.84c2.07,7.25,4.27,11.32,7.36,13.59
						c2.75,2.03,2.55,5.98,2.12,8.38c1.78,0.36,3.86,1.54,5.09,3.48c0.94,1.48,1.74,3.93,0.18,7.26c-2.69,5.76-1.22,16.15-1.2,16.25
						L844.06,248.97z M828.34,200.99c-1.44,4.02-3.22,10.39-2.01,14.77c1.39,5,1.16,6.5,0.66,8.53c-0.2,0.84-0.41,1.7-0.46,3.23
						c0.16,1.58,6.06,7.73,13.65,14.31c-0.23-3.88-0.18-9.96,1.8-14.21c0.79-1.68,0.79-3.16,0-4.4c-0.96-1.51-2.78-2.22-3.71-2.22
						c-0.18,0-0.25,0.03-0.25,0.03l-2.84,1.03l0.91-2.89c0.44-1.39,1.28-5.66-0.57-7.02C832.5,209.91,830.3,206.56,828.34,200.99z"
						/>
				</g>
				<path d="M830.92,219.3c0.55,2.41,1.22,4.65,1.99,6.92c0.76,2.26,1.62,4.47,2.57,6.65c0.94,2.18,1.98,4.3,3.13,6.37
					c1.12,2.08,2.42,4.06,3.75,5.99c-1.12-2.07-2.19-4.15-3.07-6.31c-0.91-2.15-1.72-4.34-2.4-6.57c-0.7-2.22-1.31-4.46-1.81-6.73
					c-0.5-2.25-0.93-4.57-1.19-6.78l-0.01-0.04c-0.1-0.82-0.84-1.41-1.66-1.31c-0.82,0.1-1.4,0.84-1.31,1.66
					C830.9,219.2,830.91,219.25,830.92,219.3z"/>
			</g>
			<g>
				<path d="M869.48,331.5h-1.72c0-6.2-8.03-9.58-8.11-9.61l0.65-1.59C860.69,320.45,869.48,324.14,869.48,331.5z"/>
			</g>
			<circle cx="859.99" cy="321.09" r="3.59"/>
			<path d="M846.41,378.31c0,1.98,1.61,3.59,3.59,3.59c1.99,0,3.59-1.61,3.59-3.59c0-1.99-1.61-3.59-3.59-3.59
				C848.02,374.72,846.41,376.33,846.41,378.31z"/>
			<path d="M879.3,364.66c0,2.68,2.17,4.85,4.85,4.85c2.68,0,4.85-2.17,4.85-4.85c0-2.68-2.17-4.85-4.85-4.85
				C881.47,359.81,879.3,361.98,879.3,364.66z"/>
			<path d="M769.27,441.49c0,2.68,2.17,4.85,4.85,4.85s4.85-2.17,4.85-4.85c0-2.68-2.17-4.85-4.85-4.85S769.27,438.82,769.27,441.49
				z"/>
			<path d="M875.35,312.65c0,2.68,2.17,4.85,4.85,4.85c2.68,0,4.85-2.17,4.85-4.85c0-2.68-2.17-4.85-4.85-4.85
				C877.53,307.8,875.35,309.97,875.35,312.65z"/>
			<path d="M831.77,251.41c0,2.68,2.17,4.85,4.85,4.85c2.68,0,4.85-2.17,4.85-4.85c0-2.68-2.17-4.85-4.85-4.85
				C833.94,246.56,831.77,248.73,831.77,251.41z"/>
			<g>
				<path d="M869.48,324.77l-1.71-0.16c1-10.88,10.99-12.33,11.09-12.35l0.23,1.7C878.74,314.01,870.35,315.28,869.48,324.77z"/>
			</g>
			<g>
				<path d="M863.92,375.89l-1.6-0.62c4.49-11.67,20.48-10.26,20.64-10.25l-0.16,1.71C882.66,366.71,867.94,365.44,863.92,375.89z"
					/>
			</g>
			<g>
				<path d="M856,395.58l-1.7-0.23c1.28-9.52-4.86-16.23-4.92-16.3l1.25-1.17C850.91,378.18,857.39,385.26,856,395.58z"/>
			</g>
			<g>
				<path d="M768.85,465.65l-1.21-1.21c7-7,5.49-20.2,5.48-20.34l1.7-0.2C774.89,444.47,776.43,458.07,768.85,465.65z"/>
			</g>
		</g>
		<g>
			<path d="M577.43,274.56c-5.05,13.13-7.76,26.98-9.12,40.9c-1.28,13.95-1.32,27.99,1.03,41.71c2.29,13.74,6.61,27.13,12.7,39.63
				c6.08,12.5,14.11,24.06,23.85,33.87c9.74,9.8,21.34,17.74,34.12,22.81c12.8,5.03,26.8,7.19,40.75,9.64
				c13.96,2.41,28.19,4.92,41.8,10.23c6.78,2.66,13.35,6.13,19.2,10.68c5.87,4.53,10.86,10.23,14.63,16.59
				c0.72,1.22,0.32,2.8-0.9,3.53c-1.22,0.72-2.79,0.32-3.52-0.89c-3.51-5.8-8.07-10.92-13.47-15.01
				c-5.39-4.12-11.51-7.29-17.95-9.75c-12.91-4.94-26.85-7.23-40.78-9.67c-6.98-1.2-14.01-2.38-21.04-3.89
				c-7.01-1.51-14.05-3.33-20.87-6.04c-13.59-5.39-25.95-13.75-36.1-24.16c-10.19-10.38-18.47-22.5-24.72-35.53
				c-6.25-13.04-10.63-26.94-12.93-41.2c-1.14-7.13-1.76-14.35-1.82-21.57c-0.03-7.21,0.41-14.39,1.31-21.52
				c0.91-7.13,2.33-14.2,4.27-21.12c1.89-6.93,4.5-13.68,7.76-20.06c0.25-0.48,0.83-0.67,1.31-0.42c0.45,0.23,0.64,0.75,0.47,1.21
				L577.43,274.56z"/>
			<g>
				<g>
					<path d="M598.99,523.36l0.96-4.5c0.21-0.97,5.17-23.81,16.31-32.35c6.72-5.15,7.52-7,8.62-9.56c0.63-1.45,1.41-3.25,3.23-5.81
						c3.88-5.44,34.71-7.36,44.07-7.82l4.48-0.22l-3.19,3.16c-0.13,0.13-13.4,13.36-15.78,24.55c-1.35,6.33-5.75,10.11-11.78,10.11
						c-2.4,0-4.79-0.65-6.54-1.68c-1.66,3.52-5.47,9.89-11.33,9.89l-0.37,0c-6.88,0-14.36,3.43-25.02,11.47L598.99,523.36z
						 M668.09,466.99c-19.54,1.19-35.5,3.79-37.18,6.15c-1.61,2.27-2.26,3.75-2.88,5.18c-1.4,3.24-2.62,5.5-9.69,10.92
						c-7.32,5.61-11.88,18.79-13.87,25.79c9.33-6.51,16.43-9.34,23.2-9.34l0.31,0c4.63,0,8.14-7.12,9.1-9.86l1.16-3.29l1.9,2.92
						c0.54,0.83,2.9,2.02,5.76,2.02c2.56,0,7.05-0.96,8.42-7.39C656.21,481.29,663.8,471.8,668.09,466.99z"/>
				</g>
				<path d="M629.53,490.21c3.22-2.8,6.5-5.31,9.91-7.73c3.39-2.41,6.9-4.66,10.48-6.77c3.57-2.12,7.25-4.06,11-5.81
					c3.73-1.81,7.62-3.26,11.5-4.64c-3.79,1.65-7.54,3.36-11.11,5.41c-3.6,1.99-7.1,4.16-10.47,6.49c-3.38,2.32-6.68,4.77-9.84,7.37
					c-3.16,2.58-6.26,5.32-9.08,8.15l-0.04,0.04c-0.67,0.67-1.76,0.67-2.43,0s-0.67-1.76,0-2.43
					C629.47,490.26,629.5,490.23,629.53,490.21z"/>
			</g>
			<g>
				<g>
					<path d="M615.23,478.52c-4.51,0-8.39-2.91-10.13-5.76c-2.24,1.63-6.14,3.98-9.96,3.98c-1.46,0-2.8-0.34-3.99-1
						c-5.89-3.31-13.25-3.8-26.04-1.91l-4.55,0.67l2.99-3.49c0.61-0.71,15.05-17.39,28.16-19.43c7.85-1.22,9.34-2.39,11.4-4
						c1.18-0.92,2.64-2.06,5.31-3.36c0.64-0.31,1.44-0.46,2.43-0.46c8.69,0,34.71,12.46,37.65,13.88l4.04,1.95l-4.31,1.24
						c-0.17,0.05-17.09,5-24.09,13.16C620.93,477.74,617.53,478.52,615.23,478.52z M607.29,466.37l0.27,3.48
						c0.12,1.56,3.47,5.24,7.68,5.24c2.29,0,4.41-1.12,6.31-3.34c5.47-6.37,15.84-10.78,21.62-12.86
						c-12.71-5.94-27.22-11.71-32.3-11.71c-0.67,0-0.91,0.11-0.93,0.12c-2.35,1.14-3.54,2.08-4.7,2.98
						c-2.64,2.06-4.67,3.39-12.99,4.68c-8.43,1.31-17.99,9.92-22.86,14.84c2.99-0.32,5.67-0.48,8.12-0.48
						c6.31,0,11.18,1.08,15.33,3.42c0.68,0.38,1.43,0.57,2.31,0.57c4.39,0,9.5-4.55,9.55-4.6L607.29,466.37z"/>
				</g>
				<path d="M601.02,460.65c3.94-0.86,7.78-1.45,11.7-1.9c3.9-0.46,7.82-0.73,11.73-0.85c3.91-0.14,7.83-0.07,11.73,0.18
					c3.9,0.2,7.78,0.75,11.61,1.37c-3.88-0.34-7.75-0.6-11.64-0.52c-3.88,0.03-7.75,0.26-11.59,0.67c-3.85,0.4-7.67,0.95-11.46,1.68
					c-3.77,0.72-7.58,1.6-11.18,2.67l-0.05,0.02c-0.91,0.27-1.87-0.25-2.14-1.16c-0.27-0.91,0.25-1.87,1.16-2.14
					C600.93,460.67,600.98,460.66,601.02,460.65z"/>
			</g>
			<g>
				<g>
					<path d="M579.23,445.71c-3.24,0-6.21-1.55-8.36-4.38c-1.07-1.41-1.81-3-2.13-4.47c-1.58,0.45-3.8,0.94-6.04,0.94
						c-3.17,0-5.59-0.95-7.21-2.81c-4.05-4.68-10.52-7.55-22.34-9.93l-4.5-0.91l3.99-2.27c0.62-0.35,15.27-8.6,27.12-8.6
						c1.42,0,2.77,0.12,4,0.36c3.05,0.59,5.36,0.88,7.05,0.88c1.87,0,2.87-0.33,4.24-0.78c1.34-0.44,3-0.99,5.79-1.29
						c0.13-0.01,0.26-0.02,0.39-0.02c6.21,0,25.17,18.86,30.84,24.64l3.14,3.2l-4.48-0.29c-0.05-0.01-16.64-1.02-25.41,3.96
						C583.27,445.12,581.22,445.71,579.23,445.71z M572.96,431.6l-0.92,3.36c-0.18,0.66,0.19,2.48,1.57,4.29
						c0.86,1.13,2.74,3.03,5.63,3.03c1.39,0,2.87-0.44,4.4-1.31c6.74-3.83,17.14-4.48,23-4.5c-12-11.93-22.63-20.6-25.39-20.6
						c-2.45,0.26-3.8,0.71-5.11,1.14c-1.49,0.49-2.89,0.95-5.31,0.95l0,0c-1.94,0-4.39-0.3-7.7-0.94c-1.02-0.2-2.15-0.3-3.35-0.3
						c-7.32,0-16.14,3.6-21.23,6.01c9.73,2.38,15.56,5.4,19.55,10.01c0.94,1.08,2.49,1.63,4.61,1.63c3.43,0,7-1.43,7.03-1.45
						L572.96,431.6z"/>
				</g>
				<path d="M569.08,424.67c3.76,0.5,7.34,1.22,10.95,2.06c3.59,0.84,7.14,1.86,10.64,3c3.5,1.13,6.94,2.44,10.3,3.92
					c3.38,1.42,6.63,3.15,9.81,4.93c-3.32-1.52-6.67-2.98-10.13-4.13c-3.44-1.19-6.93-2.22-10.46-3.06
					c-3.53-0.86-7.08-1.58-10.66-2.13c-3.56-0.55-7.2-0.98-10.72-1.17l-0.05,0c-0.95-0.05-1.68-0.86-1.63-1.81
					c0.05-0.95,0.86-1.68,1.81-1.63C568.98,424.66,569.03,424.66,569.08,424.67z"/>
			</g>
			<g>
				<g>
					<path d="M588.32,410.21l-4.21-1.54c-0.1-0.04-10.11-3.67-18.76-3.67c-1.88,0-3.56,0.17-5,0.51c-5.1,1.2-9.39-0.58-11.7-4.72
						c-1.06-1.9-1.56-4.13-1.45-6.02c-3.52-0.04-9.36-0.82-11.38-5.24c-2.39-5.24-7.42-9.52-17.36-14.75l-4.07-2.14l4.47-1.05
						c0.32-0.08,7.92-1.84,16.16-1.84c5.86,0,10.57,0.9,14.01,2.68c6.6,3.41,7.96,3.12,10.04,3.06c0.41-0.01,0.84-0.03,1.31-0.03
						c1.4,0,2.71,0.12,4.25,0.4c5.42,0.98,16.9,21.58,21.59,30.39L588.32,410.21z M565.35,401.57c5.76,0,11.89,1.43,15.82,2.56
						c-7.48-13.59-14.91-24.43-17.15-24.89c-2.6-0.47-3.75-0.36-4.83-0.32c-3,0.09-5.28-0.1-11.73-3.44
						c-2.95-1.52-7.13-2.3-12.43-2.3c-3.98,0-7.88,0.45-10.75,0.89c7.95,4.65,12.32,8.88,14.67,14.03c1.33,2.92,6.44,3.24,8.58,3.24
						c1,0,1.67-0.06,1.71-0.07l3.47-0.35l-1.84,2.96c-0.39,0.63-0.47,2.99,0.78,5.23c0.85,1.52,2.51,3.33,5.63,3.33
						c0.71,0,1.48-0.09,2.28-0.28C561.26,401.77,563.21,401.57,565.35,401.57z"/>
				</g>
				<path d="M550.86,383.75c3.24,1.45,6.26,3.05,9.27,4.77c3,1.72,5.91,3.57,8.74,5.53c2.84,1.95,5.57,4.04,8.19,6.26
					c2.65,2.18,5.1,4.59,7.48,7.03c-2.58-2.24-5.2-4.42-8.01-6.35c-2.77-1.97-5.64-3.81-8.59-5.49c-2.94-1.69-5.94-3.27-9.01-4.7
					c-3.05-1.43-6.21-2.76-9.3-3.85l-0.05-0.02c-0.9-0.31-1.37-1.29-1.06-2.19c0.31-0.9,1.29-1.37,2.19-1.06
					C550.76,383.71,550.81,383.73,550.86,383.75z"/>
			</g>
			<g>
				<g>
					<path d="M568.38,368.87l-3.13-3.21c-0.1-0.1-10.12-10.31-18.61-12.18c-5.9-1.3-7.46-5.33-7.86-7.61
						c-0.42-2.35,0.02-4.91,1.01-6.77c-2.85-1.44-7.47-4.47-7.38-9.03c0.11-5.33-2.38-10.92-8.6-19.29l-2.74-3.69l4.49,0.99
						c0.75,0.17,18.44,4.16,25.03,12.9c3.86,5.12,5.24,5.73,7.15,6.57c1.13,0.5,2.53,1.12,4.53,2.56
						c4.19,3.04,5.53,24.98,5.92,34.27L568.38,368.87z M529.37,312.67c4.67,6.99,6.59,12.24,6.49,17.46c-0.07,3.3,5.36,6,7.27,6.69
						l3.29,1.18l-2.95,1.88c-0.7,0.44-1.75,2.89-1.3,5.38c0.45,2.55,2.21,4.18,5.22,4.85c6.44,1.42,13.29,6.75,17.17,10.18
						c-0.81-14.16-2.63-26.05-4.3-27.41c-1.7-1.23-2.81-1.72-3.9-2.2c-2.54-1.12-4.32-2.09-8.5-7.65
						C543.92,317.82,534.88,314.37,529.37,312.67z"/>
				</g>
				<path d="M547.53,331.22c2.14,2.54,4.02,5.1,5.84,7.77c1.82,2.65,3.5,5.39,5.08,8.18c1.59,2.78,3.03,5.65,4.33,8.57
					c1.34,2.9,2.41,5.92,3.42,8.93c-1.28-2.91-2.6-5.79-4.18-8.54c-1.54-2.76-3.21-5.45-5.02-8.04c-1.79-2.6-3.68-5.12-5.68-7.54
					c-1.99-2.42-4.11-4.8-6.27-6.95l-0.04-0.04c-0.68-0.67-0.68-1.76-0.02-2.43c0.67-0.68,1.76-0.68,2.43-0.02
					C547.46,331.14,547.5,331.18,547.53,331.22z"/>
			</g>
			<g>
				<g>
					<path d="M568.03,318.85l-2.65-3.62c-0.08-0.11-7.91-10.73-15.4-13.54c-5.3-1.99-6.22-5.93-6.29-8.11
						c-0.07-2.18,0.63-4.44,1.75-6.03c-2.47-1.72-6.21-5.08-5.52-9.3c0.78-4.77-0.82-10.37-5.35-18.71l-2.19-4.04l4.3,1.61
						c0.67,0.25,16.4,6.22,21.32,15.13c2.85,5.16,3.96,5.85,5.65,6.9c0.97,0.61,2.19,1.36,3.83,2.96c3.49,3.37,1.86,23.69,1,32.27
						L568.03,318.85z M539.79,262.22c3.26,6.87,4.29,11.87,3.52,16.59c-0.48,2.92,4.09,6.07,5.73,6.94l3.08,1.64l-3.17,1.44
						c-0.57,0.26-1.9,2.2-1.82,4.64c0.08,2.34,1.45,4.02,4.07,5.01c5.62,2.1,11.1,7.7,14.26,11.36c1.07-12.83,0.95-23.75-0.36-25.26
						c-1.38-1.33-2.33-1.92-3.25-2.5c-2.2-1.37-3.71-2.5-6.84-8.16C552.15,268.77,544.62,264.53,539.79,262.22z"/>
				</g>
				<path d="M553.79,281.25c1.62,2.62,3,5.22,4.32,7.9c1.31,2.68,2.49,5.41,3.56,8.17c1.08,2.76,2.02,5.58,2.82,8.43
					c0.84,2.84,1.42,5.74,1.94,8.63c-0.8-2.83-1.65-5.64-2.75-8.36c-1.06-2.73-2.25-5.4-3.58-8c-1.31-2.61-2.72-5.16-4.25-7.63
					c-1.52-2.46-3.15-4.92-4.86-7.15l-0.03-0.04c-0.58-0.75-0.43-1.83,0.32-2.41c0.75-0.58,1.83-0.43,2.41,0.32
					C553.73,281.16,553.76,281.2,553.79,281.25z"/>
			</g>
			<g>
				<g>
					<path d="M574.54,282.69l-1.07-4.35c-0.03-0.12-2.97-11.85-8.33-16.82c-3.88-3.6-3.27-7.33-2.56-9.24
						c0.69-1.85,2.05-3.52,3.53-4.51c-1.51-2.38-3.44-6.51-1.38-9.87c2.31-3.76,2.89-9.05,1.96-17.69l-0.49-4.57l3.37,3.12
						c0.48,0.45,11.81,11.05,12.89,20.39c0.62,5.35,1.32,6.31,2.37,7.77c0.62,0.86,1.39,1.93,2.25,3.87
						c1.75,3.99-5.77,19.2-10.41,27.91L574.54,282.69z M570.48,224.68c0.33,6.79-0.56,11.32-2.83,15.03
						c-1.39,2.27,1.36,6.45,2.44,7.73l2.24,2.68l-3.49,0.13c-0.48,0.02-2.27,1.16-3.04,3.22c-0.73,1.96-0.16,3.82,1.68,5.53
						c3.96,3.68,6.66,10.15,8.09,14.38c5.77-11.31,8.81-19.65,8.35-21.21c-0.7-1.59-1.3-2.42-1.88-3.22c-1.41-1.95-2.31-3.45-3-9.39
						C578.43,234.37,573.76,228.34,570.48,224.68z"/>
				</g>
				<path d="M575.67,245.34c0.46,2.8,0.71,5.5,0.88,8.25c0.17,2.74,0.21,5.47,0.14,8.2c-0.06,2.73-0.25,5.45-0.58,8.15
					c-0.29,2.7-0.82,5.38-1.4,8.01c0.3-2.69,0.54-5.38,0.54-8.07c0.04-2.69-0.05-5.38-0.29-8.05c-0.22-2.67-0.54-5.33-0.99-7.96
					c-0.44-2.62-0.99-5.28-1.67-7.76l-0.01-0.05c-0.25-0.91,0.29-1.86,1.2-2.11c0.92-0.25,1.86,0.29,2.11,1.2
					C575.65,245.22,575.66,245.28,575.67,245.34z"/>
			</g>
			<g>
				<g>
					<path d="M571.23,285.79l1.82-3.78c4.01-8.31,11.32-22.38,15.29-23.26c1.94-0.43,3.17-0.44,4.16-0.45
						c1.68-0.01,2.79-0.02,7.17-2.51c2.88-1.63,6.99-2.46,12.22-2.46c5.41,0,10.08,0.89,10.27,0.93l4.21,0.82l-3.72,2.15
						c-7.03,4.06-10.69,7.42-12.25,11.24c-1.37,3.36-5.52,4.21-8.2,4.39c0.07,1.43-0.29,3.06-1.04,4.47
						c-1.68,3.17-4.89,4.61-8.79,3.86c-0.83-0.16-1.78-0.24-2.81-0.24c-6.52,0-14.39,3.21-14.47,3.24L571.23,285.79z M611.89,256.55
						c-4.6,0-8.28,0.71-10.63,2.05c-4.85,2.76-6.48,2.91-8.73,2.92c-0.93,0.01-1.89,0.01-3.49,0.37
						c-1.42,0.51-6.02,7.41-11.36,17.99c3.12-0.98,7.69-2.14,11.9-2.14c1.23,0,2.38,0.1,3.41,0.3c2.49,0.48,4.32-0.27,5.35-2.21
						c0.86-1.62,0.74-3.29,0.5-3.64l-1.82-2.7l3.25,0.2c0.02,0,0.24,0.01,0.59,0.01c2.7,0,5.85-0.64,6.59-2.45
						c1.54-3.76,4.47-6.93,9.76-10.43C615.65,256.67,613.81,256.55,611.89,256.55z"/>
				</g>
				<path d="M598.76,264.32c-2.37,1.2-4.54,2.5-6.7,3.88c-2.16,1.38-4.24,2.86-6.26,4.42c-2.03,1.55-3.97,3.2-5.83,4.93
					c-1.88,1.71-3.6,3.58-5.27,5.48c1.86-1.71,3.75-3.38,5.79-4.86c2.01-1.51,4.08-2.93,6.22-4.23c2.13-1.31,4.32-2.54,6.55-3.65
					c2.22-1.11,4.52-2.17,6.77-3.02l0.04-0.01c0.83-0.32,1.25-1.25,0.93-2.08c-0.32-0.83-1.24-1.25-2.07-0.93
					C598.86,264.27,598.81,264.29,598.76,264.32z"/>
			</g>
			<g>
				<g>
					<path d="M564.24,315.87l1.82-3.78c4.01-8.31,11.32-22.38,15.29-23.26c1.94-0.43,3.17-0.44,4.16-0.45
						c1.68-0.01,2.79-0.02,7.17-2.51c2.88-1.63,6.99-2.46,12.22-2.46c5.42,0,10.08,0.89,10.27,0.93l4.21,0.81l-3.72,2.15
						c-7.03,4.06-10.69,7.42-12.25,11.24c-1.37,3.36-5.52,4.21-8.2,4.39c0.07,1.43-0.28,3.06-1.03,4.47
						c-1.69,3.17-4.9,4.61-8.79,3.86c-0.83-0.16-1.78-0.24-2.81-0.24c-6.52,0-14.39,3.21-14.47,3.24L564.24,315.87z M604.9,286.63
						c-4.6,0-8.28,0.71-10.63,2.05c-4.85,2.76-6.48,2.91-8.73,2.92c-0.93,0.01-1.89,0.01-3.49,0.37c-1.42,0.51-6.02,7.4-11.36,17.99
						c3.12-0.98,7.69-2.14,11.9-2.14c1.23,0,2.38,0.1,3.41,0.3c2.48,0.47,4.32-0.28,5.35-2.21c0.86-1.62,0.74-3.29,0.5-3.64
						l-1.82-2.7l3.25,0.2c0.02,0,0.24,0.01,0.59,0.01c2.7,0,5.85-0.64,6.59-2.45c1.54-3.76,4.47-6.93,9.76-10.43
						C608.66,286.75,606.82,286.63,604.9,286.63z"/>
				</g>
				<path d="M591.76,294.39c-2.37,1.2-4.54,2.5-6.7,3.89c-2.16,1.38-4.24,2.86-6.26,4.42c-2.03,1.55-3.97,3.2-5.83,4.93
					c-1.88,1.71-3.6,3.59-5.27,5.48c1.87-1.71,3.75-3.38,5.79-4.86c2.01-1.51,4.08-2.93,6.22-4.23c2.13-1.31,4.32-2.54,6.55-3.65
					c2.22-1.11,4.52-2.17,6.77-3.02l0.04-0.02c0.83-0.32,1.25-1.25,0.93-2.07c-0.32-0.83-1.24-1.25-2.07-0.93
					C591.87,294.35,591.81,294.37,591.76,294.39z"/>
			</g>
			<g>
				<g>
					<path d="M570.03,383.75l-1.05-5.04c-2.3-11.08-5.68-30.24-2.48-34.06c1.56-1.86,2.76-2.79,3.72-3.54
						c1.63-1.27,2.7-2.11,5.11-7.79c4.2-9.93,20.07-17.95,20.75-18.29l4.71-2.35l-2.01,4.87c-3.81,9.2-4.87,15.21-3.54,20.09
						c1.19,4.35-2.27,8.28-4.69,10.41c1.32,1.57,2.28,3.84,2.44,6.1c0.16,2.32-0.37,6.63-5.79,9.34
						c-7.51,3.75-14.51,15.7-14.58,15.82L570.03,383.75z M593.16,321.23c-4.79,2.98-11.87,8.1-14.2,13.62
						c-2.67,6.31-4.14,7.67-6.31,9.36c-0.9,0.7-1.82,1.42-3.12,2.96c-1,1.55-0.33,11.7,2.38,26c2.95-4.2,7.99-10.45,13.53-13.22
						c2.57-1.29,3.79-3.15,3.62-5.54c-0.18-2.52-1.79-4.35-2.31-4.52l-3.79-1.26l3.31-2.23c1.59-1.08,5.97-4.81,5.17-7.73
						C590.13,333.86,590.62,328.59,593.16,321.23z"/>
				</g>
				<path d="M580.79,342.28c-1.41,2.94-2.55,5.82-3.63,8.79c-1.07,2.95-1.99,5.96-2.8,8.98c-0.82,3.02-1.48,6.08-1.99,9.16
					c-0.55,3.07-0.83,6.18-1.04,9.27c0.54-3.06,1.13-6.09,2-9.05c0.82-2.97,1.79-5.9,2.9-8.76c1.1-2.87,2.31-5.69,3.65-8.44
					c1.33-2.74,2.79-5.49,4.33-8l0.03-0.05c0.57-0.93,0.28-2.14-0.64-2.71c-0.93-0.57-2.14-0.28-2.71,0.65
					C580.86,342.16,580.82,342.22,580.79,342.28z"/>
			</g>
			<g>
				<g>
					<path d="M604.74,436.62l-3.1-4.59c-6.83-10.11-18.04-27.83-16.4-32.95c0.8-2.5,1.61-3.92,2.26-5.05
						c1.1-1.93,1.83-3.21,1.91-9.86c0.12-11.62,12.67-26.11,13.2-26.72l3.73-4.28l-0.02,5.68c-0.03,10.73,1.37,17.16,4.69,21.48
						c2.97,3.86,1.13,9.19-0.42,12.3c2.06,1.08,4.03,3.1,5.08,5.41c1,2.2,2.05,6.59-2.11,11.35c-5.94,6.8-8.04,21.59-8.06,21.74
						L604.74,436.62z M602.22,364.82c-3.56,4.93-8.51,12.94-8.58,19.4c-0.08,7.38-0.99,9.34-2.47,11.92
						c-0.61,1.06-1.24,2.16-1.9,4.23c-0.37,2,4.36,11.66,13.01,24.95c1.22-5.39,3.69-13.69,8.09-18.72
						c1.98-2.27,2.46-4.56,1.44-6.81c-1.11-2.44-3.5-3.76-4.24-3.76h-3.96l2.04-3.29c1.15-1.73,3.98-7.23,1.99-9.82
						C604.38,378.66,602.7,373.21,602.22,364.82z"/>
				</g>
				<path d="M598.51,390.88c-0.2,3.5-0.17,6.84-0.02,10.25c0.14,3.38,0.45,6.75,0.88,10.1c0.42,3.35,1.01,6.67,1.76,9.94
					c0.7,3.29,1.7,6.5,2.75,9.67c-0.71-3.27-1.36-6.54-1.71-9.85c-0.39-3.3-0.63-6.61-0.69-9.92c-0.08-3.31-0.02-6.62,0.18-9.91
					c0.2-3.28,0.53-6.61,1.05-9.75l0.01-0.06c0.19-1.16-0.59-2.25-1.75-2.44c-1.16-0.19-2.25,0.59-2.44,1.75
					C598.52,390.73,598.52,390.8,598.51,390.88z"/>
			</g>
			<g>
				<g>
					<path d="M644.45,461.71l-3.89-3.36c-8.56-7.4-22.89-20.55-22.67-25.54c0.11-2.43,0.49-3.89,0.8-5.07
						c0.52-2,0.87-3.32-0.68-9.29c-2.7-10.44,5.03-26.45,5.36-27.13l2.31-4.73l1.36,5.09c2.57,9.62,5.38,15.03,9.4,18.1
						c3.59,2.74,3.23,7.95,2.6,11.12c2.33,0.51,5,2.09,6.6,4.64c1.24,1.98,2.26,5.27,0.12,9.66c-3.68,7.53-1.98,21.29-1.96,21.42
						L644.45,461.71z M624.81,398.01c-2,5.28-4.5,13.65-2.99,19.45c1.72,6.63,1.37,8.6,0.68,11.27c-0.29,1.1-0.58,2.24-0.67,4.25
						c0.15,1.84,6.85,9.49,17.69,19.2c-0.21-5.13-0.01-13.16,2.71-18.72c1.09-2.22,1.11-4.19,0.08-5.84
						c-1.21-1.94-3.6-2.97-4.86-2.97c-0.21,0-0.29,0.03-0.29,0.03l-3.77,1.3l1.27-3.79c0.61-1.82,1.81-7.44-0.59-9.28
						C630.09,409.88,627.27,405.4,624.81,398.01z"/>
				</g>
				<path d="M627.8,422.25c0.67,3.19,1.51,6.17,2.46,9.18c0.95,2.99,2.04,5.94,3.24,8.83c1.19,2.9,2.52,5.73,3.98,8.48
					c1.43,2.77,3.1,5.41,4.81,7.99c-1.43-2.75-2.8-5.52-3.92-8.41c-1.15-2.86-2.16-5.77-3.02-8.72c-0.87-2.95-1.63-5.92-2.24-8.92
					c-0.61-2.98-1.12-6.05-1.42-8.98l-0.01-0.06c-0.11-1.08-1.08-1.87-2.16-1.76c-1.08,0.11-1.87,1.08-1.76,2.16
					C627.77,422.11,627.78,422.18,627.8,422.25z"/>
			</g>
			<g>
				<g>
					<path d="M589.43,248.97l0.56-3.85c0.01-0.1,1.48-10.5-1.2-16.25c-1.55-3.32-0.76-5.78,0.19-7.26c1.23-1.94,3.31-3.11,5.09-3.48
						c-0.44-2.4-0.64-6.36,2.12-8.38c3.09-2.27,5.29-6.33,7.36-13.59l1.1-3.84l1.69,3.61c0.24,0.52,5.88,12.75,3.7,20.62
						c-1.25,4.5-1.01,5.51-0.64,7.03c0.22,0.9,0.49,2.01,0.54,3.85c0.1,3.78-10.92,13.55-17.5,19.04L589.43,248.97z M595.2,220.99
						c-0.93,0-2.74,0.7-3.71,2.22c-0.79,1.23-0.79,2.71,0,4.4c1.99,4.25,2.03,10.33,1.81,14.21c7.59-6.58,13.49-12.73,13.65-14.33
						c-0.04-1.5-0.25-2.37-0.46-3.2c-0.49-2.03-0.73-3.53,0.66-8.53c1.21-4.38-0.57-10.75-2.01-14.77
						c-1.96,5.57-4.15,8.92-7.19,11.16c-1.86,1.37-1.01,5.63-0.57,7.02l0.92,2.89l-2.85-1.04
						C595.45,221.02,595.38,220.99,595.2,220.99z"/>
				</g>
				<path d="M602.57,219.3c-0.55,2.41-1.22,4.65-1.99,6.92c-0.76,2.26-1.62,4.47-2.57,6.65c-0.94,2.18-1.98,4.3-3.13,6.37
					c-1.12,2.08-2.42,4.06-3.75,5.99c1.12-2.07,2.19-4.15,3.08-6.31c0.91-2.15,1.71-4.34,2.4-6.57c0.7-2.22,1.31-4.46,1.81-6.73
					c0.5-2.25,0.93-4.57,1.19-6.78l0-0.04c0.1-0.82,0.84-1.41,1.66-1.31c0.82,0.1,1.4,0.84,1.31,1.66
					C602.59,219.2,602.58,219.25,602.57,219.3z"/>
			</g>
			<g>
				<path d="M565.72,331.5H564c0-7.36,8.8-11.05,9.17-11.2l0.65,1.59C573.75,321.92,565.72,325.3,565.72,331.5z"/>
			</g>
			<path d="M577.1,321.09c0,1.99-1.61,3.59-3.59,3.59c-1.99,0-3.59-1.61-3.59-3.59c0-1.99,1.61-3.59,3.59-3.59
				C575.49,317.5,577.1,319.11,577.1,321.09z"/>
			<path d="M587.08,378.31c0,1.98-1.61,3.59-3.59,3.59c-1.99,0-3.59-1.61-3.59-3.59c0-1.99,1.61-3.59,3.59-3.59
				C585.47,374.72,587.08,376.33,587.08,378.31z"/>
			<path d="M554.19,364.66c0,2.68-2.17,4.85-4.85,4.85c-2.68,0-4.85-2.17-4.85-4.85c0-2.68,2.17-4.85,4.85-4.85
				C552.02,359.81,554.19,361.98,554.19,364.66z"/>
			<path d="M664.22,441.49c0,2.68-2.17,4.85-4.85,4.85c-2.68,0-4.85-2.17-4.85-4.85c0-2.68,2.17-4.85,4.85-4.85
				C662.04,436.64,664.22,438.82,664.22,441.49z"/>
			<path d="M558.13,312.65c0,2.68-2.17,4.85-4.85,4.85c-2.68,0-4.85-2.17-4.85-4.85c0-2.68,2.17-4.85,4.85-4.85
				C555.96,307.8,558.13,309.97,558.13,312.65z"/>
			<path d="M601.72,251.41c0,2.68-2.17,4.85-4.85,4.85c-2.68,0-4.85-2.17-4.85-4.85c0-2.68,2.17-4.85,4.85-4.85
				C599.55,246.56,601.72,248.73,601.72,251.41z"/>
			<g>
				<path d="M564.01,324.77c-0.87-9.49-9.26-10.75-9.61-10.8l0.23-1.7c0.1,0.01,10.09,1.47,11.09,12.35L564.01,324.77z"/>
			</g>
			<g>
				<path d="M569.57,375.89c-4.02-10.45-18.73-9.18-18.87-9.16l-0.16-1.71c0.16-0.01,16.15-1.42,20.64,10.25L569.57,375.89z"/>
			</g>
			<g>
				<path d="M577.48,395.58c-1.39-10.32,5.09-17.4,5.37-17.7l1.26,1.17c-0.06,0.07-6.2,6.81-4.92,16.3L577.48,395.58z"/>
			</g>
			<g>
				<path d="M664.64,465.65c-7.58-7.58-6.04-21.18-5.97-21.76l1.7,0.21c-0.02,0.13-1.51,13.35,5.48,20.34L664.64,465.65z"/>
			</g>
		</g>
	</g>
	<path d="M726.64,474.18c0,7.31-4.74,13.24-10.59,13.24c-5.85,0-10.59-5.93-10.59-13.24c0-7.31,4.74-13.24,10.59-13.24
		C721.9,460.94,726.64,466.87,726.64,474.18z"/>
</g>
</svg>
