<?xml version="1.0" encoding="utf-8"?>
<!-- Generator: Adobe Illustrator 23.0.1, SVG Export Plug-In . SVG Version: 6.00 Build 0)  -->
<svg version="1.1" id="donut_store" xmlns="http://www.w3.org/2000/svg" xmlns:xlink="http://www.w3.org/1999/xlink" x="0px"
	 y="0px" viewBox="0 0 159.8 204.4" style="enable-background:new 0 0 159.8 204.4;" xml:space="preserve">
<style type="text/css">
	.st0{fill:#3B0E1E;}
</style>
<title>Artboard 50star-rate</title>
<g>
	<path class="st0" d="M158.4,204.4H1.4c-0.7,0-1.4-0.6-1.4-1.4c0,0,0,0,0,0v-106c0-0.7,0.6-1.4,1.4-1.4c0,0,0,0,0,0h157.1
		c0.7,0,1.4,0.6,1.4,1.4l0,0v106C159.8,203.8,159.2,204.4,158.4,204.4C158.5,204.4,158.5,204.4,158.4,204.4z M2.7,201.7h154.4V98.4
		H2.7V201.7z"/>
	<path class="st0" d="M12.6,127.4c-6.9,0-12.6-5.6-12.6-12.6V97.1c0-0.7,0.6-1.4,1.4-1.4c0,0,0,0,0,0h22.4c0.7,0,1.4,0.6,1.4,1.4
		v17.8C25.1,121.8,19.5,127.4,12.6,127.4z M2.7,98.4v16.4c-0.1,5.4,4.3,9.9,9.8,10s9.9-4.3,10-9.8c0-0.1,0-0.1,0-0.2V98.4H2.7z"/>
	<path class="st0" d="M35,127.4c-6.9,0-12.6-5.6-12.6-12.6V97.1c0-0.7,0.6-1.4,1.4-1.4c0,0,0,0,0,0h22.4c0.7,0,1.4,0.6,1.4,1.4v17.8
		C47.6,121.8,42,127.4,35,127.4z M25.2,98.4v16.4c0,5.4,4.4,9.9,9.9,9.9s9.9-4.4,9.9-9.9V98.4H25.2z"/>
	<path class="st0" d="M57.5,127.4c-6.9,0-12.6-5.6-12.6-12.6V97.1c0-0.7,0.6-1.4,1.4-1.4c0,0,0,0,0,0h22.4c0.7,0,1.4,0.6,1.4,1.4
		v17.8C70,121.8,64.4,127.4,57.5,127.4z M47.6,98.4v16.4c0,5.4,4.4,9.9,9.9,9.9c5.4,0,9.9-4.4,9.9-9.9V98.4H47.6z"/>
	<path class="st0" d="M79.9,127.4c-6.9,0-12.6-5.6-12.6-12.6V97.1c0-0.7,0.6-1.4,1.4-1.4c0,0,0,0,0,0h22.4c0.7,0,1.4,0.6,1.4,1.4
		c0,0,0,0,0,0v17.8C92.5,121.8,86.8,127.4,79.9,127.4z M70,98.4v16.4c0,5.4,4.4,9.9,9.9,9.9c5.4,0,9.9-4.4,9.9-9.9V98.4H70z"/>
	<path class="st0" d="M102.3,127.4c-6.9,0-12.6-5.6-12.6-12.6V97.1c0-0.7,0.6-1.4,1.4-1.4c0,0,0,0,0,0h22.4c0.7,0,1.4,0.6,1.4,1.4
		c0,0,0,0,0,0v17.8C114.9,121.8,109.3,127.4,102.3,127.4z M92.5,98.4v16.4c-0.1,5.4,4.3,9.9,9.8,10c5.4,0.1,9.9-4.3,10-9.8
		c0-0.1,0-0.1,0-0.2V98.4H92.5z"/>
	<path class="st0" d="M124.8,127.4c-6.9,0-12.6-5.6-12.6-12.6V97.1c0-0.7,0.6-1.4,1.4-1.4H136c0.7,0,1.4,0.6,1.4,1.4l0,0v17.8
		C137.4,121.8,131.7,127.4,124.8,127.4z M114.9,98.4v16.4c0,5.4,4.4,9.9,9.9,9.9s9.9-4.4,9.9-9.9c0,0,0,0,0,0V98.4H114.9z"/>
	<path class="st0" d="M147.2,127.4c-6.9,0-12.6-5.6-12.6-12.6V97.1c0-0.7,0.6-1.4,1.4-1.4l0,0h22.4c0.7,0,1.4,0.6,1.4,1.4l0,0v17.8
		C159.8,121.8,154.2,127.4,147.2,127.4z M137.4,98.4v16.4c0,5.4,4.4,9.9,9.9,9.9c5.4,0,9.9-4.4,9.9-9.9c0,0,0,0,0,0V98.4H137.4z"/>
	<path class="st0" d="M1.4,98.4c-0.7,0-1.4-0.6-1.4-1.4c0-0.2,0-0.4,0.1-0.5l22.4-53c0.3-0.7,1.1-1,1.8-0.7s1,1.1,0.7,1.8l0,0
		l-22.4,53C2.4,98.1,1.9,98.4,1.4,98.4z"/>
	<path class="st0" d="M158.4,98.4c-0.5,0-1-0.3-1.2-0.8l-22.4-53c-0.3-0.7,0-1.5,0.7-1.8c0.7-0.3,1.5,0,1.8,0.7l22.4,53
		c0.3,0.7,0,1.5-0.7,1.8C158.8,98.4,158.6,98.4,158.4,98.4L158.4,98.4z"/>
	<g>
		<path class="st0" d="M79.9,59.4c-8.5,0-15.3-6.9-15.3-15.3c0-0.7,0.6-1.4,1.4-1.4h28c0.7,0,1.4,0.6,1.4,1.4
			C95.2,52.5,88.4,59.4,79.9,59.4z M67.3,45.4c0.7,6.9,7,12,13.9,11.2c5.9-0.6,10.6-5.3,11.2-11.2H67.3z"/>
		<path class="st0" d="M136,98.4H23.8c-0.7,0-1.4-0.6-1.4-1.4c0,0,0,0,0,0V44c0-0.7,0.6-1.4,1.4-1.4h13.4c0.7,0,1.4,0.6,1.4,1.4l0,0
			c-0.1,22.8,18.3,41.4,41.1,41.5c22.8,0.1,41.4-18.3,41.5-41.1c0-0.1,0-0.3,0-0.4c0-0.7,0.6-1.4,1.4-1.4H136c0.7,0,1.4,0.6,1.4,1.4
			v0v53C137.4,97.8,136.8,98.4,136,98.4C136,98.4,136,98.4,136,98.4z M25.2,95.7h109.5V45.4h-10.7c-0.8,24.3-21.1,43.4-45.4,42.7
			c-23.3-0.7-41.9-19.4-42.7-42.7H25.2V95.7z"/>
	</g>
	<g id="donut">
		<path id="donut_1_" class="st0" d="M79.9,88.1c-24.3,0-44-19.7-44-44c0-24.3,19.7-44,44-44c24.3,0,44,19.7,44,44
			C123.9,68.4,104.2,88.1,79.9,88.1z M79.9,2.7C57.1,2.7,38.6,21.2,38.6,44c0,22.8,18.5,41.3,41.3,41.3c22.8,0,41.3-18.5,41.3-41.3
			C121.2,21.2,102.7,2.7,79.9,2.7z M79.9,59.4c-8.5,0-15.3-6.9-15.3-15.4c0-8.5,6.9-15.3,15.4-15.3c8.5,0,15.3,6.9,15.3,15.3
			C95.2,52.5,88.4,59.4,79.9,59.4z M79.9,31.4c-7,0-12.6,5.7-12.6,12.6s5.7,12.6,12.6,12.6S92.5,51,92.5,44c0,0,0,0,0,0
			C92.5,37.1,86.9,31.4,79.9,31.4z"/>
		<path id="space3" class="st0" d="M53.9,79.3c-0.3,0-0.6-0.1-0.8-0.3C46.8,74.1,41.9,67.7,39,60.3c-0.2-0.6,0-1.3,0.5-1.6
			c6-3.7,13.8-1.9,17.6,4c3.3,5.2,2.3,12.1-2.3,16.2C54.6,79.1,54.2,79.3,53.9,79.3z M41.9,60.4c2.6,6.1,6.7,11.5,11.9,15.7
			c3.7-4.2,3.3-10.5-0.9-14.2C49.9,59.2,45.6,58.6,41.9,60.4z"/>
		<path id="space2" class="st0" d="M108.7,77c-0.3,0-0.6-0.1-0.8-0.3c-5.7-4.1-7.1-12.1-3-17.8c3.8-5.3,10.9-6.9,16.5-3.8
			c0.6,0.3,0.8,1,0.6,1.6c-2.3,7.6-6.6,14.5-12.5,19.9C109.3,76.8,109,77,108.7,77z M115.3,56.3c-5.6,0-10.1,4.5-10.1,10
			c0,2.9,1.2,5.6,3.4,7.5c4.8-4.7,8.5-10.4,10.6-16.8C117.9,56.5,116.6,56.3,115.3,56.3z"/>
		<path id="space1" class="st0" d="M90.9,15.4c-7,0-12.8-5.7-12.8-12.8c0-0.5,0-0.9,0.1-1.4C78.3,0.5,78.9,0,79.6,0l0.3,0
			c7.8,0,15.4,2.1,22.2,6c0.6,0.3,0.8,1.1,0.6,1.7C100.6,12.3,96,15.3,90.9,15.4z M80.9,2.7c0.1,5.6,4.6,10,10.2,9.9
			c3.5,0,6.7-1.9,8.5-4.9C93.8,4.6,87.4,2.9,80.9,2.7z"/>
		<path id="top4" class="st0" d="M60.1,24.2c-2.1,0-3.8-1.7-3.8-3.8s1.7-3.8,3.8-3.8c2.1,0,3.8,1.7,3.8,3.8c0,0,0,0,0,0
			C63.9,22.5,62.2,24.2,60.1,24.2z M60.1,19.3c-0.6,0-1.1,0.5-1.1,1.1c0,0.6,0.5,1.1,1.1,1.1c0.6,0,1.1-0.5,1.1-1.1c0,0,0,0,0,0
			C61.2,19.8,60.7,19.3,60.1,19.3z"/>
		<path id="top3" class="st0" d="M107.9,35.5c-1.9,0-3.4-1.5-3.4-3.4c0-1.9,1.5-3.4,3.4-3.4s3.4,1.5,3.4,3.4l0,0
			C111.3,34,109.8,35.5,107.9,35.5z M107.9,31.4c-0.4,0-0.7,0.3-0.7,0.7c0,0.4,0.3,0.7,0.7,0.7c0.4,0,0.7-0.3,0.7-0.7
			C108.6,31.7,108.3,31.4,107.9,31.4z"/>
		<path id="top2" class="st0" d="M78,76c-2.2,0-3.9-1.8-3.9-4s1.8-3.9,4-3.9c2.2,0,3.9,1.8,3.9,4C82,74.2,80.2,76,78,76z M78,70.8
			c-0.7,0-1.2,0.6-1.2,1.2c0,0.7,0.6,1.2,1.2,1.2c0.7,0,1.2-0.6,1.2-1.2c0,0,0,0,0,0C79.3,71.4,78.7,70.8,78,70.8z"/>
		<path id="top1" class="st0" d="M49.7,47.9c-2.7,0-4.8-2.2-4.8-4.8s2.2-4.8,4.8-4.8s4.8,2.2,4.8,4.8v0
			C54.6,45.7,52.4,47.9,49.7,47.9z M49.7,41c-1.2,0-2.1,1-2.1,2.1s1,2.1,2.1,2.1s2.1-1,2.1-2.1c0,0,0,0,0,0
			C51.8,41.9,50.9,41,49.7,41z"/>
	</g>
	<path class="st0" d="M149.4,204.4H119c-0.7,0-1.4-0.6-1.4-1.4l0,0v-64.2c0-0.7,0.6-1.4,1.4-1.4l0,0h30.5c0.7,0,1.4,0.6,1.4,1.4
		v64.2C150.8,203.8,150.2,204.4,149.4,204.4z M120.3,201.7h27.8v-61.5h-27.8L120.3,201.7z"/>
	<path class="st0" d="M111.3,196.9H8.6c-0.7,0-1.4-0.6-1.4-1.4v-56.7c0-0.7,0.6-1.4,1.4-1.4h102.7c0.7,0,1.4,0.6,1.4,1.4
		c0,0,0,0,0,0v56.7C112.7,196.3,112.1,196.9,111.3,196.9z M10,194.2h100v-53.9H10V194.2z"/>
	<path class="st0" d="M84.7,196.9c-0.7,0-1.4-0.6-1.4-1.4l0,0v-56.7c0-0.7,0.6-1.3,1.4-1.3c0.7,0,1.3,0.6,1.3,1.3v56.7
		C86,196.3,85.4,196.9,84.7,196.9z"/>
	<path class="st0" d="M124.6,173.9c-1.6,0-2.9-1.3-2.9-2.9c0-1.6,1.3-2.9,2.9-2.9c1.6,0,2.9,1.3,2.9,2.9
		C127.4,172.6,126.2,173.9,124.6,173.9z M124.6,169.9c-0.6,0-1.1,0.5-1.1,1.1c0,0.6,0.5,1.1,1.1,1.1c0.6,0,1.1-0.5,1.1-1.1
		C125.6,170.4,125.2,169.9,124.6,169.9L124.6,169.9z"/>
</g>
</svg>
