<?xml version="1.0" encoding="utf-8"?>
<!-- Generator: Adobe Illustrator 23.0.1, SVG Export Plug-In . SVG Version: 6.00 Build 0)  -->
<svg version="1.1" id="Layer_1" xmlns="http://www.w3.org/2000/svg" xmlns:xlink="http://www.w3.org/1999/xlink" x="0px" y="0px"
	 viewBox="0 0 557 428" style="enable-background:new 0 0 557 428;" xml:space="preserve">
<style type="text/css">
	.st0{fill:#E93B4C;}
</style>
<path class="st0" d="M394.37,80.19H172.42c-13.6,0-24.63,11.03-24.63,24.63v222.92c0,13.6,11.03,24.63,24.63,24.63h221.96
	c13.6,0,24.63-11.03,24.63-24.63V104.81C419,91.21,407.97,80.19,394.37,80.19z M360.45,221.14c-3.78-8.5-13.16-13.3-22.58-10.96
	c-6.52,1.62-11.56,6.84-13.83,13.16l-36.58,101.88h-90.51l80.52-34.32c7.41-3.16,12.21-10.43,12.21-18.48v0
	c0-7.85-4.86-14.89-12.21-17.66L174.92,216.1v-87.02l34.54,80.98c3.16,7.41,10.43,12.21,18.49,12.21h0
	c7.85,0,14.88-4.86,17.65-12.21l38.71-102.74h84.35l-78.3,32.54c-6.21,2.58-11.16,7.87-12.47,14.46
	c-1.88,9.53,3.38,18.66,12.05,22.02l101.94,39.49v75.91L360.45,221.14z M373.96,325.23h-55.47l24.59-74.6L373.96,325.23z
	 M174.92,247.3l73.73,25.61l-73.73,29.16V247.3z M198.2,107.32h54.91l-25.65,73.93L198.2,107.32z M391.87,184.53l-73.33-26.21
	l73.33-28.24V184.53z"/>
</svg>
