<?xml version="1.0" encoding="utf-8"?>
<!-- Generator: Adobe Illustrator 23.0.1, SVG Export Plug-In . SVG Version: 6.00 Build 0)  -->
<svg version="1.1" id="logo" xmlns="http://www.w3.org/2000/svg" xmlns:xlink="http://www.w3.org/1999/xlink" x="0px" y="0px"
	 viewBox="0 0 504 225" style="enable-background:new 0 0 504 225;" xml:space="preserve">
<style type="text/css">
	.st0{fill:#E93B4C;}
	.st1{fill:#2D2D2D;}
</style>
<path class="st0" d="M208.56,64.46h-57.94c-3.55,0-6.43,2.88-6.43,6.43v58.19c0,3.55,2.88,6.43,6.43,6.43h57.94
	c3.55,0,6.43-2.88,6.43-6.43V70.89C214.99,67.34,212.11,64.46,208.56,64.46z M199.7,101.25c-0.99-2.22-3.44-3.47-5.9-2.86
	c-1.7,0.42-3.02,1.78-3.61,3.44l-9.55,26.59h-23.63l21.02-8.96c1.93-0.82,3.19-2.72,3.19-4.82v0c0-2.05-1.27-3.89-3.19-4.61
	l-26.77-10.09V77.22l9.02,21.14c0.82,1.93,2.72,3.19,4.83,3.19h0c2.05,0,3.89-1.27,4.61-3.19l10.1-26.82h22.02l-20.44,8.49
	c-1.62,0.67-2.91,2.05-3.25,3.77c-0.49,2.49,0.88,4.87,3.15,5.75l26.61,10.31v19.82L199.7,101.25z M203.23,128.43h-14.48l6.42-19.47
	L203.23,128.43z M151.27,108.08l19.25,6.69l-19.25,7.61V108.08z M157.35,71.54h14.33l-6.7,19.3L157.35,71.54z M207.9,91.7
	l-19.14-6.84l19.14-7.37V91.7z"/>
<g id="acronym">
	<path class="st1" d="M234.24,64.57L234.24,64.57c1.74,0,3.29,1.08,3.89,2.71l8.71,23.47l8.74-23.53c0.59-1.59,2.11-2.64,3.8-2.64
		l0,0c2.87,0,4.83,2.9,3.76,5.56l-11.45,28.52c-0.81,2.02-2.77,3.35-4.96,3.35l0,0c-2.18,0-4.14-1.33-4.96-3.35l-11.39-28.38
		C229.29,67.54,231.3,64.57,234.24,64.57z"/>
	<path class="st1" d="M268,93.24L268,93.24c1.19-1.43,3.27-1.81,4.84-0.81c2.58,1.64,5.34,2.62,8.51,2.62c3.34,0,5.36-1.33,5.36-3.5
		v-0.11c0-2.07-1.27-3.13-7.49-4.73c-7.49-1.91-12.32-3.98-12.32-11.36v-0.11c0-6.74,5.42-11.2,13.01-11.2
		c3.9,0,7.38,0.88,10.43,2.5c1.91,1.01,2.52,3.46,1.29,5.23l-0.24,0.35c-1.05,1.52-3.06,1.97-4.69,1.1
		c-2.34-1.25-4.65-1.96-6.9-1.96c-3.13,0-4.78,1.43-4.78,3.24v0.11c0,2.44,1.59,3.24,8.02,4.89c7.54,1.96,11.79,4.67,11.79,11.15
		v0.11c0,7.38-5.63,11.52-13.64,11.52c-4.23,0-8.48-1.11-12.23-3.35C266.96,97.73,266.51,95.03,268,93.24z"/>
	<path class="st1" d="M307.9,93.4l-2.43,5.96c-0.59,1.44-1.98,2.38-3.53,2.38l0,0c-2.73,0-4.58-2.79-3.51-5.31l12.19-28.65
		c0.9-2.1,2.96-3.47,5.25-3.47l0,0c2.29,0,4.35,1.37,5.25,3.47l12.14,28.52c1.1,2.58-0.8,5.44-3.6,5.44h0
		c-1.59,0-3.02-0.96-3.62-2.44l-2.41-5.9 M320.69,86.18 M310.82,86.18 M323.61,93.4l-2.92-7.22l-4.41-10.77
		c-0.19-0.47-0.86-0.47-1.05,0l-4.41,10.77l-2.92,7.22"/>
	<path class="st1" d="M342.56,93.24h0.11c2.35,0,4.25,1.9,4.25,4.25v0c0,2.35-1.9,4.25-4.25,4.25h-0.11c-2.35,0-4.25-1.9-4.25-4.25
		v0C338.31,95.15,340.22,93.24,342.56,93.24z"/>
</g>
<g id="text">
	<path class="st1" d="M231.02,116.17h4.73v0.69h-3.99v2.35h3.56v0.68h-3.56v2.87h-0.74V116.17z"/>
	<path class="st1" d="M238.55,116.13h0.7l3,6.63h-0.8l-0.77-1.74h-3.58l-0.78,1.74h-0.76L238.55,116.13z M240.38,120.34l-1.49-3.35
		l-1.5,3.35H240.38z"/>
	<path class="st1" d="M243.22,116.17h0.7l4.15,5.27v-5.27h0.72v6.58h-0.59l-4.25-5.4v5.4h-0.72V116.17z"/>
	<path class="st1" d="M249.89,121.79l0.46-0.54c0.69,0.62,1.34,0.93,2.26,0.93c0.88,0,1.47-0.47,1.47-1.12v-0.02
		c0-0.61-0.33-0.96-1.71-1.25c-1.51-0.33-2.21-0.82-2.21-1.9v-0.02c0-1.03,0.91-1.8,2.16-1.8c0.96,0,1.65,0.27,2.31,0.81l-0.43,0.57
		c-0.61-0.5-1.22-0.71-1.9-0.71c-0.86,0-1.4,0.47-1.4,1.06v0.02c0,0.62,0.34,0.97,1.79,1.28c1.47,0.32,2.14,0.86,2.14,1.86v0.02
		c0,1.13-0.94,1.86-2.25,1.86C251.54,122.85,250.68,122.5,249.89,121.79z"/>
	<path class="st1" d="M256.02,116.17h0.74v2.92h3.8v-2.92h0.74v6.58h-0.74v-2.96h-3.8v2.96h-0.74V116.17z"/>
	<path class="st1" d="M265.28,116.13h0.7l3,6.63h-0.8l-0.77-1.74h-3.58l-0.78,1.74h-0.76L265.28,116.13z M267.12,120.34l-1.49-3.35
		l-1.5,3.35H267.12z"/>
	<path class="st1" d="M268.6,116.17h0.81l1.88,5.48l1.8-5.5h0.61l1.8,5.5l1.88-5.48h0.78l-2.35,6.63h-0.63l-1.8-5.34l-1.81,5.34
		h-0.62L268.6,116.17z"/>
	<path class="st1" d="M279.2,116.17h4.76v0.68h-4.01v2.25h3.59v0.68h-3.59v2.3H284v0.68h-4.8V116.17z"/>
	<path class="st1" d="M287.11,116.17h0.83l2.34,5.67l2.35-5.67h0.8l-2.83,6.63h-0.66L287.11,116.17z"/>
	<path class="st1" d="M294.47,116.17h0.74v6.58h-0.74V116.17z"/>
	<path class="st1" d="M296.82,116.17h4.76v0.68h-4.01v2.25h3.59v0.68h-3.59v2.3h4.06v0.68h-4.8V116.17z"/>
	<path class="st1" d="M304.54,116.86h-2.21v-0.69h5.17v0.69h-2.21v5.89h-0.75V116.86z"/>
	<path class="st1" d="M308.58,116.17h0.7l4.15,5.27v-5.27h0.72v6.58h-0.59l-4.25-5.4v5.4h-0.72V116.17z"/>
	<path class="st1" d="M318.12,116.13h0.7l3,6.63h-0.8l-0.77-1.74h-3.58l-0.78,1.74h-0.76L318.12,116.13z M319.95,120.34l-1.49-3.35
		l-1.5,3.35H319.95z"/>
	<path class="st1" d="M322.79,116.17h0.75l2.4,3.59l2.4-3.59h0.75v6.58h-0.74v-5.33l-2.4,3.52h-0.04l-2.4-3.52v5.32h-0.72V116.17z"
		/>
	<path class="st1" d="M330.63,116.17h4.76v0.68h-4.01v2.25h3.59v0.68h-3.59v2.3h4.06v0.68h-4.8V116.17z"/>
	<path class="st1" d="M336.18,121.79l0.46-0.54c0.69,0.62,1.34,0.93,2.26,0.93c0.88,0,1.47-0.47,1.47-1.12v-0.02
		c0-0.61-0.33-0.96-1.71-1.25c-1.51-0.33-2.21-0.82-2.21-1.9v-0.02c0-1.03,0.91-1.8,2.16-1.8c0.96,0,1.65,0.27,2.31,0.81l-0.43,0.57
		c-0.61-0.5-1.22-0.71-1.9-0.71c-0.86,0-1.4,0.47-1.4,1.06v0.02c0,0.62,0.34,0.97,1.79,1.28c1.47,0.32,2.14,0.86,2.14,1.86v0.02
		c0,1.13-0.94,1.86-2.25,1.86C337.82,122.85,336.97,122.5,336.18,121.79z"/>
	<path class="st1" d="M342.31,116.17h4.76v0.68h-4.01v2.25h3.59v0.68h-3.59v2.3h4.06v0.68h-4.8V116.17z"/>
	<path class="st1" d="M230.61,133.68l0.49-0.58c0.73,0.66,1.42,0.98,2.39,0.98c0.94,0,1.55-0.5,1.55-1.18v-0.02
		c0-0.65-0.35-1.02-1.81-1.32c-1.6-0.35-2.34-0.87-2.34-2.01v-0.02c0-1.09,0.97-1.9,2.29-1.9c1.01,0,1.74,0.29,2.45,0.86l-0.46,0.61
		c-0.65-0.53-1.29-0.76-2.01-0.76c-0.91,0-1.48,0.5-1.48,1.12v0.02c0,0.66,0.36,1.02,1.89,1.35c1.55,0.34,2.27,0.91,2.27,1.97v0.02
		c0,1.19-1,1.97-2.38,1.97C232.35,134.8,231.45,134.43,230.61,133.68z"/>
	<path class="st1" d="M238.79,128.46h-2.34v-0.73h5.47v0.73h-2.34v6.24h-0.8V128.46z"/>
	<path class="st1" d="M242.96,131.78v-4.05h0.79v4c0,1.5,0.81,2.35,2.13,2.35c1.28,0,2.1-0.78,2.1-2.3v-4.05h0.79v3.99
		c0,2.03-1.16,3.08-2.91,3.08C244.13,134.81,242.96,133.75,242.96,131.78z"/>
	<path class="st1" d="M250.28,127.73h2.42c2.19,0,3.7,1.5,3.7,3.46v0.02c0,1.96-1.51,3.48-3.7,3.48h-2.42V127.73z M251.07,128.46
		v5.51h1.63c1.76,0,2.89-1.19,2.89-2.74v-0.02c0-1.54-1.12-2.76-2.89-2.76H251.07z"/>
	<path class="st1" d="M257.73,127.73h5.03v0.72h-4.25v2.38h3.8v0.72h-3.8v2.44h4.3v0.72h-5.08V127.73z"/>
	<path class="st1" d="M264.06,127.73h0.74l4.39,5.58v-5.58h0.77v6.96h-0.63l-4.5-5.71v5.71h-0.77V127.73z"/>
	<path class="st1" d="M273.43,128.46h-2.34v-0.73h5.47v0.73h-2.34v6.24h-0.8V128.46z"/>
	<path class="st1" d="M282.92,127.68h0.74l3.17,7.01h-0.85l-0.82-1.84h-3.79l-0.83,1.84h-0.81L282.92,127.68z M284.86,132.14
		l-1.58-3.54l-1.59,3.54H284.86z"/>
	<path class="st1" d="M287.27,133.68l0.49-0.58c0.73,0.66,1.42,0.98,2.39,0.98c0.94,0,1.55-0.5,1.55-1.18v-0.02
		c0-0.65-0.35-1.02-1.81-1.32c-1.6-0.35-2.34-0.87-2.34-2.01v-0.02c0-1.09,0.97-1.9,2.29-1.9c1.01,0,1.74,0.29,2.45,0.86l-0.46,0.61
		c-0.65-0.53-1.29-0.76-2.01-0.76c-0.91,0-1.48,0.5-1.48,1.12v0.02c0,0.66,0.36,1.02,1.89,1.35c1.55,0.34,2.27,0.91,2.27,1.97v0.02
		c0,1.19-1,1.97-2.38,1.97C289.01,134.8,288.11,134.43,287.27,133.68z"/>
	<path class="st1" d="M293.21,133.68l0.49-0.58c0.73,0.66,1.42,0.98,2.39,0.98c0.94,0,1.55-0.5,1.55-1.18v-0.02
		c0-0.65-0.35-1.02-1.81-1.32c-1.6-0.35-2.34-0.87-2.34-2.01v-0.02c0-1.09,0.97-1.9,2.29-1.9c1.01,0,1.74,0.29,2.45,0.86l-0.46,0.61
		c-0.65-0.53-1.29-0.76-2.01-0.76c-0.91,0-1.48,0.5-1.48,1.12v0.02c0,0.66,0.36,1.02,1.89,1.35c1.55,0.34,2.27,0.91,2.27,1.97v0.02
		c0,1.19-1,1.97-2.38,1.97C294.95,134.8,294.04,134.43,293.21,133.68z"/>
	<path class="st1" d="M299.39,131.23v-0.02c0-1.92,1.44-3.6,3.56-3.6s3.54,1.66,3.54,3.58v0.02c0,1.92-1.44,3.6-3.56,3.6
		S299.39,133.16,299.39,131.23z M305.67,131.23v-0.02c0-1.58-1.15-2.88-2.75-2.88s-2.73,1.27-2.73,2.86v0.02
		c0,1.58,1.15,2.88,2.75,2.88S305.67,132.82,305.67,131.23z"/>
	<path class="st1" d="M307.51,131.23v-0.02c0-1.97,1.47-3.6,3.52-3.6c1.26,0,2.02,0.45,2.72,1.1l-0.54,0.58
		c-0.59-0.56-1.24-0.96-2.19-0.96c-1.54,0-2.7,1.25-2.7,2.86v0.02c0,1.61,1.16,2.88,2.7,2.88c0.96,0,1.58-0.37,2.25-1l0.52,0.51
		c-0.73,0.74-1.52,1.22-2.79,1.22C308.99,134.82,307.51,133.23,307.51,131.23z"/>
	<path class="st1" d="M314.9,127.73h0.79v6.96h-0.79V127.73z"/>
	<path class="st1" d="M319.96,127.68h0.74l3.17,7.01h-0.85l-0.82-1.84h-3.79l-0.83,1.84h-0.81L319.96,127.68z M321.9,132.14
		l-1.58-3.54l-1.59,3.54H321.9z"/>
	<path class="st1" d="M325.85,128.46h-2.34v-0.73h5.47v0.73h-2.34v6.24h-0.8V128.46z"/>
	<path class="st1" d="M330.19,127.73h0.79v6.96h-0.79V127.73z"/>
	<path class="st1" d="M332.37,131.23v-0.02c0-1.92,1.44-3.6,3.56-3.6s3.54,1.66,3.54,3.58v0.02c0,1.92-1.44,3.6-3.56,3.6
		S332.37,133.16,332.37,131.23z M338.66,131.23v-0.02c0-1.58-1.15-2.88-2.75-2.88s-2.73,1.27-2.73,2.86v0.02
		c0,1.58,1.15,2.88,2.75,2.88S338.66,132.82,338.66,131.23z"/>
	<path class="st1" d="M340.81,127.73h0.74l4.39,5.58v-5.58h0.77v6.96h-0.63l-4.5-5.71v5.71h-0.77V127.73z"/>
</g>
</svg>
